<svg width="326" height="300" viewBox="0 0 326 300" fill="none" xmlns="http://www.w3.org/2000/svg">
<path d="M5.06238 108.972L192.666 0.578515C193.857 -0.165944 195.048 -0.165953 195.942 0.429614L202 3.5V17.5L197.58 159.893C197.58 163.466 195.346 167.784 192.666 169.422L6.40244 276.922L7.29575 281.091L1.9357 277.964C0.744565 277.368 3.05176e-05 276.028 3.05176e-05 273.944V118.501C0.148922 114.779 2.38232 110.61 5.06238 108.972Z" fill="url(#paint0_radial_10_1021)"/>
<path d="M202 5.5L203.237 163.168C203.237 166.742 201.004 171.06 198.324 172.697L10.7203 281.091C8.04024 282.728 5.80688 280.942 5.80688 277.368V133.539L202 5.5Z" fill="url(#paint1_radial_10_1021)"/>
<path d="M10.7203 112.247L198.324 3.85414C199.962 2.96079 201.451 3.10969 202.344 4.30082C201.748 4.30082 201.004 4.4497 200.26 4.89638L12.6558 113.29C9.97577 114.927 7.74241 119.096 7.74241 122.819V278.411C7.74241 279.9 8.04022 280.942 8.78468 281.686C7.14687 281.686 5.95569 280.048 5.95569 277.368V121.776C5.65791 118.054 7.89131 113.885 10.7203 112.247Z" fill="white"/>
<path d="M32.7562 109.865C32.7562 111.354 33.7985 111.95 34.9896 111.205C36.1807 110.461 37.223 108.674 37.223 107.185C37.223 105.696 36.1807 105.101 34.9896 105.845C33.7985 106.738 32.7562 108.376 32.7562 109.865Z" fill="white"/>
<path d="M24.4183 114.63C24.4183 116.119 25.4606 116.714 26.6517 115.97C27.8428 115.225 28.8851 113.438 28.8851 111.95C28.8851 110.461 27.8428 109.865 26.6517 110.61C25.4606 111.503 24.4183 113.29 24.4183 114.63Z" fill="white"/>
<path d="M16.2293 119.543C16.2293 121.032 17.2715 121.628 18.4626 120.883C19.6538 120.139 20.696 118.352 20.696 116.863C20.696 115.374 19.6538 114.778 18.4626 115.523C17.2715 116.267 16.2293 118.054 16.2293 119.543Z" fill="white"/>
<path opacity="0.4" d="M43.3276 229.425C44.221 229.425 45.2632 229.127 46.1565 228.532L168.099 158.106C171.821 156.022 174.799 150.215 174.799 145.301V61.6242C174.799 58.9441 173.906 56.8596 172.268 55.8174C170.928 55.0729 169.141 55.0729 167.355 56.1151L45.4121 126.541C41.6898 128.625 38.7119 134.432 38.7119 139.346V223.023C38.7119 225.703 39.6053 227.787 41.2431 228.83C41.8387 229.276 42.5832 229.425 43.3276 229.425ZM170.183 57.0085C170.63 57.0085 171.077 57.1574 171.375 57.3063C172.566 57.9018 173.161 59.5397 173.161 61.773V145.45C173.161 149.917 170.481 154.979 167.206 156.915L45.2632 227.341C43.9232 228.085 42.7321 228.234 41.8387 227.639C40.6476 227.043 40.052 225.405 40.052 223.172V139.495C40.052 135.028 42.732 129.966 46.0077 128.03L167.95 57.6041C168.843 57.1574 169.588 57.0085 170.183 57.0085Z" fill="white"/>
<g opacity="0.4">
<path d="M123.58 203.071C124.176 203.071 124.92 202.923 125.665 202.476C128.047 201.136 129.983 197.86 129.983 195.18C129.983 193.691 129.387 192.649 128.494 192.053C127.452 191.458 126.26 191.607 125.069 192.351C122.687 193.691 120.751 196.967 120.751 199.647C120.751 201.136 121.347 202.178 122.24 202.774C122.538 203.071 122.985 203.071 123.58 203.071ZM127.005 193.096C127.303 193.096 127.451 193.096 127.6 193.245C128.047 193.542 128.345 194.138 128.345 195.18C128.345 197.413 126.707 200.094 124.771 201.285C124.027 201.731 123.282 201.88 122.836 201.582C122.389 201.285 122.091 200.689 122.091 199.647C122.091 197.413 123.729 194.733 125.665 193.542C126.111 193.245 126.558 193.096 127.005 193.096Z" fill="white"/>
<path d="M107.649 212.303C108.244 212.303 108.989 212.154 109.733 211.707C112.116 210.367 114.051 207.091 114.051 204.411C114.051 202.922 113.456 201.88 112.562 201.285C111.52 200.689 110.329 200.838 109.138 201.582C106.756 202.922 104.82 206.198 104.82 208.878C104.82 210.367 105.415 211.409 106.309 212.005C106.755 212.154 107.202 212.303 107.649 212.303ZM111.222 202.327C111.52 202.327 111.669 202.327 111.818 202.476C112.265 202.773 112.562 203.369 112.562 204.411C112.562 206.645 110.924 209.325 108.989 210.516C108.244 210.963 107.5 211.111 107.053 210.814C106.607 210.516 106.309 209.92 106.309 208.878C106.309 206.645 107.947 203.965 109.882 202.773C110.329 202.476 110.776 202.327 111.222 202.327Z" fill="white"/>
<path d="M91.8663 221.385C92.4619 221.385 93.2064 221.236 93.9508 220.789C96.3331 219.449 98.2686 216.174 98.2686 213.494C98.2686 212.005 97.6731 210.963 96.7797 210.367C95.7375 209.771 94.5464 209.92 93.3552 210.665C90.973 212.005 89.0374 215.28 89.0374 217.96C89.0374 219.449 89.633 220.492 90.5263 221.087C90.973 221.236 91.4196 221.385 91.8663 221.385ZM95.2908 211.409C95.5886 211.409 95.7375 211.409 95.8864 211.558C96.3331 211.856 96.6309 212.451 96.6309 213.494C96.6309 215.727 94.993 218.407 93.0574 219.598C92.313 220.045 91.5685 220.194 91.1219 219.896C90.6752 219.598 90.3774 219.003 90.3774 217.96C90.3774 215.727 92.0152 213.047 93.9508 211.856C94.5464 211.558 94.993 211.409 95.2908 211.409Z" fill="white"/>
</g>
<path opacity="0.4" d="M99.0964 113.374L203.629 52.9256V162.357C203.629 165.931 201.398 170.248 198.722 171.886L94.1895 232.334V122.902C94.1895 119.18 96.4199 115.011 99.0964 113.374Z" fill="#06033E"/>
<g opacity="0.8">
<path d="M146.51 89.9136L136.236 95.8693C135.492 96.316 134.896 96.0182 134.896 95.1248C134.896 94.2315 135.492 93.1892 136.236 92.7426L146.51 86.7869C147.254 86.3402 147.85 86.638 147.85 87.5313C147.999 88.4247 147.403 89.4669 146.51 89.9136Z" fill="white"/>
<path d="M129.387 99.8893L122.538 103.76C121.794 104.207 121.198 103.909 121.198 103.016C121.198 102.123 121.794 101.08 122.538 100.634L129.387 96.7626C130.132 96.3159 130.727 96.6137 130.727 97.507C130.876 98.4004 130.132 99.4426 129.387 99.8893Z" fill="white"/>
<path d="M135.045 135.475C135.045 136.368 134.449 137.41 133.705 137.857L126.856 141.728C126.111 142.175 125.516 141.877 125.516 140.983C125.516 140.09 126.111 139.048 126.856 138.601L133.705 134.73C134.449 134.283 135.045 134.581 135.045 135.475Z" fill="#9A93F4"/>
<path d="M83.8262 139.644L76.5305 143.812C75.786 144.259 75.1904 143.961 75.1904 143.068C75.1904 142.175 75.786 141.132 76.5305 140.686L83.8262 136.517C84.5707 136.07 85.1662 136.368 85.1662 137.261C85.3151 138.155 84.7196 139.197 83.8262 139.644Z" fill="white"/>
<path d="M83.8262 173.442L76.5305 177.611C75.786 178.058 75.1904 177.76 75.1904 176.866C75.1904 175.973 75.786 174.931 76.5305 174.484L83.8262 170.315C84.5707 169.868 85.1662 170.166 85.1662 171.06C85.3151 171.953 84.7196 172.995 83.8262 173.442Z" fill="white"/>
<path d="M83.8262 180.142L76.5305 184.311C75.786 184.758 75.1904 184.46 75.1904 183.567C75.1904 182.673 75.786 181.631 76.5305 181.184L83.8262 177.015C84.5707 176.569 85.1662 176.866 85.1662 177.76C85.3151 178.653 84.7196 179.695 83.8262 180.142Z" fill="white"/>
<path d="M141.894 111.205C141.894 112.099 141.298 113.141 140.554 113.587L120.007 125.499C119.262 125.945 118.667 125.648 118.667 124.754C118.667 123.861 119.262 122.819 120.007 122.372L140.554 110.461C141.298 110.014 141.894 110.312 141.894 111.205Z" fill="white"/>
<path d="M140.554 120.437L136.385 122.819C135.641 123.265 135.045 122.968 135.045 122.074C135.045 121.181 135.641 120.139 136.385 119.692L140.554 117.31C141.298 116.863 141.894 117.161 141.894 118.054C141.894 118.948 141.298 119.99 140.554 120.437Z" fill="white"/>
<path d="M140.554 127.137L128.94 133.837C128.196 134.283 127.6 133.986 127.6 133.092C127.6 132.199 128.196 131.157 128.94 130.71L140.554 124.01C141.298 123.563 141.894 123.861 141.894 124.754C141.894 125.648 141.298 126.69 140.554 127.137Z" fill="#9A93F4"/>
<path d="M125.069 147.981C125.069 147.088 125.665 146.046 126.409 145.599L140.405 137.559C141.15 137.112 141.745 137.41 141.745 138.303C141.745 139.197 141.15 140.239 140.405 140.686L126.409 148.726C125.814 149.321 125.069 148.875 125.069 147.981Z" fill="#9A93F4"/>
<path d="M111.52 150.661L98.5664 158.106C97.822 158.553 97.2265 158.255 97.2265 157.362C97.2265 156.468 97.822 155.426 98.5664 154.979L111.52 147.535L112.562 146.939L121.645 141.728C122.389 141.281 122.985 141.579 122.985 142.472C122.985 143.366 122.389 144.408 121.645 144.855L112.562 150.066L111.52 150.661Z" fill="white"/>
<path d="M140.554 144.259C141.298 143.812 141.894 144.11 141.894 145.004C141.894 145.897 141.298 146.939 140.554 147.386L137.278 149.173C136.534 149.619 135.938 149.321 135.938 148.428C135.938 147.535 136.534 146.493 137.278 146.046L140.554 144.259Z" fill="#9A93F4"/>
<path d="M134.152 154.682L140.554 150.959C141.298 150.513 141.894 150.81 141.894 151.704C141.894 152.597 141.298 153.639 140.554 154.086L134.152 157.808C133.407 158.255 132.812 157.957 132.812 157.064C132.812 156.171 133.407 155.128 134.152 154.682Z" fill="#9A93F4"/>
<path d="M103.331 165.7L106.458 163.913L107.351 163.466L118.071 157.213C118.816 156.766 119.411 157.064 119.411 157.957C119.411 158.851 118.816 159.893 118.071 160.339L107.351 166.593L106.458 167.04L103.331 168.826C102.587 169.273 101.991 168.975 101.991 168.082C101.991 167.189 102.587 166.146 103.331 165.7Z" fill="white"/>
<path d="M94.0997 171.06L98.1198 168.826C98.8643 168.38 99.4599 168.677 99.4599 169.571C99.4599 170.464 98.8643 171.506 98.1198 171.953L94.0997 174.186C93.3553 174.633 92.7597 174.335 92.7597 173.442C92.6108 172.549 93.3553 171.506 94.0997 171.06Z" fill="white"/>
<path d="M73.106 129.072L98.5665 114.332C99.3109 113.885 99.9065 114.183 99.9065 115.076C99.9065 115.97 99.3109 117.012 98.5665 117.459L73.106 132.199C72.3615 132.646 71.7659 132.348 71.7659 131.454C71.7659 130.71 72.3615 129.519 73.106 129.072Z" fill="white"/>
</g>
<path d="M146.51 96.7627L142.341 99.1449C141.596 99.5916 141.001 99.2938 141.001 98.4005C141.001 97.5071 141.596 96.4649 142.341 96.0183L146.51 93.4871C147.254 93.0404 147.85 93.3382 147.85 94.2315C147.999 95.1249 147.403 96.316 146.51 96.7627Z" fill="url(#paint2_linear_10_1021)"/>
<path d="M123.431 154.086L132.514 148.875C133.258 148.428 133.854 148.726 133.854 149.619C133.854 150.513 133.258 151.555 132.514 152.001L123.431 157.213C122.687 157.659 122.091 157.362 122.091 156.468C122.091 155.575 122.687 154.533 123.431 154.086Z" fill="#F8359E"/>
<path d="M118.369 131.603C118.369 130.71 118.965 129.668 119.709 129.221L131.323 122.521C132.067 122.074 132.663 122.372 132.663 123.265C132.663 124.159 132.067 125.201 131.323 125.648L119.709 132.348C118.965 132.943 118.369 132.497 118.369 131.603Z" fill="url(#paint3_linear_10_1021)"/>
<path d="M115.689 107.781L105.416 113.736C104.671 114.183 104.075 113.885 104.075 112.992C104.075 112.099 104.671 111.056 105.416 110.61L115.689 104.654C116.433 104.207 117.029 104.505 117.029 105.398C117.029 106.292 116.433 107.334 115.689 107.781Z" fill="url(#paint4_linear_10_1021)"/>
<path d="M140.554 106.887L127.154 114.63C126.409 115.076 125.814 114.779 125.814 113.885C125.814 112.992 126.409 111.95 127.154 111.503L140.554 103.761C141.298 103.314 141.894 103.612 141.894 104.505C141.894 105.398 141.298 106.441 140.554 106.887Z" fill="url(#paint5_linear_10_1021)"/>
<path d="M83.8262 186.842L76.5305 191.011C75.786 191.458 75.1904 191.16 75.1904 190.267C75.1904 189.373 75.786 188.331 76.5305 187.884L83.8262 183.715C84.5707 183.269 85.1662 183.567 85.1662 184.46C85.3151 185.353 84.7196 186.395 83.8262 186.842Z" fill="url(#paint6_linear_10_1021)"/>
<path d="M140.554 133.986L138.023 135.474C137.278 135.921 136.683 135.623 136.683 134.73C136.683 133.837 137.278 132.794 138.023 132.348L140.554 130.859C141.298 130.412 141.894 130.71 141.894 131.603C141.894 132.348 141.298 133.539 140.554 133.986Z" fill="#E8975B"/>
<path d="M110.627 134.432L111.371 133.986L114.647 132.05C115.391 131.604 115.987 131.901 115.987 132.795C115.987 133.688 115.391 134.73 114.647 135.177L111.371 137.113L110.627 137.559L107.351 139.495C106.607 139.941 106.011 139.644 106.011 138.75C106.011 137.857 106.607 136.815 107.351 136.368L110.627 134.432Z" fill="url(#paint7_linear_10_1021)"/>
<path d="M134.598 161.084L146.51 154.235C147.254 153.788 147.85 154.086 147.85 154.979C147.85 155.873 147.254 156.915 146.51 157.362L134.598 164.211C133.854 164.657 133.258 164.359 133.258 163.466C133.258 162.722 133.854 161.531 134.598 161.084Z" fill="#E8975B"/>
<path d="M127.452 127.434L315.055 19.0412C316.246 18.2967 317.438 18.2967 318.331 18.8923L323.691 22.019L319.969 23.5079V178.355C319.969 181.929 317.735 186.247 315.055 187.884L128.792 295.384L129.685 299.553L124.325 296.427C123.134 295.831 122.389 294.491 122.389 292.407V136.815C122.538 133.241 124.772 128.923 127.452 127.434Z" fill="url(#paint8_radial_10_1021)"/>
<path d="M133.109 299.404L320.713 191.011C323.393 189.373 325.627 185.204 325.627 181.482V26.0391C325.627 22.4656 323.393 20.6789 320.713 22.3168L133.109 130.71C130.429 132.348 128.196 136.517 128.196 140.239V295.831C128.047 299.256 130.281 300.893 133.109 299.404Z" fill="url(#paint9_radial_10_1021)"/>
<path opacity="0.4" d="M170.332 244.314L283.937 178.504C286.617 176.866 288.85 172.697 288.85 168.975V78.8956C288.85 75.3222 286.617 73.5355 283.937 75.1733L170.332 141.132C167.652 142.77 165.419 146.939 165.419 150.661V240.741C165.419 244.314 167.652 245.952 170.332 244.314Z" fill="#06033E"/>
<path d="M178.224 249.526L291.828 183.716C294.508 182.078 296.742 177.909 296.742 174.186V84.1069C296.742 80.5335 294.508 78.7468 291.828 80.3846L178.224 146.195C175.544 147.833 173.31 152.002 173.31 155.724V245.803C173.31 249.377 175.544 251.015 178.224 249.526Z" fill="url(#paint10_radial_10_1021)"/>
<path d="M133.109 130.561L320.713 22.1679C322.351 21.2745 323.84 21.4234 324.733 22.6145C324.138 22.6145 323.393 22.7634 322.649 23.2101L135.045 131.603C132.365 133.241 130.132 137.41 130.132 141.132V296.724C130.132 298.213 130.429 299.256 131.174 300C129.536 300 128.345 298.362 128.345 295.682V140.09C128.047 136.368 130.281 132.199 133.109 130.561Z" fill="white"/>
<path d="M253.265 173.591C253.563 173.591 253.712 173.442 253.861 173.293L277.832 141.132C277.981 140.983 277.981 140.686 277.981 140.388C277.832 140.09 277.683 139.941 277.386 139.941L253.414 135.326C252.967 135.177 252.67 135.474 252.521 135.921C252.372 136.368 252.67 136.666 253.116 136.815L275.897 141.132L252.67 172.4C252.372 172.697 252.521 173.144 252.819 173.442C252.967 173.591 253.116 173.591 253.265 173.591Z" fill="white"/>
<path d="M216.936 194.585C217.233 194.585 217.531 194.287 217.68 193.989C217.829 193.542 217.531 193.245 217.084 193.096L194.304 188.778L217.531 157.511C217.829 157.213 217.68 156.766 217.382 156.468C217.084 156.17 216.638 156.319 216.34 156.617L192.368 188.778C192.22 188.927 192.22 189.225 192.22 189.522C192.368 189.82 192.517 189.969 192.815 189.969L216.936 194.585C216.787 194.585 216.787 194.585 216.936 194.585Z" fill="white"/>
<path d="M247.756 172.995C248.054 172.995 248.203 172.846 248.352 172.697C248.501 172.4 248.501 171.953 248.054 171.655L222.742 157.064C222.445 156.915 221.998 156.915 221.7 157.362C221.551 157.659 221.551 158.106 221.998 158.404L247.31 172.995C247.607 172.995 247.756 172.995 247.756 172.995Z" fill="white"/>
<defs>
<radialGradient id="paint0_radial_10_1021" cx="0" cy="0" r="1" gradientUnits="userSpaceOnUse" gradientTransform="translate(181.655 20.642) rotate(180) scale(177.838 428.627)">
<stop stop-color="#96FFC1"/>
<stop offset="0.360564" stop-color="#52DA8A"/>
<stop offset="0.611623" stop-color="#11A2FD"/>
<stop offset="0.767637" stop-color="#31B1FF"/>
<stop offset="0.953125" stop-color="#009EFF"/>
</radialGradient>
<radialGradient id="paint1_radial_10_1021" cx="0" cy="0" r="1" gradientUnits="userSpaceOnUse" gradientTransform="translate(183.352 25.783) rotate(180) scale(173.815 421.174)">
<stop stop-color="#96FFC1"/>
<stop offset="0.360564" stop-color="#52DA8A"/>
<stop offset="0.611623" stop-color="#11A2FD"/>
<stop offset="0.767637" stop-color="#31B1FF"/>
<stop offset="0.953125" stop-color="#009EFF"/>
</radialGradient>
<linearGradient id="paint2_linear_10_1021" x1="147.872" y1="93.2819" x2="140.672" y2="93.7008" gradientUnits="userSpaceOnUse">
<stop stop-color="#34B76A"/>
<stop offset="1" stop-color="#00D13B"/>
</linearGradient>
<linearGradient id="paint3_linear_10_1021" x1="132.663" y1="122.316" x2="117.711" y2="123.381" gradientUnits="userSpaceOnUse">
<stop stop-color="#34B76A"/>
<stop offset="1" stop-color="#00D13B"/>
</linearGradient>
<linearGradient id="paint4_linear_10_1021" x1="117.029" y1="104.449" x2="103.477" y2="105.399" gradientUnits="userSpaceOnUse">
<stop stop-color="#34B76A"/>
<stop offset="1" stop-color="#00D13B"/>
</linearGradient>
<linearGradient id="paint5_linear_10_1021" x1="141.894" y1="103.555" x2="125.078" y2="104.787" gradientUnits="userSpaceOnUse">
<stop stop-color="#34B76A"/>
<stop offset="1" stop-color="#00D13B"/>
</linearGradient>
<linearGradient id="paint6_linear_10_1021" x1="85.189" y1="183.51" x2="74.7232" y2="184.208" gradientUnits="userSpaceOnUse">
<stop stop-color="#34B76A"/>
<stop offset="1" stop-color="#00D13B"/>
</linearGradient>
<linearGradient id="paint7_linear_10_1021" x1="115.987" y1="131.845" x2="105.543" y2="132.526" gradientUnits="userSpaceOnUse">
<stop stop-color="#34B76A"/>
<stop offset="1" stop-color="#00D13B"/>
</linearGradient>
<radialGradient id="paint8_radial_10_1021" cx="0" cy="0" r="1" gradientUnits="userSpaceOnUse" gradientTransform="translate(303.416 39.1046) rotate(180) scale(177.224 428.627)">
<stop stop-color="#96FFC1"/>
<stop offset="0.360564" stop-color="#52DA8A"/>
<stop offset="0.611623" stop-color="#11A2FD"/>
<stop offset="0.767637" stop-color="#31B1FF"/>
<stop offset="0.953125" stop-color="#009EFF"/>
</radialGradient>
<radialGradient id="paint9_radial_10_1021" cx="0" cy="0" r="1" gradientUnits="userSpaceOnUse" gradientTransform="translate(305.741 42.1382) rotate(180) scale(173.822 424.297)">
<stop stop-color="#96FFC1"/>
<stop offset="0.360564" stop-color="#52DA8A"/>
<stop offset="0.611623" stop-color="#11A2FD"/>
<stop offset="0.767637" stop-color="#31B1FF"/>
<stop offset="0.953125" stop-color="#009EFF"/>
</radialGradient>
<radialGradient id="paint10_radial_10_1021" cx="0" cy="0" r="1" gradientUnits="userSpaceOnUse" gradientTransform="translate(177.166 243.099) rotate(-54.3582) scale(200.894 480.089)">
<stop stop-color="#96FFC1"/>
<stop offset="0.360564" stop-color="#52DA8A"/>
<stop offset="0.611623" stop-color="#11A2FD"/>
<stop offset="0.767637" stop-color="#31B1FF"/>
<stop offset="0.953125" stop-color="#009EFF"/>
</radialGradient>
</defs>
</svg>
