<svg width="333" height="301" viewBox="0 0 333 301" fill="none" xmlns="http://www.w3.org/2000/svg">
<path d="M300.26 297.184C298.823 297.184 297.407 296.848 296.123 296.203L271.668 282.089L271.61 282.056L271.544 282.039C271.117 281.927 270.738 281.676 270.468 281.326C270.197 280.976 270.051 280.547 270.051 280.104C270.051 279.662 270.197 279.233 270.468 278.882C270.738 278.532 271.117 278.282 271.544 278.17L271.61 278.153L271.668 278.119L296.123 264.006C297.407 263.361 298.823 263.025 300.26 263.025C301.696 263.025 303.112 263.361 304.396 264.006L328.851 278.119L328.91 278.153L328.975 278.17C329.403 278.282 329.781 278.532 330.052 278.882C330.322 279.233 330.468 279.662 330.468 280.104C330.468 280.547 330.322 280.976 330.052 281.326C329.781 281.676 329.403 281.927 328.975 282.039L328.91 282.056L328.851 282.089L304.396 296.203C303.112 296.848 301.696 297.184 300.26 297.184ZM295.411 262.77L270.994 276.869C270.34 277.11 269.775 277.544 269.372 278.113C268.961 278.695 268.74 279.391 268.74 280.104C268.74 280.818 268.961 281.513 269.372 282.096C269.775 282.665 270.34 283.099 270.994 283.34L295.411 297.451L295.419 297.456L295.428 297.461C296.92 298.246 298.586 298.644 300.272 298.618C301.959 298.647 303.625 298.249 305.117 297.46L305.125 297.456L305.133 297.451L329.563 283.34C330.216 283.099 330.782 282.665 331.184 282.096C331.596 281.513 331.817 280.818 331.817 280.104C331.817 279.391 331.596 278.695 331.184 278.113C330.782 277.544 330.216 277.11 329.563 276.869L305.133 262.77L305.122 262.763L305.11 262.757C303.611 261.995 301.954 261.598 300.272 261.598C298.591 261.598 296.933 261.995 295.434 262.757L295.422 262.763L295.411 262.77Z" fill="url(#paint0_linear_10_1461)" stroke="url(#paint1_linear_10_1461)"/>
<path d="M36.1618 286.156C34.8776 286.798 33.4614 287.133 32.0254 287.133C30.5893 287.133 29.1731 286.798 27.8889 286.156L3.4463 272.042L3.38793 272.009L3.32272 271.992C2.89486 271.88 2.51617 271.629 2.2459 271.279C1.97562 270.929 1.829 270.5 1.829 270.057C1.829 269.615 1.97561 269.185 2.2459 268.835C2.51618 268.485 2.89488 268.235 3.32271 268.123L3.38793 268.106L3.4463 268.072L27.8938 253.956C29.1699 253.28 30.5969 252.941 32.0406 252.969L32.0514 252.969L32.0621 252.969C33.5176 252.934 34.9574 253.274 36.244 253.956L60.6038 268.072L60.6624 268.106L60.728 268.123C61.1558 268.235 61.5345 268.485 61.8048 268.835C62.0751 269.185 62.2217 269.615 62.2217 270.057C62.2217 270.5 62.0751 270.929 61.8048 271.279C61.5346 271.629 61.1559 271.88 60.728 271.992L60.6628 272.009L60.6044 272.042L36.1618 286.156ZM61.3287 266.822L36.9117 252.711L36.8993 252.703L36.8865 252.697C35.3865 251.941 33.7301 251.547 32.0504 251.547C30.3706 251.547 28.7143 251.941 27.2142 252.697L27.2015 252.703L27.1892 252.711L2.77349 266.808C2.11567 267.047 1.54554 267.48 1.13929 268.051C0.723458 268.635 0.5 269.334 0.5 270.051C0.5 270.768 0.723458 271.467 1.13929 272.051C1.54555 272.622 2.11569 273.055 2.77349 273.294L27.1892 287.392L27.1966 287.396L27.2041 287.4C28.6942 288.194 30.3626 288.592 32.0504 288.558C33.7381 288.592 35.4065 288.194 36.8966 287.4L36.9041 287.396L36.9115 287.392L61.3286 273.293C61.982 273.052 62.5474 272.618 62.95 272.049C63.3618 271.466 63.5829 270.771 63.5829 270.057C63.5829 269.344 63.3617 268.648 62.95 268.066C62.5474 267.497 61.982 267.063 61.3287 266.822Z" fill="url(#paint2_linear_10_1461)" stroke="url(#paint3_linear_10_1461)"/>
<path d="M186.324 299.914L275.792 248.189C276.174 248.007 276.5 247.727 276.738 247.377L276.328 247.098L276.738 247.377C276.98 247.021 277.121 246.606 277.146 246.176L277.149 246.135L277.145 246.095C277.091 245.566 276.897 245.061 276.583 244.632L276.18 244.926L276.583 244.632C276.276 244.21 275.863 243.876 275.387 243.663L125.454 157.102L125.454 157.102L125.446 157.097C124.496 156.572 123.437 156.276 122.353 156.232C121.269 156.187 120.19 156.396 119.2 156.841L119.178 156.852L119.156 156.864L29.6871 208.526C29.3034 208.71 28.9755 208.992 28.7376 209.345C28.4953 209.704 28.3554 210.123 28.3328 210.556L28.3308 210.595L28.335 210.635C28.3916 211.161 28.5865 211.664 28.8999 212.09C29.2075 212.509 29.6186 212.84 30.0926 213.053L180.025 299.614L180.025 299.614L180.037 299.62C181.107 300.202 182.308 300.503 183.527 300.493C184.481 300.54 185.431 300.347 186.291 299.931L186.308 299.923L186.324 299.914ZM275.35 245.491C275.503 245.686 275.607 245.915 275.654 246.157C275.631 246.298 275.576 246.432 275.492 246.548C275.397 246.68 275.268 246.785 275.119 246.852L275.095 246.862L275.073 246.875L185.621 298.523C184.859 298.862 184.028 299.021 183.194 298.985C182.353 298.95 181.532 298.718 180.797 298.309C180.796 298.308 180.795 298.307 180.794 298.307L30.8441 211.736L30.8163 211.72L30.7867 211.707C30.539 211.604 30.3219 211.439 30.1559 211.228C30.0033 211.034 29.8986 210.808 29.8498 210.567C29.8717 210.425 29.9261 210.289 30.0089 210.171C30.1033 210.037 30.2314 209.93 30.3803 209.86L30.4002 209.851L30.4192 209.84L119.896 158.186C120.523 157.862 121.223 157.703 121.929 157.722L121.937 157.722L121.946 157.722C122.91 157.715 123.861 157.952 124.71 158.409C124.713 158.41 124.715 158.411 124.717 158.412L274.66 244.98L274.688 244.996L274.717 245.008C274.966 245.112 275.184 245.278 275.35 245.491Z" fill="#42E8E0" stroke="url(#paint4_linear_10_1461)"/>
<path d="M276.385 231.176L268.125 229.926L125.079 147.325C124.237 146.855 123.296 146.59 122.332 146.551C121.368 146.512 120.408 146.7 119.531 147.1L34.3305 196.348L29.0945 195.599V202.559C29.1438 202.947 29.293 203.316 29.5273 203.629C29.7617 203.942 30.0732 204.189 30.4316 204.346L180.388 290.921C181.232 291.385 182.172 291.649 183.134 291.69C184.097 291.731 185.056 291.549 185.936 291.158L275.423 239.498C275.698 239.373 275.933 239.173 276.1 238.921C276.268 238.67 276.362 238.376 276.372 238.074L276.385 231.176Z" fill="url(#paint5_linear_10_1461)"/>
<path d="M30.4442 197.436L180.4 284.01C181.243 284.48 182.184 284.746 183.148 284.785C184.112 284.824 185.071 284.636 185.949 284.235L275.423 232.575C276.847 231.751 276.672 230.326 275.035 229.376L125.079 142.801C124.235 142.337 123.295 142.074 122.333 142.032C121.37 141.991 120.411 142.173 119.531 142.564L30.0443 194.224C28.6322 195.049 28.8072 196.486 30.4442 197.436Z" fill="#F2F4F5"/>
<path opacity="0.3" d="M43.4904 199.122L177.526 276.512C178.284 276.939 179.133 277.179 180.001 277.214C180.87 277.249 181.735 277.077 182.525 276.712L262.501 230.538C263.751 229.801 263.614 228.526 262.152 227.677L128.016 150.299C127.259 149.871 126.411 149.628 125.542 149.592C124.673 149.555 123.808 149.724 123.017 150.087L43.0405 196.323C41.8034 197.011 41.9658 198.26 43.4904 199.122Z" fill="#11A2FB"/>
<path d="M275.423 231.825L185.949 283.485C185.069 283.878 184.111 284.062 183.148 284.023C182.186 283.984 181.245 283.723 180.4 283.26L30.4442 196.673C29.8655 196.37 29.4202 195.862 29.1945 195.249C28.9696 195.973 29.407 196.811 30.4442 197.436L180.4 284.01C181.243 284.48 182.184 284.746 183.148 284.785C184.112 284.824 185.071 284.636 185.949 284.235L275.423 232.575C275.756 232.435 276.029 232.181 276.194 231.858C276.358 231.536 276.404 231.166 276.322 230.813C276.157 231.25 275.837 231.61 275.423 231.825Z" fill="white"/>
<path d="M124.804 115.784L143.761 3.31716L142.212 2.70484L144.498 1.39272C144.773 1.24405 145.084 1.17575 145.396 1.19564C145.707 1.21553 146.007 1.32281 146.26 1.50519L297.754 88.9797C298.395 89.3885 298.915 89.9604 299.262 90.6367C299.609 91.3131 299.77 92.0695 299.728 92.8285L280.621 206.183C280.599 206.428 280.514 206.662 280.374 206.864C280.234 207.066 280.043 207.227 279.821 207.333L277.585 208.582L277.197 206.483H277.322L126.779 119.658C126.135 119.246 125.613 118.67 125.265 117.989C124.918 117.308 124.759 116.547 124.804 115.784Z" fill="url(#paint6_linear_10_1461)"/>
<path d="M296.941 92.0413L299.441 90.9417C299.73 91.5212 299.843 92.173 299.766 92.8161L280.659 206.171C280.637 206.415 280.552 206.65 280.411 206.851C280.271 207.053 280.081 207.215 279.859 207.32L277.622 208.57L277.235 206.47H277.36L269.749 202.072L296.941 92.0413Z" fill="url(#paint7_linear_10_1461)"/>
<path d="M124.392 121.02L275.897 208.495C277.06 209.17 278.059 208.782 278.272 207.57L297.379 94.2157C297.42 93.4567 297.26 92.7002 296.913 92.0239C296.566 91.3475 296.045 90.7756 295.404 90.3668L143.911 2.89231C142.749 2.21751 141.737 2.6049 141.537 3.81704L122.43 117.171C122.389 117.929 122.549 118.684 122.894 119.359C123.238 120.035 123.755 120.608 124.392 121.02Z" fill="#11A2FB"/>
<g opacity="0.51">
<path d="M143.399 4.9917L295.604 92.8286L276.385 206.47L124.279 118.696L143.399 4.9917Z" fill="white"/>
</g>
<path d="M29.1696 174.68L37.4296 179.003L120.343 131.142C121.2 130.755 122.135 130.573 123.075 130.612C124.015 130.651 124.932 130.91 125.754 131.367L268.725 213.918C270.099 213.143 276.335 210.169 276.335 210.169L273.311 215.093C273.148 215.497 272.847 215.829 272.461 216.03L185.149 266.44C184.292 266.829 183.357 267.011 182.417 266.972C181.477 266.933 180.56 266.674 179.738 266.215L33.4183 181.703C32.8704 181.442 32.4291 181.001 32.1687 180.453L29.1696 174.68Z" fill="url(#paint8_linear_10_1461)"/>
<path d="M30.4442 176.042L180.4 262.616C181.244 263.081 182.184 263.344 183.147 263.385C184.109 263.427 185.068 263.245 185.949 262.854L275.423 211.181C276.847 210.369 276.672 208.932 275.035 207.982L125.079 121.408C124.237 120.938 123.296 120.672 122.332 120.633C121.368 120.594 120.408 120.782 119.531 121.183L30.0443 172.843C28.6322 173.667 28.8072 175.092 30.4442 176.042Z" fill="url(#paint9_linear_10_1461)"/>
<path d="M30.4442 176.042L180.4 262.616C181.244 263.081 182.184 263.344 183.147 263.385C184.109 263.427 185.068 263.245 185.949 262.854L275.423 211.181C276.847 210.369 276.672 208.932 275.035 207.982L125.079 121.408C124.237 120.938 123.296 120.672 122.332 120.633C121.368 120.594 120.408 120.782 119.531 121.183L30.0443 172.843C28.6322 173.667 28.8072 175.092 30.4442 176.042Z" fill="#24126A"/>
<path opacity="0.51" d="M30.4442 176.042L180.4 262.616C181.244 263.081 182.184 263.344 183.147 263.385C184.109 263.427 185.068 263.245 185.949 262.854L275.423 211.181C276.847 210.369 276.672 208.932 275.035 207.982L125.079 121.408C124.237 120.938 123.296 120.672 122.332 120.633C121.368 120.594 120.408 120.782 119.531 121.183L30.0443 172.843C28.6322 173.667 28.8072 175.092 30.4442 176.042Z" fill="#11A2FB"/>
<g opacity="0.3">
<g style="mix-blend-mode:lighten" opacity="0.5">
<path d="M30.4442 172.855L180.4 259.43C181.244 259.895 182.184 260.158 183.147 260.199C184.109 260.24 185.068 260.058 185.949 259.667L275.423 207.995C276.847 207.183 276.672 205.746 275.035 204.796L125.079 118.284C124.237 117.813 123.296 117.548 122.332 117.509C121.368 117.47 120.408 117.658 119.531 118.059L30.0443 169.656C28.6322 170.468 28.8072 171.905 30.4442 172.855Z" fill="url(#paint10_radial_10_1461)"/>
</g>
</g>
<path style="mix-blend-mode:lighten" opacity="0.8" d="M183.537 260.579C182.38 260.586 181.24 260.298 180.225 259.742L30.2693 173.168C29.8508 172.977 29.489 172.681 29.2195 172.309C28.95 171.936 28.7821 171.5 28.7322 171.043C28.7526 170.684 28.8688 170.337 29.0688 170.038C29.2688 169.739 29.5453 169.499 29.8694 169.344L119.356 117.684C120.287 117.253 121.307 117.049 122.332 117.088C123.357 117.127 124.358 117.408 125.254 117.909L275.21 204.496C275.629 204.682 275.992 204.975 276.262 205.346C276.532 205.717 276.699 206.152 276.747 206.608C276.727 206.967 276.611 207.314 276.411 207.613C276.211 207.912 275.934 208.151 275.61 208.307L186.124 259.967C185.33 260.393 184.438 260.604 183.537 260.579ZM30.6192 172.555L180.575 259.13C181.365 259.569 182.246 259.818 183.148 259.857C184.05 259.896 184.95 259.724 185.774 259.355L275.248 207.695C275.462 207.598 275.648 207.447 275.786 207.256C275.924 207.065 276.01 206.842 276.035 206.608C275.985 206.278 275.851 205.966 275.645 205.704C275.439 205.441 275.169 205.236 274.86 205.108L124.904 118.521C124.117 118.082 123.239 117.832 122.339 117.791C121.439 117.75 120.542 117.918 119.718 118.284L30.2193 169.956C30.0077 170.055 29.8253 170.208 29.6896 170.398C29.5539 170.589 29.4695 170.811 29.4445 171.043C29.496 171.374 29.6308 171.687 29.8363 171.951C30.0418 172.216 30.3112 172.424 30.6192 172.555Z" fill="url(#paint11_linear_10_1461)"/>
<path d="M30.4441 175.367L180.4 261.942C181.244 262.406 182.184 262.67 183.147 262.711C184.109 262.752 185.068 262.57 185.949 262.179L275.423 210.519C275.852 210.301 276.179 209.925 276.335 209.47C276.405 209.816 276.353 210.177 276.186 210.489C276.02 210.802 275.75 211.046 275.423 211.182L185.949 262.854C185.068 263.245 184.109 263.427 183.147 263.386C182.184 263.344 181.244 263.081 180.4 262.616L30.4441 176.042C29.3819 175.429 28.9446 174.617 29.1945 173.892C29.2945 174.209 29.4564 174.502 29.671 174.755C29.8855 175.009 30.1484 175.216 30.4441 175.367Z" fill="white"/>
<path d="M269.912 98.3519C269.519 98.3437 269.135 98.2316 268.8 98.0269C268.243 97.6992 267.798 97.2119 267.522 96.6281C267.245 96.0443 267.151 95.3911 267.25 94.7529C267.287 94.4839 267.392 94.2286 267.553 94.0103C267.715 93.792 267.928 93.6177 268.175 93.5033C268.463 93.3941 268.772 93.3542 269.078 93.3867C269.384 93.4193 269.678 93.5234 269.937 93.6907C270.493 94.0226 270.938 94.512 271.216 95.097C271.494 95.682 271.593 96.3364 271.499 96.9772C271.414 97.3341 271.211 97.6518 270.923 97.8787C270.635 98.1056 270.279 98.2283 269.912 98.2269V98.3519ZM268.837 93.9406C268.678 93.9442 268.521 93.9782 268.375 94.0406C268.212 94.119 268.069 94.2344 267.958 94.3775C267.848 94.5207 267.772 94.6878 267.737 94.8654C267.664 95.3981 267.75 95.9406 267.983 96.4251C268.216 96.9096 268.587 97.3146 269.05 97.5896C269.241 97.716 269.459 97.7965 269.687 97.8246C269.914 97.8528 270.145 97.828 270.362 97.752C270.528 97.675 270.673 97.5585 270.784 97.4125C270.895 97.2666 270.969 97.0957 270.999 96.9148C271.077 96.3816 270.994 95.8372 270.76 95.3517C270.526 94.8662 270.152 94.4618 269.687 94.1906C269.429 94.0368 269.137 93.9508 268.837 93.9406Z" fill="white"/>
<path d="M275.922 101.851C275.529 101.843 275.146 101.731 274.81 101.526C274.254 101.198 273.808 100.711 273.532 100.127C273.256 99.5433 273.161 98.8901 273.261 98.2519C273.301 97.984 273.407 97.7301 273.568 97.5123C273.729 97.2945 273.941 97.1194 274.185 97.0023C274.474 96.8951 274.783 96.8562 275.088 96.8887C275.394 96.9212 275.688 97.0243 275.947 97.1897C276.504 97.5216 276.949 98.011 277.227 98.596C277.505 99.181 277.603 99.8354 277.509 100.476C277.425 100.833 277.222 101.151 276.934 101.378C276.646 101.605 276.289 101.727 275.922 101.726V101.851ZM274.848 97.4397C274.692 97.4401 274.539 97.4742 274.398 97.5396C274.232 97.6137 274.086 97.7278 273.975 97.8717C273.864 98.0156 273.79 98.1849 273.761 98.3644C273.676 98.8911 273.75 99.431 273.972 99.9159C274.195 100.401 274.556 100.809 275.01 101.089C275.202 101.215 275.42 101.295 275.647 101.324C275.875 101.352 276.106 101.327 276.322 101.251C276.489 101.174 276.634 101.057 276.745 100.912C276.856 100.766 276.93 100.595 276.96 100.414C277.044 99.887 276.97 99.3472 276.748 98.8623C276.525 98.3774 276.164 97.9694 275.71 97.6896C275.464 97.5403 275.185 97.4544 274.898 97.4397H274.848Z" fill="white"/>
<path d="M283.42 103.975C283.37 104.218 283.258 104.444 283.096 104.631C282.933 104.818 282.725 104.96 282.492 105.044C282.259 105.128 282.008 105.151 281.764 105.11C281.519 105.07 281.289 104.967 281.096 104.813C280.586 104.512 280.178 104.066 279.924 103.531C279.67 102.997 279.582 102.398 279.671 101.813C279.72 101.571 279.83 101.345 279.991 101.158C280.152 100.97 280.359 100.827 280.591 100.743C280.824 100.659 281.074 100.636 281.318 100.677C281.562 100.718 281.791 100.821 281.983 100.976C282.495 101.275 282.906 101.72 283.162 102.255C283.419 102.79 283.508 103.389 283.42 103.975Z" fill="white"/>
<path d="M167.142 37.0948L163.905 35.2203L164.155 33.7208L167.404 35.5952L167.142 37.0948Z" fill="#42E8E0"/>
<path d="M171.853 39.8064L168.616 37.9444L168.866 36.4449L172.115 38.3193L171.853 39.8064Z" fill="#42E8E0"/>
<path d="M162.481 34.3955L155.37 30.2967L155.62 28.7971L162.731 32.8959L162.481 34.3955Z" fill="#42E8E0"/>
<g opacity="0.5">
<path opacity="0.67" d="M158.682 226.29C188.379 226.29 212.454 212.392 212.454 195.249C212.454 178.105 188.379 164.208 158.682 164.208C128.984 164.208 104.91 178.105 104.91 195.249C104.91 212.392 128.984 226.29 158.682 226.29Z" fill="#0F054C"/>
<path opacity="0.67" d="M158.682 220.904C183.217 220.904 203.106 209.418 203.106 195.249C203.106 181.08 183.217 169.594 158.682 169.594C134.147 169.594 114.257 181.08 114.257 195.249C114.257 209.418 134.147 220.904 158.682 220.904Z" fill="#0F054C"/>
<path opacity="0.9" d="M158.682 215.543C178.089 215.543 193.821 206.457 193.821 195.249C193.821 184.041 178.089 174.955 158.682 174.955C139.275 174.955 123.542 184.041 123.542 195.249C123.542 206.457 139.275 215.543 158.682 215.543Z" fill="#080344"/>
</g>
<path d="M101.286 144.888C99.4739 150.912 89.7268 162.621 83.7035 160.771C77.6803 158.922 77.6553 144.314 79.4798 138.278C79.9114 136.846 80.6208 135.513 81.5674 134.356C82.5141 133.198 83.6795 132.238 84.9972 131.531C86.3148 130.823 87.7588 130.383 89.2468 130.234C90.7348 130.084 92.2376 130.23 93.6694 130.661C95.1012 131.093 96.434 131.802 97.5916 132.749C98.7493 133.696 99.7092 134.861 100.416 136.179C101.124 137.496 101.564 138.94 101.714 140.428C101.863 141.916 101.718 143.419 101.286 144.851V144.888Z" fill="url(#paint12_radial_10_1461)"/>
<path d="M89.7268 130.78C91.4577 130.718 93.1789 131.064 94.7508 131.792C96.3227 132.519 97.7011 133.607 98.7742 134.966C100.599 137.565 99.5115 139.902 96.3499 140.19C94.6048 140.258 92.8684 139.912 91.2829 139.18C89.6973 138.448 88.3076 137.351 87.2275 135.978C85.4406 133.379 86.5277 131.042 89.7268 130.78Z" fill="#251C72"/>
<g style="mix-blend-mode:lighten" opacity="0.5">
<path d="M89.7268 130.78C91.4577 130.718 93.1789 131.064 94.7508 131.792C96.3227 132.519 97.7011 133.607 98.7742 134.966C100.599 137.565 99.5115 139.902 96.3499 140.19C94.6048 140.258 92.8684 139.912 91.2829 139.18C89.6973 138.448 88.3076 137.351 87.2275 135.978C85.4406 133.379 86.5277 131.042 89.7268 130.78Z" fill="url(#paint13_radial_10_1461)"/>
</g>
<path d="M86.3903 133.717C87.083 133.178 87.9257 132.868 88.8021 132.829C90.5323 132.769 92.2523 133.117 93.8223 133.847C95.3923 134.576 96.7678 135.666 97.837 137.028C98.3389 137.683 98.6425 138.468 98.7117 139.29C99.8614 138.328 99.9613 136.703 98.7117 134.954C97.6437 133.605 96.2748 132.525 94.7146 131.8C93.1545 131.076 91.4463 130.726 89.7268 130.78C87.5025 130.955 86.3028 132.142 86.3903 133.717Z" fill="#42E8E0"/>
<path opacity="0.6" d="M100.311 127.681C100.133 127.676 99.9582 127.724 99.8076 127.819C99.657 127.913 99.5379 128.051 99.4653 128.213C99.3927 128.376 99.3699 128.556 99.3997 128.731C99.4296 128.907 99.5108 129.069 99.6331 129.199C99.7553 129.328 99.9132 129.418 100.087 129.457C100.26 129.497 100.441 129.484 100.608 129.421C100.774 129.357 100.918 129.246 101.02 129.101C101.123 128.956 101.181 128.783 101.186 128.606C101.189 128.487 101.169 128.37 101.127 128.259C101.085 128.149 101.022 128.048 100.94 127.962C100.859 127.876 100.762 127.807 100.654 127.759C100.546 127.711 100.43 127.684 100.311 127.681Z" fill="#11A2FB"/>
<path d="M91.8387 121.433C91.3915 121.423 90.9515 121.546 90.5742 121.786C90.1969 122.027 89.8994 122.373 89.7192 122.783C89.5389 123.192 89.4842 123.646 89.5617 124.086C89.6393 124.527 89.8458 124.934 90.155 125.258C90.4642 125.581 90.8623 125.805 91.299 125.902C91.7357 125.999 92.1913 125.964 92.6082 125.802C93.0252 125.64 93.3848 125.358 93.6415 124.992C93.8982 124.626 94.0406 124.192 94.0506 123.745C94.0589 123.447 94.0081 123.151 93.9011 122.873C93.7941 122.595 93.6331 122.342 93.4274 122.127C93.2217 121.912 92.9753 121.74 92.7026 121.62C92.4299 121.501 92.1363 121.438 91.8387 121.433Z" fill="#11A2FB"/>
<path opacity="0.6" d="M104.81 116.322C104.479 116.322 104.161 116.453 103.926 116.688C103.692 116.922 103.56 117.24 103.56 117.571C103.56 117.903 103.692 118.221 103.926 118.455C104.161 118.689 104.479 118.821 104.81 118.821C105.141 118.821 105.459 118.689 105.694 118.455C105.928 118.221 106.06 117.903 106.06 117.571C106.06 117.24 105.928 116.922 105.694 116.688C105.459 116.453 105.141 116.322 104.81 116.322Z" fill="#11A2FB"/>
<path d="M99.7239 117.334C99.5504 117.329 99.3794 117.376 99.2326 117.468C99.0858 117.561 98.9698 117.695 98.8994 117.853C98.829 118.012 98.8074 118.188 98.8373 118.359C98.8672 118.53 98.9472 118.688 99.0672 118.813C99.1872 118.939 99.3418 119.025 99.5113 119.063C99.6808 119.1 99.8575 119.086 100.019 119.022C100.18 118.959 100.319 118.849 100.418 118.706C100.517 118.563 100.571 118.395 100.574 118.221C100.577 118.107 100.558 117.993 100.516 117.886C100.475 117.78 100.414 117.682 100.334 117.6C100.255 117.517 100.161 117.451 100.056 117.405C99.951 117.36 99.8382 117.335 99.7239 117.334Z" fill="#11A2FB"/>
<path d="M100.699 115.384C100.621 115.381 100.544 115.393 100.471 115.421C100.398 115.448 100.332 115.49 100.276 115.544C100.22 115.597 100.175 115.662 100.145 115.733C100.114 115.805 100.099 115.882 100.099 115.959C100.095 116.037 100.108 116.115 100.135 116.189C100.162 116.262 100.204 116.329 100.257 116.386C100.311 116.443 100.375 116.489 100.447 116.521C100.518 116.553 100.595 116.57 100.674 116.572C100.759 116.584 100.846 116.578 100.928 116.554C101.011 116.53 101.087 116.488 101.152 116.432C101.218 116.375 101.27 116.306 101.305 116.227C101.341 116.149 101.36 116.064 101.36 115.978C101.36 115.892 101.341 115.807 101.305 115.729C101.27 115.65 101.218 115.581 101.152 115.524C101.087 115.468 101.011 115.426 100.928 115.402C100.846 115.378 100.759 115.372 100.674 115.384H100.699Z" fill="#11A2FB"/>
<path opacity="0.6" d="M93.3883 132.092C93.0568 132.084 92.7357 132.208 92.4955 132.436C92.2553 132.665 92.1157 132.979 92.1074 133.311C92.0991 133.642 92.2228 133.963 92.4513 134.203C92.6798 134.443 92.9944 134.583 93.3258 134.591C93.4899 134.595 93.6532 134.567 93.8064 134.508C93.9596 134.449 94.0996 134.361 94.2186 134.247C94.3375 134.134 94.433 133.999 94.4996 133.849C94.5662 133.699 94.6026 133.537 94.6067 133.373C94.6108 133.209 94.5825 133.046 94.5235 132.892C94.4645 132.739 94.3759 132.599 94.2627 132.48C94.1496 132.361 94.0141 132.266 93.8641 132.199C93.7141 132.133 93.5524 132.096 93.3883 132.092Z" fill="#42E8E0"/>
<path d="M97.2247 131.68C96.8511 131.67 96.483 131.771 96.1671 131.971C95.8512 132.17 95.6017 132.459 95.4502 132.801C95.2987 133.143 95.252 133.521 95.3161 133.89C95.3802 134.258 95.5521 134.599 95.8101 134.869C96.0682 135.139 96.4006 135.327 96.7654 135.408C97.1302 135.489 97.5108 135.46 97.8591 135.325C98.2074 135.189 98.5076 134.953 98.7217 134.647C98.9358 134.341 99.0541 133.978 99.0616 133.604C99.0717 133.106 98.8842 132.624 98.54 132.263C98.1958 131.903 97.723 131.693 97.2247 131.68Z" fill="#42E8E0"/>
<path d="M134.388 109.478C135.769 100.103 129.289 91.3838 119.914 90.0028C110.54 88.6218 101.821 95.102 100.44 104.477C99.0585 113.851 105.539 122.57 114.913 123.951C124.288 125.332 133.007 118.852 134.388 109.478Z" fill="url(#paint14_radial_10_1461)"/>
<g style="mix-blend-mode:lighten">
<g style="mix-blend-mode:lighten">
<path d="M124.857 122.421C133.396 118.313 136.988 108.06 132.88 99.5213C128.773 90.9821 118.52 87.3898 109.981 91.4976C101.442 95.6053 97.8496 105.858 101.957 114.397C106.065 122.936 116.318 126.528 124.857 122.421Z" fill="url(#paint15_radial_10_1461)"/>
</g>
</g>
<path d="M202.981 138.128C202.981 171.431 183.15 198.423 158.682 198.423C134.214 198.423 114.382 171.431 114.382 138.128C114.382 104.825 134.214 94.853 158.682 94.853C183.15 94.853 202.981 104.825 202.981 138.128Z" fill="url(#paint16_radial_10_1461)"/>
<path d="M158.682 130.205C175.377 130.205 188.91 122.389 188.91 112.748C188.91 103.106 175.377 95.2903 158.682 95.2903C141.987 95.2903 128.453 103.106 128.453 112.748C128.453 122.389 141.987 130.205 158.682 130.205Z" fill="#251C72"/>
<g style="mix-blend-mode:lighten" opacity="0.5">
<path d="M158.682 130.205C175.377 130.205 188.91 122.389 188.91 112.748C188.91 103.106 175.377 95.2903 158.682 95.2903C141.987 95.2903 128.453 103.106 128.453 112.748C128.453 122.389 141.987 130.205 158.682 130.205Z" fill="url(#paint17_radial_10_1461)"/>
</g>
<path d="M137.3 105.062C149.11 98.2394 168.254 98.2394 180.063 105.062C184.937 107.874 187.786 111.411 188.636 115.06C189.885 109.861 186.986 104.4 180.063 100.401C168.254 93.5783 149.11 93.5783 137.3 100.401C130.378 104.4 127.516 109.861 128.728 115.06C129.578 111.411 132.427 107.874 137.3 105.062Z" fill="#42E8E0"/>
<path d="M141.752 60.8285C146.732 52.2038 146.732 42.8819 141.754 40.0074C136.775 37.1329 128.702 41.7943 123.723 50.419C118.743 59.0437 118.743 68.3656 123.721 71.2401C128.7 74.1146 136.773 69.4532 141.752 60.8285Z" fill="#BCBEFF"/>
<path d="M160.444 116.272C185.393 116.272 205.618 96.0465 205.618 71.0974C205.618 46.1483 185.393 25.9231 160.444 25.9231C135.495 25.9231 115.269 46.1483 115.269 71.0974C115.269 96.0465 135.495 116.272 160.444 116.272Z" fill="url(#paint18_radial_10_1461)"/>
<path d="M146.348 92.4911C145.186 101.376 138.488 104.163 131.352 98.7393C124.217 93.3159 119.418 81.6692 120.568 72.7843C121.718 63.8994 128.428 61.1128 135.564 66.5362C142.699 71.9596 147.498 83.6062 146.348 92.4911Z" fill="#251C72"/>
<path style="mix-blend-mode:lighten" opacity="0.5" d="M146.348 92.4911C145.186 101.376 138.488 104.163 131.352 98.7393C124.217 93.3159 119.418 81.6692 120.568 72.7843C121.718 63.8994 128.428 61.1128 135.564 66.5362C142.699 71.9596 147.498 83.6062 146.348 92.4911Z" fill="url(#paint19_radial_10_1461)"/>
<path d="M140.462 84.7933C140.05 88.0298 137.613 89.042 135.026 87.0676C133.674 85.9165 132.613 84.4615 131.931 82.8216C131.249 81.1817 130.965 79.4036 131.102 77.6329C131.515 74.4088 133.951 73.3966 136.538 75.371C137.889 76.5208 138.949 77.9739 139.63 79.6114C140.312 81.2489 140.597 83.0246 140.462 84.7933Z" fill="#42E8E0"/>
<path d="M134.789 97.4271C127.666 91.9912 122.83 80.3696 123.992 71.4847C124.454 67.8733 125.854 65.2365 127.816 63.812C124.067 64.1618 121.28 67.3109 120.568 72.7843C119.418 81.6692 124.254 93.2783 131.365 98.7267C135.588 101.951 139.65 102.276 142.511 100.176C139.684 100.258 136.928 99.2771 134.789 97.4271Z" fill="#42E8E0"/>
<path d="M131.977 98.4393C124.867 92.9909 120.03 81.3818 121.18 72.4969C121.717 68.3856 123.442 65.5739 125.854 64.2868C123.13 65.4115 121.155 68.3356 120.568 72.7843C119.418 81.6692 124.254 93.2783 131.365 98.7267C135.189 101.651 138.862 102.188 141.674 100.689C138.975 101.801 135.526 101.151 131.977 98.4393Z" fill="#42E8E0"/>
<path d="M212.108 166.089C221.214 163.471 226.475 153.966 223.856 144.859C221.238 135.752 211.733 130.492 202.626 133.11C193.519 135.729 188.259 145.234 190.877 154.341C193.496 163.448 203.001 168.708 212.108 166.089Z" fill="url(#paint20_radial_10_1461)"/>
<path d="M223.85 149.924C223.708 152.556 222.948 155.117 221.63 157.399C220.312 159.681 218.473 161.62 216.265 163.058C212.079 165.47 208.692 163.52 208.692 158.684C208.832 156.052 209.591 153.49 210.907 151.206C212.223 148.922 214.058 146.98 216.265 145.538C220.464 143.126 223.85 145.088 223.85 149.924Z" fill="#251C72"/>
<g style="mix-blend-mode:lighten" opacity="0.5">
<path d="M223.85 149.924C223.708 152.556 222.948 155.117 221.63 157.399C220.312 159.681 218.473 161.62 216.265 163.058C212.079 165.47 208.692 163.52 208.692 158.684C208.832 156.052 209.591 153.49 210.907 151.206C212.223 148.922 214.058 146.98 216.265 145.538C220.464 143.126 223.85 145.088 223.85 149.924Z" fill="url(#paint21_radial_10_1461)"/>
</g>
<path d="M219.826 144.526C220.536 145.644 220.889 146.952 220.839 148.275C220.696 150.906 219.935 153.467 218.617 155.749C217.299 158.031 215.461 159.97 213.253 161.409C212.187 162.08 210.952 162.435 209.692 162.433C211.004 164.308 213.441 164.67 216.265 163.046C218.474 161.608 220.312 159.669 221.63 157.387C222.948 155.105 223.709 152.544 223.85 149.912C223.85 146.575 222.188 144.601 219.826 144.526Z" fill="#42E8E0"/>
<path d="M198.57 87.6176L182.2 97.0648V78.1703L198.57 68.7231V87.6176Z" fill="#11A2FB"/>
<path opacity="0.8" d="M196.133 70.1227V86.3055L182.2 94.3406V97.0648L198.57 87.6176V68.7231L196.133 70.1227Z" fill="#0487D8"/>
<path d="M185.324 83.3313L183.862 84.181V82.494L185.324 81.6443V83.3313Z" fill="#42E8E0"/>
<path d="M188.436 79.37L186.974 80.2198V78.5203L188.436 77.6705V79.37Z" fill="#42E8E0"/>
<path d="M191.547 79.7448L190.085 80.582V78.895L191.547 78.0453V79.7448Z" fill="#42E8E0"/>
<path d="M191.547 84.1811L190.085 85.0308V83.3313L191.547 82.4941V84.1811Z" fill="#42E8E0"/>
<path d="M189.673 87.5926L188.211 88.4423V86.7428L189.673 85.9056V87.5926Z" fill="#42E8E0"/>
<path d="M194.759 82.3316L193.297 83.1814V81.4819L194.759 80.6321V82.3316Z" fill="#42E8E0"/>
<path d="M211.754 82.6315L213.553 79.5324L211.754 78.5077L195.396 87.9549V106.849L197.183 107.874L198.97 104.775L211.754 97.4022V82.6315Z" fill="#0487D8"/>
<path d="M213.553 98.427L197.183 107.874V88.9797L213.553 79.5325V98.427Z" fill="url(#paint22_linear_10_1461)"/>
<path d="M219.152 197.76C217.327 203.784 207.593 215.493 201.569 213.681C195.546 211.869 195.521 197.211 197.333 191.187C198.257 188.358 200.252 186.002 202.891 184.624C205.53 183.246 208.603 182.956 211.454 183.814C214.304 184.673 216.705 186.613 218.144 189.219C219.582 191.825 219.944 194.891 219.152 197.76Z" fill="url(#paint23_radial_10_1461)"/>
<path d="M207.555 183.639C209.284 183.576 211.004 183.923 212.574 184.65C214.144 185.377 215.52 186.466 216.59 187.826C218.414 190.425 217.327 192.762 214.165 193.049C212.435 193.11 210.715 192.761 209.145 192.032C207.575 191.302 206.2 190.212 205.131 188.85C203.306 186.251 204.381 183.914 207.555 183.639Z" fill="#251C72"/>
<g style="mix-blend-mode:lighten" opacity="0.5">
<path d="M207.555 183.639C209.284 183.576 211.004 183.923 212.574 184.65C214.144 185.377 215.52 186.466 216.59 187.826C218.414 190.425 217.327 192.762 214.165 193.049C212.435 193.11 210.715 192.761 209.145 192.032C207.575 191.302 206.2 190.212 205.131 188.85C203.306 186.251 204.381 183.914 207.555 183.639Z" fill="url(#paint24_radial_10_1461)"/>
</g>
<path d="M204.243 186.589C204.939 186.055 205.78 185.746 206.655 185.701C208.385 185.644 210.104 185.994 211.673 186.723C213.243 187.452 214.619 188.541 215.69 189.9C216.19 190.557 216.497 191.34 216.577 192.162C217.727 191.2 217.827 189.575 216.577 187.826C215.508 186.466 214.132 185.377 212.561 184.65C210.991 183.923 209.272 183.576 207.542 183.639C205.356 183.827 204.168 185.014 204.243 186.589Z" fill="#42E8E0"/>
<path opacity="0.6" d="M216.49 176.404C216.573 176.323 216.639 176.226 216.684 176.118C216.729 176.011 216.752 175.896 216.752 175.779C216.752 175.663 216.729 175.548 216.684 175.44C216.639 175.333 216.573 175.236 216.49 175.155C216.324 174.99 216.099 174.897 215.865 174.897C215.631 174.897 215.406 174.99 215.24 175.155C215.078 175.322 214.988 175.546 214.988 175.779C214.988 176.012 215.078 176.236 215.24 176.404C215.406 176.569 215.631 176.661 215.865 176.661C216.099 176.661 216.324 176.569 216.49 176.404Z" fill="white"/>
<path d="M226.912 174.929C227.238 174.623 227.465 174.227 227.566 173.791C227.667 173.355 227.636 172.9 227.478 172.481C227.319 172.063 227.041 171.701 226.677 171.441C226.313 171.181 225.88 171.035 225.433 171.021C224.986 171.007 224.545 171.126 224.165 171.363C223.786 171.599 223.485 171.943 223.301 172.351C223.117 172.758 223.058 173.211 223.131 173.653C223.204 174.094 223.407 174.503 223.713 174.83C223.916 175.046 224.16 175.221 224.431 175.343C224.702 175.466 224.994 175.533 225.292 175.543C225.589 175.552 225.885 175.503 226.163 175.397C226.441 175.292 226.695 175.133 226.912 174.929Z" fill="white"/>
<path opacity="0.6" d="M221.238 187.663C221.36 187.549 221.458 187.412 221.526 187.261C221.595 187.109 221.633 186.945 221.638 186.778C221.643 186.612 221.616 186.446 221.557 186.29C221.498 186.134 221.409 185.992 221.295 185.87C221.181 185.749 221.044 185.651 220.892 185.582C220.74 185.514 220.576 185.476 220.41 185.471C220.243 185.465 220.077 185.493 219.921 185.552C219.766 185.611 219.623 185.7 219.501 185.814C219.256 186.044 219.112 186.363 219.102 186.699C219.091 187.035 219.215 187.362 219.445 187.607C219.676 187.852 219.994 187.996 220.33 188.007C220.666 188.017 220.993 187.894 221.238 187.663Z" fill="white"/>
<path d="M224.15 183.39C224.235 183.309 224.302 183.212 224.348 183.105C224.394 182.997 224.418 182.882 224.418 182.765C224.418 182.648 224.394 182.532 224.348 182.425C224.302 182.318 224.235 182.221 224.15 182.14C224.079 182.034 223.986 181.944 223.877 181.878C223.768 181.812 223.646 181.77 223.519 181.756C223.393 181.741 223.264 181.755 223.143 181.796C223.023 181.836 222.912 181.903 222.82 181.991C222.727 182.079 222.655 182.186 222.608 182.304C222.561 182.423 222.541 182.55 222.549 182.678C222.557 182.805 222.592 182.929 222.653 183.041C222.713 183.154 222.798 183.251 222.9 183.327C222.977 183.416 223.07 183.488 223.175 183.54C223.28 183.592 223.395 183.621 223.512 183.627C223.629 183.633 223.746 183.615 223.855 183.574C223.965 183.533 224.065 183.47 224.15 183.39Z" fill="white"/>
<path d="M224.837 185.451C224.919 185.369 224.974 185.264 224.995 185.151C225.017 185.037 225.005 184.919 224.96 184.813C224.916 184.706 224.84 184.615 224.744 184.551C224.648 184.486 224.534 184.452 224.419 184.452C224.303 184.452 224.19 184.486 224.093 184.551C223.997 184.615 223.922 184.706 223.877 184.813C223.832 184.919 223.82 185.037 223.842 185.151C223.864 185.264 223.919 185.369 224 185.451C224.055 185.507 224.12 185.551 224.192 185.581C224.264 185.611 224.341 185.627 224.419 185.627C224.497 185.627 224.574 185.611 224.646 185.581C224.717 185.551 224.783 185.507 224.837 185.451Z" fill="white"/>
<path opacity="0.6" d="M218.339 168.406C218.511 168.231 218.627 168.008 218.673 167.766C218.719 167.525 218.693 167.275 218.598 167.048C218.502 166.821 218.342 166.628 218.137 166.492C217.932 166.356 217.692 166.283 217.446 166.283C217.2 166.283 216.959 166.356 216.754 166.492C216.55 166.628 216.389 166.821 216.294 167.048C216.199 167.275 216.172 167.525 216.218 167.766C216.264 168.008 216.38 168.231 216.552 168.406C216.669 168.526 216.808 168.62 216.961 168.685C217.114 168.749 217.279 168.782 217.446 168.782C217.612 168.782 217.777 168.749 217.93 168.685C218.084 168.62 218.223 168.526 218.339 168.406Z" fill="white"/>
<path d="M215.94 171.381C216.302 171.037 216.513 170.564 216.527 170.065C216.541 169.566 216.357 169.082 216.015 168.719C215.76 168.451 215.431 168.265 215.07 168.184C214.709 168.103 214.332 168.13 213.986 168.263C213.641 168.396 213.343 168.628 213.129 168.929C212.915 169.231 212.795 169.59 212.785 169.96C212.775 170.33 212.874 170.694 213.07 171.008C213.267 171.321 213.552 171.57 213.889 171.722C214.226 171.874 214.601 171.922 214.966 171.862C215.331 171.801 215.67 171.634 215.94 171.381Z" fill="white"/>
<path d="M178.676 54.1897L85.3656 0.71785C84.796 0.303257 84.121 0.0575654 83.4182 0.0089409C82.7153 -0.0396836 82.013 0.110728 81.3917 0.442932L75.6309 3.77946L79.3798 6.49117V9.56527L77.2554 10.465L77.3679 124.332L83.6911 130.417L105.335 142.839L171.565 179.716H174.377C174.502 179.716 174.665 179.378 174.814 178.928L177.651 180.565L176.751 184.889L182.612 181.515C183.862 180.79 184.724 179.091 184.724 176.654V65.6239C184.699 61.2252 181.975 56.1017 178.676 54.1897ZM176.102 173.342L86.2153 121.832C85.8015 121.532 85.463 121.14 85.2266 120.687C84.9902 120.234 84.8624 119.732 84.8532 119.221V9.70273L103.923 21.9741L173.09 62.7622L175.127 65.9238L176.252 115.522L176.102 173.342Z" fill="#11A2FB"/>
<path opacity="0.6" d="M182.762 58.7135L173.815 63.8745L175.127 65.9239L176.252 115.522L176.102 173.343L174.44 172.38C174.44 174.167 176.701 182.99 176.701 184.877L181.463 182.14L182.562 181.503C183.812 180.778 184.674 179.078 184.674 176.642V65.624C184.61 63.1991 183.953 60.8268 182.762 58.7135Z" fill="#11A2FB"/>
<path d="M172.64 57.6763L79.3424 4.19189C76.0309 2.27995 73.3567 4.30435 73.3567 8.71556V119.696C73.3567 124.107 76.0309 129.23 79.3424 131.13L172.64 184.614C175.952 186.526 178.626 184.502 178.626 180.091V69.1104C178.626 64.6992 175.952 59.5507 172.64 57.6763ZM173.165 176.779C173.165 177.779 172.553 178.241 171.79 177.816L80.1922 125.332C79.7731 125.036 79.4301 124.645 79.1912 124.191C78.9523 123.737 78.8242 123.233 78.8176 122.72V12.0646C78.8176 11.0649 79.4299 10.6025 80.1922 11.0274L171.79 63.5121C172.209 63.808 172.552 64.1989 172.791 64.6528C173.03 65.1068 173.158 65.6109 173.165 66.1238V176.779Z" fill="url(#paint25_linear_10_1461)"/>
<path d="M172.64 57.6763L79.3424 4.19189C76.0309 2.27995 73.3567 4.30435 73.3567 8.71556V119.696C73.3567 124.107 76.0309 129.23 79.3424 131.13L172.64 184.614C175.952 186.526 178.626 184.502 178.626 180.091V69.1104C178.626 64.6992 175.952 59.5507 172.64 57.6763ZM173.165 176.779C173.165 177.779 172.553 178.241 171.79 177.816L80.1922 125.332C79.7731 125.036 79.4301 124.645 79.1912 124.191C78.9523 123.737 78.8242 123.233 78.8176 122.72V12.0646C78.8176 11.0649 79.4299 10.6025 80.1922 11.0274L171.79 63.5121C172.209 63.808 172.552 64.1989 172.791 64.6528C173.03 65.1068 173.158 65.6109 173.165 66.1238V176.779Z" fill="url(#paint26_linear_10_1461)"/>
<path d="M85.8752 121.832C85.4614 121.532 85.1229 121.14 84.8865 120.687C84.6501 120.234 84.5223 119.732 84.5131 119.221V13.6891L79.852 10.9898C79.0897 10.565 78.4774 10.9898 78.4774 12.027V122.695C78.4841 123.208 78.6121 123.712 78.851 124.166C79.0899 124.62 79.433 125.011 79.852 125.306L171.45 177.791C172.213 178.216 172.825 177.791 172.825 176.754V171.643L85.8752 121.832Z" fill="url(#paint27_radial_10_1461)"/>
<path opacity="0.4" d="M173.2 176.777C173.2 177.777 172.589 178.239 171.829 177.814L80.4732 125.33C80.0552 125.034 79.7131 124.643 79.4748 124.189C79.2366 123.735 79.1089 123.231 79.1022 122.718V12.0628C79.1022 11.0631 79.7129 10.6007 80.4732 11.0256L171.829 63.5103C172.247 63.8062 172.589 64.1971 172.827 64.651C173.065 65.105 173.193 65.6091 173.2 66.122V176.777Z" fill="#42E8E0"/>
<g opacity="0.4">
<path d="M107.084 60.388L98.1619 55.2395V53.0027L107.084 58.1387V60.388Z" fill="#42E8E0"/>
<path d="M114.682 64.7743L110.221 62.2V59.9632L114.682 62.5374V64.7743Z" fill="#42E8E0"/>
<path d="M109.709 67.1611L105.91 64.9743V62.7249L109.709 64.9243V67.1611Z" fill="#42E8E0"/>
<path d="M116.069 70.835L111.608 68.2607V66.0239L116.069 68.5981V70.835Z" fill="#42E8E0"/>
<path d="M123.417 80.3447L105.91 70.2352V67.9858L123.417 78.0954V80.3447Z" fill="#42E8E0"/>
<path d="M109.709 77.683L105.91 75.4962V73.2468L109.709 75.4462V77.683Z" fill="#42E8E0"/>
<path d="M116.069 81.3569L111.608 78.7826V76.5458L116.069 79.12V81.3569Z" fill="#42E8E0"/>
<path d="M115.532 86.318L105.91 80.7571V78.5078L115.532 84.0686V86.318Z" fill="#42E8E0"/>
<path d="M121.98 90.0294L117.519 87.4552V85.2183L121.98 87.7926V90.0294Z" fill="#42E8E0"/>
<path d="M128.453 93.7783L124.004 91.2041V88.9547L128.453 91.529V93.7783Z" fill="#42E8E0"/>
<path d="M138.912 99.8016L130.477 94.9405V92.6912L138.912 97.5647V99.8016Z" fill="#42E8E0"/>
<path d="M133.851 107.412L129.403 104.838V102.588L133.851 105.163V107.412Z" fill="#42E8E0"/>
<path d="M144.311 113.448L135.876 108.574V106.337L144.311 111.198V113.448Z" fill="#42E8E0"/>
<path d="M110.371 93.8533L105.91 91.2791V89.0297L110.371 91.604V93.8533Z" fill="#42E8E0"/>
<path d="M116.844 97.5897L112.383 95.0155V92.7661L116.844 95.3404V97.5897Z" fill="#42E8E0"/>
<path d="M127.291 103.625L118.868 98.7519V96.515L127.291 101.376V103.625Z" fill="#42E8E0"/>
<path d="M140.187 105.8L135.726 103.226V100.989L140.187 103.563V105.8Z" fill="#42E8E0"/>
<path d="M146.66 109.536L142.199 106.962V104.725L146.66 107.299V109.536Z" fill="#42E8E0"/>
<path d="M157.107 115.572L148.672 110.711V108.462L157.107 113.335V115.572Z" fill="#42E8E0"/>
<path d="M110.371 104.375L105.91 101.801V99.5516L110.371 102.126V104.375Z" fill="#42E8E0"/>
<path d="M120.818 110.398L112.383 105.537V103.288L120.818 108.162V110.398Z" fill="#42E8E0"/>
<path d="M136.738 88.03L132.289 85.4557V83.2189L136.738 85.7931V88.03Z" fill="#42E8E0"/>
<path d="M130.003 84.1436L125.541 81.5694V79.3325L130.003 81.9068V84.1436Z" fill="#42E8E0"/>
<path d="M147.185 94.0657L138.763 89.2046V86.9553L147.185 91.8288V94.0657Z" fill="#42E8E0"/>
<path d="M109.933 88.3424L105.91 86.0181V83.7687L109.933 86.0931V88.3424Z" fill="#42E8E0"/>
<path d="M121.855 95.2153L112.083 89.5795V87.3301L121.855 92.9785V95.2153Z" fill="#42E8E0"/>
<path d="M133.776 102.101L124.004 96.465V94.2156L133.776 99.8515V102.101Z" fill="#42E8E0"/>
<path d="M153.383 97.6397L149.359 95.3278V93.0785L153.383 95.4028V97.6397Z" fill="#42E8E0"/>
<path d="M115.769 102.226L105.997 96.59V94.3407L115.769 99.9891V102.226Z" fill="#42E8E0"/>
<path d="M120.918 105.2L117.919 103.463V101.226L120.918 102.963V105.2Z" fill="#42E8E0"/>
<path d="M126.079 108.187L123.08 106.45V104.2L126.079 105.937V108.187Z" fill="#42E8E0"/>
<path d="M135.626 113.697L128.241 109.436V107.187L135.626 111.448V113.697Z" fill="#42E8E0"/>
<path d="M137.625 114.847L130.24 110.586V108.349L137.625 112.61V114.847Z" fill="#42E8E0"/>
<path d="M143.886 102.688L140.887 100.951V98.7019L143.886 100.439V102.688Z" fill="#42E8E0"/>
<path d="M153.433 108.187L146.048 103.925V101.689L153.433 105.95V108.187Z" fill="#42E8E0"/>
<path d="M101.248 104.375L98.2494 102.638V100.389L101.248 102.126V104.375Z" fill="#42E8E0"/>
<path d="M110.796 109.886L103.41 105.612V103.375L110.796 107.637V109.886Z" fill="#42E8E0"/>
<path d="M120.543 115.509L113.17 111.248V108.999L120.543 113.26V115.509Z" fill="#42E8E0"/>
</g>
<defs>
<linearGradient id="paint0_linear_10_1461" x1="269.19" y1="280.051" x2="331.289" y2="280.051" gradientUnits="userSpaceOnUse">
<stop stop-color="#13A3F7"/>
<stop offset="1" stop-color="#50D88D"/>
</linearGradient>
<linearGradient id="paint1_linear_10_1461" x1="269.19" y1="280.051" x2="331.289" y2="280.051" gradientUnits="userSpaceOnUse">
<stop stop-color="#13A3F7"/>
<stop offset="1" stop-color="#50D88D"/>
</linearGradient>
<linearGradient id="paint2_linear_10_1461" x1="0.950486" y1="269.996" x2="63.0549" y2="269.996" gradientUnits="userSpaceOnUse">
<stop stop-color="#13A3F7"/>
<stop offset="1" stop-color="#50D88D"/>
</linearGradient>
<linearGradient id="paint3_linear_10_1461" x1="0.950486" y1="269.996" x2="63.0549" y2="269.996" gradientUnits="userSpaceOnUse">
<stop stop-color="#13A3F7"/>
<stop offset="1" stop-color="#50D88D"/>
</linearGradient>
<linearGradient id="paint4_linear_10_1461" x1="28.6345" y1="228.132" x2="276.536" y2="228.132" gradientUnits="userSpaceOnUse">
<stop stop-color="#13A3F7"/>
<stop offset="1" stop-color="#50D88D"/>
</linearGradient>
<linearGradient id="paint5_linear_10_1461" x1="28.8973" y1="218.886" x2="276.273" y2="218.886" gradientUnits="userSpaceOnUse">
<stop stop-color="#13A3F7"/>
<stop offset="1" stop-color="#50D88D"/>
</linearGradient>
<linearGradient id="paint6_linear_10_1461" x1="124.657" y1="104.552" x2="299.656" y2="104.552" gradientUnits="userSpaceOnUse">
<stop stop-color="#13A3F7"/>
<stop offset="1" stop-color="#50D88D"/>
</linearGradient>
<linearGradient id="paint7_linear_10_1461" x1="269.725" y1="149.566" x2="299.776" y2="149.566" gradientUnits="userSpaceOnUse">
<stop stop-color="#13A3F7"/>
<stop offset="1" stop-color="#50D88D"/>
</linearGradient>
<linearGradient id="paint8_linear_10_1461" x1="28.9724" y1="198.572" x2="276.223" y2="198.572" gradientUnits="userSpaceOnUse">
<stop stop-color="#13A3F7"/>
<stop offset="1" stop-color="#50D88D"/>
</linearGradient>
<linearGradient id="paint9_linear_10_1461" x1="193.284" y1="192.012" x2="-54.0062" y2="192.012" gradientUnits="userSpaceOnUse">
<stop stop-color="#C0BFF6"/>
<stop offset="0.29" stop-color="#C5C4F7"/>
<stop offset="0.64" stop-color="#D3D2F9"/>
<stop offset="1" stop-color="#E9E9FD"/>
</linearGradient>
<radialGradient id="paint10_radial_10_1461" cx="0" cy="0" r="1" gradientUnits="userSpaceOnUse" gradientTransform="translate(53.9983 127.983) scale(217.716 217.6)">
<stop stop-color="#96FFC1"/>
<stop offset="0.360564" stop-color="#52DA8A"/>
<stop offset="0.611623" stop-color="#11A2FD"/>
<stop offset="0.767637" stop-color="#31B1FF"/>
<stop offset="0.953125" stop-color="#009EFF"/>
</radialGradient>
<linearGradient id="paint11_linear_10_1461" x1="28.7322" y1="188.825" x2="276.747" y2="188.825" gradientUnits="userSpaceOnUse">
<stop stop-color="#42E8E0"/>
<stop offset="0.11" stop-color="#37B6BF"/>
<stop offset="0.22" stop-color="#2C87A1"/>
<stop offset="0.34" stop-color="#235F87"/>
<stop offset="0.46" stop-color="#1C3F72"/>
<stop offset="0.58" stop-color="#162561"/>
<stop offset="0.71" stop-color="#121355"/>
<stop offset="0.85" stop-color="#10084E"/>
<stop offset="1" stop-color="#0F054C"/>
</linearGradient>
<radialGradient id="paint12_radial_10_1461" cx="0" cy="0" r="1" gradientUnits="userSpaceOnUse" gradientTransform="translate(80.7732 132.438) scale(20.5561 46.9513)">
<stop stop-color="#96FFC1"/>
<stop offset="0.360564" stop-color="#52DA8A"/>
<stop offset="0.611623" stop-color="#11A2FD"/>
<stop offset="0.767637" stop-color="#31B1FF"/>
<stop offset="0.953125" stop-color="#009EFF"/>
</radialGradient>
<radialGradient id="paint13_radial_10_1461" cx="0" cy="0" r="1" gradientUnits="userSpaceOnUse" gradientTransform="translate(87.7083 131.465) scale(11.6999 14.3724)">
<stop stop-color="#96FFC1"/>
<stop offset="0.360564" stop-color="#52DA8A"/>
<stop offset="0.611623" stop-color="#11A2FD"/>
<stop offset="0.767637" stop-color="#31B1FF"/>
<stop offset="0.953125" stop-color="#009EFF"/>
</radialGradient>
<radialGradient id="paint14_radial_10_1461" cx="0" cy="0" r="1" gradientUnits="userSpaceOnUse" gradientTransform="translate(199.521 52.1551) rotate(11.2) scale(99.0211)">
<stop stop-color="#C0BFF6"/>
<stop offset="1" stop-color="#393091"/>
</radialGradient>
<radialGradient id="paint15_radial_10_1461" cx="0" cy="0" r="1" gradientUnits="userSpaceOnUse" gradientTransform="translate(98.7265 99.7079) rotate(-25.69) scale(30.2105 52.326)">
<stop stop-color="#96FFC1"/>
<stop offset="0.360564" stop-color="#52DA8A"/>
<stop offset="0.611623" stop-color="#11A2FD"/>
<stop offset="0.767637" stop-color="#31B1FF"/>
<stop offset="0.953125" stop-color="#009EFF"/>
</radialGradient>
<radialGradient id="paint16_radial_10_1461" cx="0" cy="0" r="1" gradientUnits="userSpaceOnUse" gradientTransform="translate(123.306 102.459) scale(78.0016 157.931)">
<stop stop-color="#96FFC1"/>
<stop offset="0.360564" stop-color="#52DA8A"/>
<stop offset="0.611623" stop-color="#11A2FD"/>
<stop offset="0.767637" stop-color="#31B1FF"/>
<stop offset="0.953125" stop-color="#009EFF"/>
</radialGradient>
<radialGradient id="paint17_radial_10_1461" cx="0" cy="0" r="1" gradientUnits="userSpaceOnUse" gradientTransform="translate(134.542 97.8543) scale(53.2259 53.2406)">
<stop stop-color="#96FFC1"/>
<stop offset="0.360564" stop-color="#52DA8A"/>
<stop offset="0.611623" stop-color="#11A2FD"/>
<stop offset="0.767637" stop-color="#31B1FF"/>
<stop offset="0.953125" stop-color="#009EFF"/>
</radialGradient>
<radialGradient id="paint18_radial_10_1461" cx="0" cy="0" r="1" gradientUnits="userSpaceOnUse" gradientTransform="translate(124.369 32.5579) scale(79.5418 137.77)">
<stop stop-color="#96FFC1"/>
<stop offset="0.360564" stop-color="#52DA8A"/>
<stop offset="0.611623" stop-color="#11A2FD"/>
<stop offset="0.767637" stop-color="#31B1FF"/>
<stop offset="0.953125" stop-color="#009EFF"/>
</radialGradient>
<radialGradient id="paint19_radial_10_1461" cx="0" cy="0" r="1" gradientUnits="userSpaceOnUse" gradientTransform="translate(146.373 75.2586) scale(37.5015 37.5016)">
<stop stop-color="#42E8E0"/>
<stop offset="0.06" stop-color="#3CCBCD"/>
<stop offset="0.18" stop-color="#3098AC"/>
<stop offset="0.3" stop-color="#266B8F"/>
<stop offset="0.42" stop-color="#1E4777"/>
<stop offset="0.54" stop-color="#172A65"/>
<stop offset="0.66" stop-color="#131657"/>
<stop offset="0.78" stop-color="#100A50"/>
<stop offset="0.9" stop-color="#0F064D"/>
<stop offset="1" stop-color="#0F054C"/>
</radialGradient>
<radialGradient id="paint20_radial_10_1461" cx="0" cy="0" r="1" gradientUnits="userSpaceOnUse" gradientTransform="translate(190.154 139.318) rotate(-16.04) scale(30.2105 52.326)">
<stop stop-color="#96FFC1"/>
<stop offset="0.360564" stop-color="#52DA8A"/>
<stop offset="0.611623" stop-color="#11A2FD"/>
<stop offset="0.767637" stop-color="#31B1FF"/>
<stop offset="0.953125" stop-color="#009EFF"/>
</radialGradient>
<radialGradient id="paint21_radial_10_1461" cx="0" cy="0" r="1" gradientUnits="userSpaceOnUse" gradientTransform="translate(210.219 145.945) scale(13.345 29.8648)">
<stop stop-color="#96FFC1"/>
<stop offset="0.360564" stop-color="#52DA8A"/>
<stop offset="0.611623" stop-color="#11A2FD"/>
<stop offset="0.767637" stop-color="#31B1FF"/>
<stop offset="0.953125" stop-color="#009EFF"/>
</radialGradient>
<linearGradient id="paint22_linear_10_1461" x1="197.17" y1="93.6576" x2="213.546" y2="93.6576" gradientUnits="userSpaceOnUse">
<stop stop-color="#13A3F7"/>
<stop offset="1" stop-color="#50D88D"/>
</linearGradient>
<radialGradient id="paint23_radial_10_1461" cx="0" cy="0" r="1" gradientUnits="userSpaceOnUse" gradientTransform="translate(198.629 185.572) scale(20.4946 46.5684)">
<stop stop-color="#96FFC1"/>
<stop offset="0.360564" stop-color="#52DA8A"/>
<stop offset="0.611623" stop-color="#11A2FD"/>
<stop offset="0.767637" stop-color="#31B1FF"/>
<stop offset="0.953125" stop-color="#009EFF"/>
</radialGradient>
<radialGradient id="paint24_radial_10_1461" cx="0" cy="0" r="1" gradientUnits="userSpaceOnUse" gradientTransform="translate(205.576 184.324) scale(11.6493 14.3702)">
<stop stop-color="#96FFC1"/>
<stop offset="0.360564" stop-color="#52DA8A"/>
<stop offset="0.611623" stop-color="#11A2FD"/>
<stop offset="0.767637" stop-color="#31B1FF"/>
<stop offset="0.953125" stop-color="#009EFF"/>
</radialGradient>
<linearGradient id="paint25_linear_10_1461" x1="73.3567" y1="94.4031" x2="178.626" y2="94.4031" gradientUnits="userSpaceOnUse">
<stop stop-color="#BCBEFF"/>
<stop offset="0.17" stop-color="#B6B8FC"/>
<stop offset="0.4" stop-color="#A4A8F5"/>
<stop offset="0.66" stop-color="#868DEA"/>
<stop offset="0.96" stop-color="#5E67DA"/>
<stop offset="1" stop-color="#5761D7"/>
</linearGradient>
<linearGradient id="paint26_linear_10_1461" x1="73.2727" y1="94.1094" x2="178.578" y2="94.1094" gradientUnits="userSpaceOnUse">
<stop stop-color="#13A3F7"/>
<stop offset="1" stop-color="#50D88D"/>
</linearGradient>
<radialGradient id="paint27_radial_10_1461" cx="0" cy="0" r="1" gradientUnits="userSpaceOnUse" gradientTransform="translate(87.98 23.0997) scale(83.0623 254.849)">
<stop stop-color="#96FFC1"/>
<stop offset="0.360564" stop-color="#52DA8A"/>
<stop offset="0.611623" stop-color="#11A2FD"/>
<stop offset="0.767637" stop-color="#31B1FF"/>
<stop offset="0.953125" stop-color="#009EFF"/>
</radialGradient>
</defs>
</svg>
