<svg width="384" height="300" viewBox="0 0 384 300" fill="none" xmlns="http://www.w3.org/2000/svg">
<path d="M201.812 280.88C195.871 262.797 189.831 235.183 196.903 204.524C205.018 169.316 223.014 162.282 239.17 124.65C262.223 70.9376 236.137 32.0262 259.999 15.6091C271.643 7.60566 289.937 7.59324 301.234 15.634C333.434 38.5632 324.611 138.458 273.52 177.431C250.417 195.066 230.259 192.966 212.922 215.783C197.599 235.929 198.804 262.524 201.812 280.88Z" fill="url(#paint0_linear_6_300)"/>
<path d="M198.121 235.345L197.698 235.233C199.637 227.602 202.259 220.096 205.466 212.937C212.848 196.471 220.975 187.423 231.278 175.965C237.964 168.521 245.558 160.082 254.319 147.99C270.711 125.371 275.794 117.43 280.33 104.654C289.328 79.3637 287.949 56.683 286.321 45.4235C284.021 29.4414 278.653 14.2298 270.388 0.223698L270.761 0C279.063 14.0682 284.444 29.3295 286.756 45.3614C288.384 56.6706 289.776 79.4259 280.741 104.803C276.18 117.629 271.084 125.583 254.667 148.238C245.893 160.343 238.3 168.794 231.601 176.251C221.336 187.672 213.221 196.694 205.863 213.111C202.657 220.257 200.06 227.739 198.121 235.345Z" fill="white"/>
<path d="M285.277 86.7831L285.264 86.4227C284.929 67.781 273.023 55.7137 263.081 48.8784C252.293 41.459 241.469 38.4142 241.357 38.3894L241.469 37.9668C241.581 37.9917 252.48 41.0613 263.329 48.518C273.284 55.3657 285.202 67.4331 285.687 86.0499C287.402 85.0432 295.791 79.8857 303.334 70.3909C311.089 60.6227 319.515 44.1434 315.613 21.0775L316.048 21.0029C319.975 44.2304 311.487 60.8339 303.67 70.6767C295.206 81.3273 285.687 86.5718 285.587 86.6215L285.277 86.7831Z" fill="white"/>
<path d="M282.356 146.623C280.455 146.623 278.653 146.523 276.987 146.374C266.523 145.417 259.029 142.025 258.955 141.987L258.793 141.913L258.843 141.739C263.64 123.445 259.477 109.961 255.139 101.883C250.442 93.1213 244.526 88.6224 244.464 88.5727L244.725 88.2247C244.787 88.2744 250.765 92.8106 255.512 101.659C259.874 109.787 264.075 123.321 259.315 141.677C260.471 142.174 267.517 145.082 277.049 145.952C286.631 146.822 300.749 145.765 313.624 135.736L313.898 136.084C303.135 144.448 291.515 146.623 282.356 146.623Z" fill="white"/>
<path d="M260.819 181.582C255.239 181.582 250.653 180.812 247.111 179.842C238.349 177.456 233.851 173.417 233.813 173.38L233.701 173.268L233.764 173.119C241.879 154.539 230.557 124.129 230.445 123.818L230.855 123.669C230.967 123.979 242.289 154.39 234.236 173.144C234.994 173.777 239.381 177.27 247.26 179.407C255.264 181.582 268.623 182.775 286.78 176.139L286.93 176.549C276.664 180.314 267.928 181.582 260.819 181.582Z" fill="white"/>
<path d="M183.419 252.52C181.405 240.365 180.25 221.388 190.142 204.424C207.392 174.821 238.846 184.639 268.947 152.923C293.23 127.335 285.575 107.463 312.481 90.4615C316.98 87.6155 340.779 71.9565 358.476 81.3892C368.443 86.7083 372.06 97.6198 372.743 99.6704C382.996 130.628 351.454 179.096 310.356 201.267C286.743 214.006 279.125 209.843 237.566 224.694C213.146 233.418 194.802 244.653 183.419 252.52Z" fill="url(#paint1_linear_6_300)"/>
<path d="M179.864 267.135L179.429 267.048C185.482 238.004 196.94 218.492 213.519 209.06C221.634 204.437 228.084 203.703 234.932 202.933C242.289 202.1 249.895 201.243 259.924 195.165C269.68 189.262 273.172 183.583 277.609 176.4C281.586 169.937 286.544 161.884 297.667 151.159C307.423 141.763 314.519 137.364 320.783 133.486C327.568 129.286 332.925 125.968 339.139 117.828C349.28 104.542 354.574 87.5037 354.885 67.1968L355.32 67.2092C355.009 87.6156 349.677 104.741 339.487 118.101C333.235 126.303 327.842 129.634 321.019 133.872C314.768 137.737 307.696 142.124 297.978 151.494C286.892 162.182 281.946 170.198 277.982 176.648C273.52 183.894 270.003 189.61 260.148 195.563C250.032 201.678 242.376 202.548 234.969 203.393C228.184 204.163 221.758 204.884 213.73 209.47C197.276 218.816 185.879 238.228 179.864 267.135Z" fill="white"/>
<path d="M320.708 135.624C319.876 135.624 319.031 135.612 318.173 135.587L317.875 135.574L317.962 135.301C318.098 134.891 331.135 94.5876 316.284 77.9219L316.607 77.6237C320.944 82.4953 325.605 92.5743 323.194 112.956C321.889 123.992 319.018 133.437 318.471 135.164C340.555 135.761 356.985 127.397 366.89 120.263C377.677 112.496 383.27 104.455 383.332 104.381L383.692 104.629C383.642 104.716 378.013 112.794 367.163 120.611C357.544 127.534 341.798 135.624 320.708 135.624Z" fill="white"/>
<path d="M322.324 169.962C318.919 169.962 315.75 169.788 312.879 169.515C297.431 168.023 286.954 163.413 286.855 163.363L286.681 163.288L286.731 163.102C292.534 142.087 287.414 112.173 287.365 111.875L287.8 111.8C287.849 112.098 292.957 141.937 287.215 163.04C288.632 163.636 298.649 167.7 312.953 169.08C327.146 170.447 348.571 169.365 370.084 156.465L370.307 156.838C353.033 167.191 335.82 169.962 322.324 169.962Z" fill="white"/>
<path d="M304.018 219.002C283.835 219.002 268.238 214.739 258.532 211.061C247.484 206.873 241.481 202.498 241.419 202.461L241.233 202.324L241.382 202.15C257.339 182.663 251.125 150.475 251.063 150.152L251.498 150.065C251.56 150.388 257.787 182.576 241.879 202.237C244.203 203.853 267.704 219.387 307.125 218.542L307.137 218.977C306.081 218.99 305.049 219.002 304.018 219.002Z" fill="white"/>
<path d="M204.459 250.395C211.22 245.535 222.28 238.514 237.156 233.232C263.615 223.849 275.745 229.379 286.942 218.194C298.537 206.611 291.031 195.215 304.913 182.278C306.081 181.197 320.982 167.663 334.466 172.696C343.899 176.226 347.577 186.938 349.292 191.959C355.978 211.471 352.088 241.21 331.272 255.875C311.537 269.782 286.544 263.158 278.615 260.995C264.696 257.205 261.403 251.786 247.248 248.344C230.035 244.193 214.575 247.288 204.459 250.395Z" fill="url(#paint2_linear_6_300)"/>
<path d="M204.459 250.395C211.22 245.535 222.28 238.514 237.156 233.232C263.615 223.849 275.745 229.379 286.942 218.194C298.537 206.611 291.031 195.215 304.913 182.278C306.081 181.197 320.982 167.663 334.466 172.696C343.899 176.226 347.577 186.938 349.292 191.959C355.978 211.471 352.088 241.21 331.272 255.875C311.537 269.782 286.544 263.158 278.615 260.995C264.696 257.205 261.403 251.786 247.248 248.344C230.035 244.193 214.575 247.288 204.459 250.395Z" fill="url(#paint3_linear_6_300)"/>
<path d="M198.904 254.782L198.643 254.421C215.11 242.379 231.179 236.699 246.415 237.557C253.076 237.93 257.749 239.408 262.273 240.85C267.928 242.64 273.259 244.342 282.12 243.969C298.065 243.298 311.661 237.892 320.422 228.733C333.981 214.553 336.989 190.766 328.066 168.135L328.476 167.974C337.461 190.766 334.416 214.739 320.733 229.044C311.897 238.277 298.189 243.733 282.133 244.404C273.197 244.777 267.828 243.075 262.136 241.273C257.637 239.843 252.989 238.377 246.39 238.004C231.253 237.159 215.284 242.801 198.904 254.782Z" fill="white"/>
<path d="M326.959 219.847L326.984 219.512C328.003 205.928 319.826 195.625 312.792 189.374C305.149 182.589 297.17 178.985 297.083 178.947L297.257 178.55C297.332 178.587 305.385 182.216 313.078 189.051C320.137 195.315 328.314 205.617 327.444 219.201C330.414 218.045 353.244 208.6 354.735 189.934L355.17 189.971C353.555 210.129 327.531 219.648 327.27 219.735L326.959 219.847Z" fill="white"/>
<path d="M321.939 250.743C318.024 250.743 314.569 250.345 311.624 249.786C300.712 247.698 294.324 242.901 294.262 242.851L294.088 242.727L294.212 242.553C302.166 231.591 300.836 219.574 298.338 211.433C295.617 202.585 290.944 196.272 290.906 196.209L291.254 195.948C291.304 196.011 296.014 202.399 298.761 211.309C301.284 219.512 302.613 231.579 294.709 242.64C295.791 243.41 301.905 247.486 311.735 249.375C321.727 251.289 337.697 251.24 357.097 240.204L357.308 240.589C343.488 248.418 331.396 250.743 321.939 250.743Z" fill="white"/>
<path d="M378.98 269.103L3.99234 265.832V275.499C3.99234 278.116 5.62132 280.346 7.83781 280.746L113.869 299.773C115.124 300 116.406 300.054 117.674 299.947L374.894 278.263C377.19 278.062 378.966 275.833 378.966 273.135V269.103H378.98Z" fill="url(#paint4_linear_6_300)"/>
<path d="M258.261 253.441L8.11822 271.106C3.64519 271.426 0 268.061 0 263.602V84.7737C0 80.314 3.64519 76.6956 8.11822 76.6956H258.261C261.946 76.6956 264.924 79.9669 264.924 83.9993V245.656C264.937 249.689 261.946 253.174 258.261 253.441Z" fill="url(#paint5_linear_6_300)"/>
<path d="M262.253 253.441L12.1106 271.106C7.63753 271.426 3.99234 268.062 3.99234 263.602V84.774C3.99234 80.3143 7.63753 76.6958 12.1106 76.6958H262.253C265.939 76.6958 268.916 79.9671 268.916 83.9995V245.656C268.916 249.689 265.939 253.174 262.253 253.441Z" fill="url(#paint6_linear_6_300)"/>
<path d="M254.456 242.038L21.4706 257.393C17.8254 257.633 14.8612 254.869 14.8612 251.224V94.6681C14.8612 91.0229 17.8254 88.0586 21.4706 88.0453L254.456 87.0839C257.5 87.0706 259.957 89.7544 259.957 93.0658V235.669C259.957 238.98 257.5 241.838 254.456 242.038Z" fill="white"/>
<path d="M146.008 81.5828C146.008 83.2385 144.726 84.6004 143.137 84.6004C141.548 84.6004 140.253 83.2652 140.253 81.5961C140.253 79.9271 141.548 78.5785 143.137 78.5785C144.726 78.5785 146.008 79.9271 146.008 81.5828Z" fill="white"/>
<path opacity="0.48" d="M201.981 204.384C182.7 194.009 167.532 207.161 152.898 194.183C144.032 186.318 148.385 180.457 137.462 168.707C125.365 155.688 117.501 160.068 105.35 148.344C89.9815 133.537 97.6724 122 84.4402 111.372C68.3907 98.4734 51.0727 110.41 35.7843 98.0328C29.1882 92.6918 25.5697 84.9341 23.6871 76.6824H8.73244C6.11538 76.6824 3.979 78.8054 3.979 81.4225V266.793C3.979 269.41 6.10203 271.386 8.73244 271.199L263.669 253.107C264.924 253.013 266.032 252.292 266.74 251.224C248.073 250.543 236.617 244.294 229.286 237.818C214.959 225.187 217.443 212.703 201.981 204.384Z" fill="white"/>
<path d="M256.005 252.626L3.99234 271.239L113.882 290.961C115.137 291.188 116.419 291.241 117.688 291.134L378.98 269.103L260.024 252.76C258.688 252.573 257.34 252.533 256.005 252.626Z" fill="url(#paint7_linear_6_300)"/>
<path opacity="0.3" d="M40.7647 271.707L250.57 255.991L315.516 264.83L107.5 281.641L40.7647 271.707Z" fill="url(#paint8_linear_6_300)"/>
<path d="M253.815 131.601L20.8162 135.152V92.7987H253.815V131.601Z" fill="#D8DEE8"/>
<path d="M179.936 207.148L32.3126 213.584V142.523L179.936 139.866V207.148Z" fill="#D8DEE8"/>
<path d="M244.094 158.399L188.562 159.828V139.719L244.094 138.718V158.399Z" fill="#D8DEE8"/>
<path d="M244.094 204.344L188.562 206.761V166.958L244.094 165.382V204.344Z" fill="#D8DEE8"/>
<path d="M244.094 213.37L32.3126 223.358V240.235L244.094 228.953V213.37Z" fill="#D8DEE8"/>
<path d="M307.892 106.165L41.1919 109.516C39.6831 109.529 38.4413 108.314 38.4413 106.805V63.0765C38.4413 61.581 39.6564 60.366 41.1518 60.366H307.852C309.347 60.366 310.562 61.581 310.562 63.0765V103.454C310.575 104.936 309.374 106.151 307.892 106.165Z" fill="url(#paint9_linear_6_300)"/>
<path d="M249.075 185.756C249.075 191.137 244.816 195.553 239.439 195.749L90.1577 201.189C84.4959 201.396 79.7936 196.862 79.7936 191.196V129.418C79.7936 123.955 84.178 119.503 89.6406 119.42L238.922 117.135C244.504 117.05 249.075 121.551 249.075 127.134V185.756Z" fill="url(#paint10_linear_6_300)"/>
<path d="M323.714 129.128C323.714 134.566 319.368 139.008 313.931 139.126L269.292 140.094C263.686 140.216 259.076 135.704 259.076 130.096V126.704C259.076 121.241 263.46 116.788 268.923 116.705L313.561 116.023C319.143 115.937 323.714 120.439 323.714 126.021V129.128Z" fill="url(#paint11_linear_6_300)"/>
<path d="M323.714 183.056C323.714 188.436 319.457 192.852 314.08 193.049L269.441 194.681C263.779 194.888 259.076 190.354 259.076 184.688V158.386C259.076 152.956 263.409 148.518 268.838 148.389L313.477 147.328C319.091 147.195 323.714 151.71 323.714 157.326V183.056Z" fill="url(#paint12_linear_6_300)"/>
<path d="M331.165 210.729C331.165 205.553 326.862 201.414 321.689 201.615L97.5776 210.325C92.381 210.527 88.2723 214.798 88.2723 219.999C88.2723 225.512 92.8698 229.913 98.3779 229.671L322.443 219.842C327.321 219.628 331.165 215.611 331.165 210.729Z" fill="url(#paint13_linear_6_300)"/>
<path d="M48.9896 72.2628C50.8037 72.2628 52.2743 70.7922 52.2743 68.9782C52.2743 67.1641 50.8037 65.6935 48.9896 65.6935C47.1756 65.6935 45.705 67.1641 45.705 68.9782C45.705 70.7922 47.1756 72.2628 48.9896 72.2628Z" fill="url(#paint14_linear_6_300)"/>
<path d="M59.7783 72.2628C61.5924 72.2628 63.063 70.7922 63.063 68.9782C63.063 67.1641 61.5924 65.6935 59.7783 65.6935C57.9643 65.6935 56.4937 67.1641 56.4937 68.9782C56.4937 70.7922 57.9643 72.2628 59.7783 72.2628Z" fill="url(#paint15_linear_6_300)"/>
<path d="M70.567 72.2628C72.3811 72.2628 73.8517 70.7922 73.8517 68.9782C73.8517 67.1641 72.3811 65.6935 70.567 65.6935C68.753 65.6935 67.2823 67.1641 67.2823 68.9782C67.2823 70.7922 68.753 72.2628 70.567 72.2628Z" fill="url(#paint16_linear_6_300)"/>
<path d="M162.602 161.275H170.904C172.279 161.275 173.549 160.809 174.448 160.083C175.347 159.358 175.928 158.321 175.928 157.181C175.928 154.9 173.654 153.034 170.904 153.086H162.602L149.011 139.766C148.905 139.663 148.747 139.611 148.641 139.611H145.838C145.521 139.611 145.309 139.818 145.309 140.129V147.748C145.309 147.903 145.362 148.007 145.468 148.111L154.352 156.818C154.564 157.025 154.564 157.336 154.352 157.544L145.468 166.251C145.362 166.355 145.309 166.458 145.309 166.614V174.233C145.309 174.544 145.521 174.751 145.838 174.751H148.641C148.799 174.751 148.905 174.699 149.011 174.595L162.602 161.275Z" fill="white"/>
<path d="M191.846 157.181C191.74 160.55 190.894 163.556 189.255 166.147C187.51 168.894 185.077 171.019 181.904 172.522C178.731 174.025 175.135 174.751 171.01 174.751H153.559C153.083 174.751 152.871 174.181 153.189 173.87L160.539 166.666C160.645 166.562 160.751 166.51 160.909 166.51H170.534C173.76 166.51 176.298 165.629 178.255 163.867C180.053 162.208 181.005 160.031 181.164 157.233C181.005 154.434 180.053 152.257 178.255 150.598C176.298 148.836 173.76 147.955 170.534 147.955H160.962C160.804 147.955 160.698 147.903 160.592 147.8L155.039 142.254L153.241 140.492C152.871 140.181 153.136 139.611 153.559 139.611H170.957C175.029 139.611 178.678 140.336 181.851 141.839C185.024 143.342 187.457 145.467 189.202 148.214C190.894 150.806 191.74 153.812 191.846 157.181Z" fill="white"/>
<defs>
<linearGradient id="paint0_linear_6_300" x1="216.825" y1="25.9136" x2="277.797" y2="311.987" gradientUnits="userSpaceOnUse">
<stop offset="0.00359712" stop-color="#1EAF5F"/>
<stop offset="1" stop-color="#9571F6"/>
</linearGradient>
<linearGradient id="paint1_linear_6_300" x1="359.872" y1="536.559" x2="243.132" y2="55.5591" gradientUnits="userSpaceOnUse">
<stop stop-color="#AA80F9"/>
<stop offset="0.9964" stop-color="#11A2FB"/>
</linearGradient>
<linearGradient id="paint2_linear_6_300" x1="354.767" y1="204.403" x2="139.214" y2="284.684" gradientUnits="userSpaceOnUse">
<stop stop-color="#FF9085"/>
<stop offset="1" stop-color="#FB6FBB"/>
</linearGradient>
<linearGradient id="paint3_linear_6_300" x1="138.661" y1="211.316" x2="352.291" y2="218.041" gradientUnits="userSpaceOnUse">
<stop stop-color="#FF9085"/>
<stop offset="1" stop-color="#1EAF5F"/>
</linearGradient>
<linearGradient id="paint4_linear_6_300" x1="162.382" y1="283.513" x2="136.04" y2="294.576" gradientUnits="userSpaceOnUse">
<stop stop-color="#1A8ED6"/>
<stop offset="0.9964" stop-color="#11A2FB"/>
</linearGradient>
<linearGradient id="paint5_linear_6_300" x1="127.208" y1="167.415" x2="98.6199" y2="179.422" gradientUnits="userSpaceOnUse">
<stop stop-color="#40447E"/>
<stop offset="0.9964" stop-color="#11A2FB"/>
</linearGradient>
<linearGradient id="paint6_linear_6_300" x1="3.99011" y1="173.915" x2="268.92" y2="173.915" gradientUnits="userSpaceOnUse">
<stop stop-color="#11A2FB"/>
<stop offset="0.9964" stop-color="#11A2FB"/>
</linearGradient>
<linearGradient id="paint7_linear_6_300" x1="3.99011" y1="271.885" x2="378.974" y2="271.885" gradientUnits="userSpaceOnUse">
<stop stop-color="#11A2FB"/>
<stop offset="0.9964" stop-color="#198ED5"/>
</linearGradient>
<linearGradient id="paint8_linear_6_300" x1="40.7636" y1="268.813" x2="315.512" y2="268.813" gradientUnits="userSpaceOnUse">
<stop stop-color="white"/>
<stop offset="0.9964" stop-color="#B4B4B4"/>
</linearGradient>
<linearGradient id="paint9_linear_6_300" x1="233.529" y1="6.17997" x2="130.094" y2="141.279" gradientUnits="userSpaceOnUse">
<stop stop-color="#15A5F2"/>
<stop offset="1" stop-color="#4DD592"/>
</linearGradient>
<linearGradient id="paint10_linear_6_300" x1="79.6586" y1="159.137" x2="248.998" y2="159.137" gradientUnits="userSpaceOnUse">
<stop stop-color="#13A3F7"/>
<stop offset="1" stop-color="#50D88D"/>
</linearGradient>
<linearGradient id="paint11_linear_6_300" x1="321.485" y1="118.717" x2="264.501" y2="140.561" gradientUnits="userSpaceOnUse">
<stop stop-color="#1EAF5F"/>
<stop offset="0.9964" stop-color="#52DA8A"/>
</linearGradient>
<linearGradient id="paint12_linear_6_300" x1="310.469" y1="136.01" x2="262.601" y2="194.695" gradientUnits="userSpaceOnUse">
<stop stop-color="#1EAF5F"/>
<stop offset="0.9964" stop-color="#4ED68F"/>
</linearGradient>
<linearGradient id="paint13_linear_6_300" x1="88.0786" y1="215.634" x2="331.055" y2="215.634" gradientUnits="userSpaceOnUse">
<stop stop-color="#13A3F7"/>
<stop offset="1" stop-color="#50D88D"/>
</linearGradient>
<linearGradient id="paint14_linear_6_300" x1="50.0049" y1="65.8594" x2="47.9697" y2="72.1056" gradientUnits="userSpaceOnUse">
<stop stop-color="white"/>
<stop offset="1" stop-color="white"/>
</linearGradient>
<linearGradient id="paint15_linear_6_300" x1="60.7936" y1="65.8594" x2="58.7584" y2="72.1056" gradientUnits="userSpaceOnUse">
<stop stop-color="white"/>
<stop offset="1" stop-color="white"/>
</linearGradient>
<linearGradient id="paint16_linear_6_300" x1="71.5823" y1="65.8594" x2="69.5471" y2="72.1056" gradientUnits="userSpaceOnUse">
<stop stop-color="white"/>
<stop offset="1" stop-color="white"/>
</linearGradient>
</defs>
</svg>
