<svg width="264" height="300" viewBox="0 0 264 300" fill="none" xmlns="http://www.w3.org/2000/svg">
<path d="M111.848 209.205C127.429 217.779 148.886 214.869 161.047 197.599C167.855 187.926 172.186 174.288 174.663 162.827C190.033 91.5489 149.286 133.196 150.552 89.5054C151.818 45.8148 150.363 16.8617 94.3446 1.6577C94.3446 1.6577 44.1237 -13.5463 60.4161 48.1359C63.4036 59.4417 67.8682 70.6698 75.1425 79.9321C82.7945 89.6609 92.9564 96.9575 102.43 104.765C113.769 114.105 105.873 129.598 101.619 140.57C96.3215 154.197 91.1128 168.002 93.5561 182.884C95.5885 195.2 102.707 204.174 111.848 209.205Z" fill="url(#paint0_linear_10_134)"/>
<g opacity="0.8">
<path d="M127.04 207.417C127.24 207.417 127.429 207.284 127.485 207.084C127.562 206.806 135.137 179.041 136.714 147.201C137.647 128.476 136.358 112.028 132.882 98.3013C128.529 81.0982 120.71 68.1376 109.649 59.7971C109.449 59.6416 109.16 59.686 109.004 59.886C108.849 60.0859 108.893 60.3746 109.093 60.5301C133.793 79.1658 137.247 117.925 135.792 147.167C134.215 178.908 126.674 206.584 126.596 206.862C126.53 207.106 126.674 207.361 126.918 207.428C126.963 207.406 127.007 207.417 127.04 207.417Z" fill="white"/>
</g>
<g opacity="0.8">
<path d="M149.763 245.11C149.808 245.11 149.852 245.099 149.896 245.088C150.13 244.999 150.252 244.744 150.174 244.499C150.074 244.222 139.723 215.813 124.031 183.417C114.813 164.381 105.573 147.723 96.5769 133.885C85.3155 116.57 74.3984 103.643 64.1255 95.4803C63.9255 95.3248 63.6368 95.3582 63.4813 95.5581C63.3258 95.758 63.3592 96.0467 63.5591 96.2022C86.6704 114.56 108.76 153.986 123.209 183.828C138.879 216.179 149.208 244.544 149.308 244.833C149.385 244.999 149.574 245.121 149.763 245.11Z" fill="white"/>
</g>
<path d="M115.79 22.8701L85.06 278.262C84.6046 282.093 87.2367 285.525 90.935 285.891L218.908 299.94C226.749 300.429 231.036 296.42 231.525 292.355L263.787 20.8377C264.265 16.7841 260.422 13.1191 252.548 13.1191L123.409 15.8401C119.677 15.8956 116.245 19.0608 115.79 22.8701Z" fill="url(#paint1_radial_10_134)"/>
<path d="M110.037 22.4258L79.1407 279.094C78.6743 282.948 81.3286 286.391 85.0379 286.757L217.72 299.962C221.885 300.373 225.694 297.364 226.183 293.277L258.623 20.349C259.112 16.2842 256.047 13.008 251.849 13.0746L117.7 15.3402C113.936 15.418 110.493 18.5942 110.037 22.4258Z" fill="url(#paint2_radial_10_134)"/>
<path d="M112.547 36.5859L83.9162 274.563C83.4831 278.162 85.9597 281.371 89.4359 281.715L214.211 293.843C218.076 294.221 221.618 291.411 222.074 287.602L252.049 35.4864C252.504 31.6993 249.661 28.6341 245.751 28.6674L119.688 30.0112C116.201 30.0445 112.98 33.0098 112.547 36.5859Z" fill="white"/>
<path d="M179.46 22.2481C179.294 23.6141 180.282 24.7135 181.648 24.6913C183.025 24.6691 184.269 23.5474 184.436 22.1815C184.602 20.8155 183.614 19.716 182.237 19.7382C180.871 19.7605 179.627 20.8821 179.46 22.2481Z" fill="white"/>
<path d="M154.028 139.693L147.376 142.736C146.32 143.225 145.821 144.458 146.276 145.49L147.931 149.278C146.287 150.377 144.766 151.599 143.377 152.943L140.068 150.533C139.157 149.866 137.858 150.088 137.169 151.021L132.86 156.874C132.172 157.807 132.349 159.117 133.249 159.795L136.514 162.238C135.637 163.993 134.904 165.814 134.326 167.691L130.272 167.236C129.14 167.114 128.107 167.947 127.962 169.102L127.029 176.376C126.874 177.542 127.674 178.608 128.806 178.753L132.86 179.252C132.949 181.229 133.215 183.206 133.649 185.194L129.85 186.849C128.784 187.315 128.284 188.581 128.718 189.692L131.494 196.678C131.938 197.799 133.182 198.343 134.259 197.877L138.113 196.222C139.202 197.977 140.423 199.632 141.767 201.142L139.224 204.607C138.513 205.585 138.691 206.995 139.646 207.761L145.643 212.615C146.609 213.403 147.986 213.237 148.708 212.248L151.307 208.705C153.128 209.705 155.05 210.538 157.015 211.204L156.527 215.724C156.393 216.99 157.271 218.168 158.504 218.367L166.267 219.6C167.522 219.8 168.643 218.923 168.777 217.646L169.243 213.048C171.32 212.992 173.408 212.737 175.473 212.281L177.384 216.657C177.917 217.868 179.294 218.467 180.46 218.001L187.823 215.025C189 214.547 189.522 213.17 188.967 211.948L186.968 207.528C188.756 206.373 190.411 205.085 191.921 203.663L195.842 206.595C196.919 207.406 198.407 207.228 199.162 206.195L203.86 199.776C204.615 198.754 204.338 197.277 203.249 196.478L199.251 193.568C200.151 191.68 200.884 189.725 201.428 187.704L206.281 188.304C207.603 188.47 208.758 187.56 208.858 186.294L209.491 178.375C209.591 177.12 208.602 175.976 207.292 175.832L202.461 175.288C202.261 173.244 201.861 171.201 201.295 169.179L205.659 167.314C206.837 166.814 207.336 165.481 206.77 164.337L203.283 157.296C202.727 156.174 201.35 155.686 200.184 156.185L195.886 158.062C194.664 156.385 193.332 154.831 191.877 153.409L194.553 149.755C195.275 148.767 195.02 147.412 193.987 146.723L187.59 142.447C186.579 141.77 185.18 142.003 184.469 142.981L181.826 146.579C179.994 145.746 178.094 145.068 176.151 144.558L176.584 140.237C176.706 139.071 175.818 138.05 174.618 137.961L167.155 137.372C165.967 137.283 164.912 138.138 164.79 139.282L164.334 143.514C162.391 143.68 160.436 144.013 158.515 144.513L156.793 140.693C156.349 139.649 155.105 139.205 154.028 139.693ZM175.973 198.355C164.445 203.163 151.251 197.533 146.465 186.094C141.789 174.921 146.831 162.172 157.748 157.307C168.799 152.376 182.059 157.229 187.346 168.446C192.754 179.952 187.657 193.479 175.973 198.355Z" fill="white"/>
<path d="M141.3 73.291L137.025 76.3007C136.347 76.7782 136.136 77.6667 136.569 78.2886L138.146 80.5542C137.136 81.5315 136.214 82.5755 135.392 83.675L132.816 82.5755C132.105 82.2757 131.227 82.6199 130.85 83.3418L128.506 87.8841C128.129 88.6171 128.395 89.4501 129.106 89.761L131.661 90.8827C131.239 92.1821 130.939 93.5037 130.75 94.8475L127.862 95.1807C127.063 95.2696 126.43 95.9914 126.452 96.78L126.618 101.767C126.641 102.566 127.318 103.144 128.129 103.066L131.016 102.755C131.294 104.054 131.705 105.32 132.238 106.575L129.773 108.275C129.084 108.752 128.873 109.674 129.306 110.34L132.038 114.527C132.482 115.205 133.404 115.36 134.104 114.883L136.603 113.172C137.558 114.161 138.591 115.06 139.69 115.838L138.313 118.536C137.924 119.292 138.213 120.202 138.957 120.558L143.644 122.79C144.399 123.145 145.332 122.812 145.721 122.046L147.12 119.292C148.486 119.647 149.896 119.891 151.318 120.014L151.485 123.057C151.529 123.912 152.273 124.545 153.128 124.467L158.57 124.012C159.448 123.934 160.114 123.179 160.058 122.324L159.87 119.236C161.28 118.858 162.668 118.359 164.023 117.737L165.8 120.291C166.289 121.002 167.288 121.169 168.032 120.669L172.675 117.548C173.419 117.048 173.619 116.071 173.119 115.371L171.298 112.806C172.375 111.773 173.352 110.673 174.207 109.507L177.161 110.796C177.972 111.151 178.95 110.807 179.338 110.018L181.793 105.109C182.181 104.332 181.837 103.41 181.026 103.066L178.039 101.789C178.439 100.423 178.716 99.0345 178.861 97.6351L182.17 97.2797C183.07 97.1798 183.736 96.4246 183.67 95.5805L183.236 90.3496C183.17 89.5167 182.392 88.9281 181.493 89.028L178.194 89.4056C177.839 88.1063 177.35 86.8291 176.751 85.6074L179.471 83.7416C180.204 83.2419 180.393 82.2979 179.894 81.6426L176.795 77.5667C176.306 76.9226 175.318 76.8004 174.596 77.3002L171.908 79.1549C170.909 78.2331 169.832 77.4113 168.699 76.7116L170.109 73.924C170.487 73.1799 170.165 72.3248 169.398 72.0249L164.601 70.148C163.834 69.8481 162.913 70.2146 162.535 70.9476L161.136 73.6908C159.792 73.4131 158.426 73.2465 157.049 73.2021L156.871 70.2924C156.827 69.5039 156.105 68.9597 155.272 69.0818L150.096 69.7815C149.275 69.8926 148.642 70.6144 148.686 71.3919L148.841 74.2572C147.52 74.657 146.22 75.1679 144.943 75.7787L143.322 73.502C142.9 72.9134 141.989 72.8134 141.3 73.291ZM162.846 108.563C155.516 113.539 145.843 111.94 141.256 105.154C136.769 98.5014 138.835 89.2724 145.832 84.3858C152.884 79.477 162.468 80.6875 167.277 87.24C172.186 93.9369 170.22 103.555 162.846 108.563Z" fill="white"/>
<path d="M236.083 50.035L214.493 270.276C214.082 274.463 210.328 277.573 206.119 277.206L74.0809 265.534C70.3049 265.201 67.6061 261.714 68.0504 257.749L91.8614 49.613C92.2946 45.837 95.6597 42.7717 99.3913 42.7717L229.308 42.7939C233.428 42.805 236.471 46.048 236.083 50.035Z" fill="url(#paint3_radial_10_134)"/>
<path d="M234.161 50.0238L212.538 270.11C212.227 273.23 209.44 275.54 206.308 275.274L74.2807 263.701C71.4598 263.457 69.4497 260.858 69.7939 257.904L93.5717 49.624C93.8937 46.8142 96.4037 44.5264 99.1802 44.5375L229.108 44.6486C232.196 44.6486 234.461 47.0586 234.161 50.0238Z" fill="#11A2FB"/>
<path d="M234.161 50.024L232.729 64.5949L92.0058 63.4288L93.5828 49.6241C93.9049 46.8143 96.4148 44.5265 99.1913 44.5376L229.119 44.6487C232.196 44.6487 234.461 47.0587 234.161 50.024Z" fill="url(#paint4_radial_10_134)"/>
<path d="M106.254 53.1668C106.043 55.088 104.322 56.6428 102.423 56.6317C100.535 56.6206 99.1691 55.0547 99.3912 53.1445C99.6133 51.2344 101.312 49.6796 103.212 49.6907C105.111 49.6907 106.465 51.2455 106.254 53.1668Z" fill="white"/>
<path d="M119.193 53.2222C118.982 55.1546 117.249 56.7094 115.328 56.6982C113.418 56.6871 112.041 55.1213 112.263 53.1889C112.474 51.2677 114.206 49.7129 116.117 49.7129C118.027 49.724 119.404 51.301 119.193 53.2222Z" fill="white"/>
<path d="M132.253 53.2778C132.042 55.2213 130.299 56.7872 128.366 56.7761C126.434 56.765 125.046 55.188 125.257 53.2556C125.468 51.3233 127.211 49.7574 129.144 49.7685C131.076 49.7685 132.475 51.3455 132.253 53.2778Z" fill="white"/>
<path d="M175.185 97.6683L95.8773 96.0024C94.9555 95.9802 94.1114 96.7354 94.0004 97.6794L87.5478 154.508C87.4368 155.463 88.1031 156.274 89.036 156.319L168.688 159.895C169.676 159.939 170.564 159.173 170.664 158.184L176.773 99.4786C176.884 98.4901 176.162 97.6794 175.185 97.6683Z" fill="white"/>
<path d="M175.145 76.183C174.891 78.614 172.824 80.4493 170.38 80.4141L100.463 79.4056C97.7456 79.3664 95.6555 76.9903 95.9631 74.29C96.2298 71.9493 98.2233 70.1894 100.579 70.2148L170.499 70.9693C173.281 70.9993 175.434 73.4158 175.145 76.183Z" fill="white"/>
<path d="M126.302 85.709C126.179 86.8095 125.239 87.6359 124.132 87.6164L96.8434 87.1365C95.5928 87.1145 94.6326 86.0207 94.7729 84.7777C94.8954 83.6923 95.8221 82.8773 96.9143 82.8946L124.204 83.3266C125.469 83.3466 126.442 84.4515 126.302 85.709Z" fill="white"/>
<path d="M219.192 101.212C219.088 102.252 218.202 103.036 217.157 103.013L187.213 102.337C186.046 102.311 185.149 101.294 185.269 100.132L185.312 99.7125C185.419 98.6767 186.303 97.8963 187.344 97.9185L217.29 98.5552C218.456 98.58 219.354 99.5929 219.238 100.753L219.192 101.212Z" fill="white"/>
<path d="M218.304 110.156C218.2 111.199 217.309 111.985 216.261 111.958L186.294 111.174C185.13 111.144 184.238 110.129 184.357 108.97L184.402 108.537C184.509 107.499 185.397 106.717 186.44 106.743L216.41 107.478C217.573 107.506 218.466 108.517 218.351 109.675L218.304 110.156Z" fill="white"/>
<path d="M217.416 119.101C217.312 120.146 216.417 120.933 215.367 120.902L185.377 120.021C184.215 119.987 183.327 118.973 183.446 117.817L183.491 117.383C183.598 116.342 184.489 115.56 185.536 115.589L215.529 116.422C216.689 116.454 217.578 117.464 217.464 118.619L217.416 119.101Z" fill="white"/>
<path d="M215.706 136.313C215.602 137.364 214.699 138.153 213.644 138.115L183.606 137.038C182.45 136.996 181.57 135.986 181.688 134.835L181.735 134.378C181.843 133.331 182.742 132.547 183.793 132.583L213.834 133.612C214.988 133.651 215.869 134.658 215.756 135.807L215.706 136.313Z" fill="white"/>
<path d="M214.807 145.314C214.703 146.367 213.796 147.157 212.738 147.116L182.688 145.94C181.535 145.895 180.659 144.886 180.777 143.738L180.825 143.269C180.932 142.22 181.835 141.434 182.889 141.474L212.942 142.601C214.094 142.644 214.971 143.649 214.858 144.796L214.807 145.314Z" fill="white"/>
<path d="M213.911 154.351C213.805 155.406 212.894 156.194 211.835 156.149L181.758 154.855C180.608 154.805 179.737 153.798 179.854 152.653L179.902 152.182C180.01 151.131 180.917 150.344 181.974 150.387L212.057 151.623C213.207 151.67 214.08 152.676 213.965 153.821L213.911 154.351Z" fill="white"/>
<path d="M212.412 169.424C212.345 170.045 211.779 170.534 211.145 170.501L86.7593 164.515C86.1818 164.481 85.7709 163.982 85.8376 163.382C85.9042 162.782 86.4262 162.327 87.0037 162.349L211.368 168.224C212.012 168.268 212.478 168.802 212.412 169.424Z" fill="white"/>
<path d="M203.66 257.549C203.593 258.182 203.027 258.66 202.383 258.615L77.2416 248.42C76.6641 248.375 76.242 247.842 76.3198 247.232C76.3864 246.621 76.9195 246.165 77.497 246.221L202.616 256.305C203.26 256.349 203.727 256.905 203.66 257.549Z" fill="white"/>
<path d="M221.88 74.1497C221.756 75.3914 220.704 76.3325 219.456 76.3168L197.841 76.0444C196.439 76.0267 195.354 74.8094 195.497 73.4142C195.623 72.1867 196.664 71.2575 197.898 71.271L219.513 71.5072C220.924 71.5227 222.019 72.7449 221.88 74.1497Z" fill="white"/>
<path d="M220.361 74.0357C220.293 74.7018 219.728 75.2057 219.058 75.1975L201.614 74.9848C200.858 74.9755 200.273 74.319 200.351 73.5672C200.42 72.9071 200.98 72.4078 201.644 72.4152L219.088 72.6086C219.85 72.617 220.439 73.278 220.361 74.0357Z" fill="url(#paint5_linear_10_134)"/>
<path d="M136.912 238.724C136.566 241.953 133.716 244.321 130.479 244.068L84.0473 240.441C80.6616 240.177 78.17 237.157 78.5528 233.783L85.1245 175.856C85.4816 172.709 88.2244 170.381 91.3883 170.54L137.582 172.869C141.024 173.043 143.613 176.073 143.246 179.5L136.912 238.724Z" fill="white"/>
<path d="M205.007 244.006C204.684 247.255 201.824 249.649 198.569 249.395L149.061 245.525C145.692 245.261 143.205 242.269 143.562 238.909L149.908 179.166C150.244 176 152.996 173.647 156.176 173.808L205.41 176.292C208.834 176.465 211.417 179.466 211.078 182.877L205.007 244.006Z" fill="white"/>
<path d="M96.788 151.909C96.788 154.963 94.5446 157.684 92.0235 157.684H4.62005C2.09901 157.684 0 154.963 0 151.909V98.4788C0 95.4247 2.11012 93.1591 4.62005 93.1591H92.0235C94.5446 93.1591 96.788 95.4358 96.788 98.4788V151.909Z" fill="#11A2FB"/>
<path d="M99.209 98.479V151.91C99.209 153.953 98.3094 155.863 96.9434 156.852C96.277 157.34 95.5107 157.685 94.6889 157.685H7.27427C4.75323 157.685 2.40988 154.964 2.40988 151.91V98.479C2.40988 95.4249 4.75323 93.1482 7.27427 93.1482H94.6777C97.1988 93.1593 99.209 95.4249 99.209 98.479Z" fill="url(#paint6_linear_10_134)"/>
<path d="M85.4377 147.667L68.4901 123.8C68.3235 123.556 68.0348 123.412 67.7238 123.412C67.4128 123.412 67.1241 123.556 66.9575 123.8L57.2065 137.516L41.2473 115.038C41.0807 114.794 40.792 114.649 40.481 114.649C40.1701 114.649 39.8813 114.794 39.7147 115.038L16.5478 147.656C16.359 147.922 16.3479 148.367 16.5034 148.644C16.6588 148.922 16.9809 149.2 17.3141 149.2H49.0659H65.3582H84.6714C85.0157 149.2 85.3267 148.922 85.4821 148.644C85.6376 148.378 85.6154 147.934 85.4377 147.667Z" fill="white"/>
<path d="M65.6689 116.137C69.7047 116.137 72.9763 112.865 72.9763 108.83C72.9763 104.794 69.7047 101.522 65.6689 101.522C61.6332 101.522 58.3615 104.794 58.3615 108.83C58.3615 112.865 61.6332 116.137 65.6689 116.137Z" fill="white"/>
<g opacity="0.3">
<path d="M96.9545 156.852C96.2881 157.34 95.5107 157.685 94.6778 157.685H7.27427C4.75323 157.685 2.40988 154.964 2.40988 151.91V98.479C2.40988 95.4249 4.75323 93.1482 7.27427 93.1482H8.15164C9.7731 95.9691 11.7944 99.7895 14.2932 103.166C37.2158 134.129 73.4655 125.2 94.4001 153.22C95.3552 154.486 96.1993 155.686 96.9545 156.852Z" fill="url(#paint7_linear_10_134)"/>
</g>
<defs>
<linearGradient id="paint0_linear_10_134" x1="117.648" y1="0" x2="117.648" y2="213.866" gradientUnits="userSpaceOnUse">
<stop stop-color="#52DA8A"/>
<stop offset="1" stop-color="#156737"/>
</linearGradient>
<radialGradient id="paint1_radial_10_134" cx="0" cy="0" r="1" gradientUnits="userSpaceOnUse" gradientTransform="translate(103.019 34.1849) scale(157.429 437.428)">
<stop stop-color="#96FFC1"/>
<stop offset="0.360564" stop-color="#52DA8A"/>
<stop offset="0.611623" stop-color="#11A2FD"/>
<stop offset="0.767637" stop-color="#31B1FF"/>
<stop offset="0.953125" stop-color="#009EFF"/>
</radialGradient>
<radialGradient id="paint2_radial_10_134" cx="0" cy="0" r="1" gradientUnits="userSpaceOnUse" gradientTransform="translate(97.1755 34.1441) scale(158.106 437.526)">
<stop stop-color="#96FFC1"/>
<stop offset="0.360564" stop-color="#52DA8A"/>
<stop offset="0.611623" stop-color="#11A2FD"/>
<stop offset="0.767637" stop-color="#31B1FF"/>
<stop offset="0.953125" stop-color="#009EFF"/>
</radialGradient>
<radialGradient id="paint3_radial_10_134" cx="0" cy="0" r="1" gradientUnits="userSpaceOnUse" gradientTransform="translate(279.51 238.009) rotate(-133.747) scale(274.787 663.787)">
<stop stop-color="#96FFC1"/>
<stop offset="0.360564" stop-color="#52DA8A"/>
<stop offset="0.611623" stop-color="#11A2FD"/>
<stop offset="0.767637" stop-color="#31B1FF"/>
<stop offset="0.953125" stop-color="#009EFF"/>
</radialGradient>
<radialGradient id="paint4_radial_10_134" cx="0" cy="0" r="1" gradientUnits="userSpaceOnUse" gradientTransform="translate(106.326 46.0105) scale(125.175 30.5848)">
<stop stop-color="#96FFC1"/>
<stop offset="0.360564" stop-color="#52DA8A"/>
<stop offset="0.611623" stop-color="#11A2FD"/>
<stop offset="0.767637" stop-color="#31B1FF"/>
<stop offset="0.953125" stop-color="#009EFF"/>
</radialGradient>
<linearGradient id="paint5_linear_10_134" x1="200.19" y1="73.8025" x2="220.498" y2="73.8025" gradientUnits="userSpaceOnUse">
<stop stop-color="#13A3F7"/>
<stop offset="1" stop-color="#50D88D"/>
</linearGradient>
<linearGradient id="paint6_linear_10_134" x1="2.33268" y1="125.312" x2="99.1653" y2="125.312" gradientUnits="userSpaceOnUse">
<stop stop-color="#13A3F7"/>
<stop offset="1" stop-color="#50D88D"/>
</linearGradient>
<linearGradient id="paint7_linear_10_134" x1="2.33448" y1="125.312" x2="96.9118" y2="125.312" gradientUnits="userSpaceOnUse">
<stop stop-color="#13A3F7"/>
<stop offset="1" stop-color="#50D88D"/>
</linearGradient>
</defs>
</svg>
