<svg width="318" height="300" viewBox="0 0 318 300" fill="none" xmlns="http://www.w3.org/2000/svg">
<path opacity="0.5" d="M203.914 124.289L205.211 130.953C202.307 132.099 199.532 133.481 196.929 135.089L192.482 129.978C191.271 128.585 189.15 128.456 187.757 129.689L179.004 137.403C177.6 138.635 177.45 140.767 178.661 142.171L183.15 147.346C181.221 149.767 179.496 152.36 178.007 155.081L171.514 152.874C169.768 152.274 167.85 153.239 167.239 155.006L163.404 166.128C162.793 167.906 163.714 169.846 165.471 170.446L171.986 172.674C171.504 175.717 171.289 178.835 171.332 181.985L164.507 183.378C162.675 183.753 161.475 185.553 161.818 187.406L163.982 199.031C164.325 200.896 166.104 202.096 167.936 201.731L174.771 200.339C175.875 203.296 177.214 206.124 178.779 208.781L173.518 213.453C172.104 214.717 171.943 216.903 173.164 218.328L180.836 227.317C182.068 228.753 184.211 228.903 185.636 227.628L190.896 222.935C193.307 224.917 195.889 226.685 198.6 228.206L196.339 234.935C195.729 236.756 196.671 238.739 198.45 239.349L209.604 243.217C211.393 243.839 213.332 242.853 213.943 241.031L216.171 234.356C219.225 234.839 222.354 235.042 225.525 234.978L226.875 241.889C227.239 243.785 229.05 245.006 230.893 244.631L242.475 242.274C244.329 241.899 245.529 240.056 245.154 238.171L243.793 231.324C246.761 230.156 249.589 228.753 252.246 227.103L256.757 232.31C258.011 233.756 260.175 233.896 261.589 232.631L270.418 224.692C271.832 223.428 271.95 221.231 270.696 219.785L266.196 214.621C268.157 212.124 269.893 209.456 271.393 206.649L277.8 208.835C279.589 209.446 281.518 208.471 282.107 206.66L285.782 195.356C286.372 193.556 285.396 191.596 283.607 190.996L277.264 188.842C277.714 185.724 277.886 182.542 277.789 179.328L284.336 177.999C286.168 177.624 287.347 175.814 286.961 173.96L284.561 162.389C284.175 160.546 282.386 159.346 280.554 159.721L274.029 161.049C272.861 158.071 271.457 155.242 269.829 152.585L274.779 148.171C276.172 146.928 276.289 144.785 275.057 143.381L267.311 134.617C266.079 133.214 263.946 133.085 262.554 134.328L257.582 138.742C255.139 136.803 252.536 135.067 249.804 133.589L251.925 127.246C252.514 125.478 251.561 123.571 249.804 122.981L238.811 119.296C237.054 118.706 235.147 119.66 234.557 121.417L232.414 127.781C229.393 127.331 226.297 127.16 223.168 127.256L221.861 120.646C221.497 118.824 219.739 117.656 217.918 118.021L206.561 120.335C204.739 120.699 203.561 122.467 203.914 124.289ZM190.961 187.492C187.393 168.796 199.436 150.689 217.854 146.928C236.271 143.167 254.239 155.167 258.022 173.821C261.814 192.581 249.825 210.956 231.204 214.76C212.571 218.553 194.55 206.306 190.961 187.492Z" fill="#11A2FB"/>
<path opacity="0.5" d="M262.897 94.46L263.282 96.4208C262.425 96.7636 261.611 97.16 260.85 97.6422L259.543 96.1422C259.189 95.735 258.568 95.6922 258.15 96.0565L255.579 98.3279C255.172 98.6922 255.118 99.3136 255.482 99.7315L256.8 101.253C256.232 101.971 255.729 102.731 255.289 103.524L253.382 102.871C252.868 102.699 252.3 102.978 252.129 103.503L251.004 106.771C250.822 107.296 251.1 107.864 251.614 108.035L253.532 108.689C253.393 109.589 253.329 110.499 253.339 111.431L251.336 111.839C250.8 111.946 250.446 112.481 250.543 113.028L251.175 116.446C251.282 116.992 251.797 117.346 252.343 117.239L254.357 116.831C254.679 117.699 255.075 118.535 255.536 119.317L253.993 120.689C253.575 121.064 253.532 121.706 253.886 122.124L256.147 124.771C256.511 125.199 257.143 125.231 257.561 124.867L259.104 123.485C259.811 124.064 260.572 124.589 261.364 125.039L260.7 127.021C260.518 127.556 260.796 128.135 261.321 128.317L264.6 129.453C265.125 129.635 265.693 129.346 265.875 128.81L266.529 126.849C267.429 126.989 268.35 127.053 269.282 127.031L269.679 129.067C269.786 129.624 270.321 129.989 270.857 129.871L274.264 129.174C274.811 129.067 275.164 128.521 275.046 127.964L274.65 125.949C275.518 125.606 276.354 125.189 277.136 124.706L278.464 126.239C278.829 126.667 279.471 126.71 279.889 126.335L282.482 123.999C282.9 123.624 282.932 122.981 282.568 122.553L281.25 121.031C281.829 120.292 282.343 119.51 282.782 118.685L284.668 119.328C285.193 119.51 285.761 119.221 285.932 118.685L287.014 115.364C287.186 114.828 286.896 114.26 286.371 114.078L284.507 113.446C284.636 112.524 284.689 111.592 284.657 110.649L286.586 110.253C287.121 110.146 287.475 109.61 287.357 109.064L286.65 105.656C286.543 105.11 286.007 104.767 285.472 104.874L283.554 105.271C283.211 104.392 282.793 103.556 282.321 102.785L283.779 101.489C284.186 101.124 284.229 100.492 283.864 100.085L281.582 97.5029C281.218 97.0958 280.596 97.0529 280.179 97.4172L278.711 98.7243C277.993 98.1565 277.232 97.6422 276.418 97.2029L277.039 95.3386C277.211 94.8243 276.932 94.2565 276.418 94.085L273.182 93.0029C272.668 92.8315 272.111 93.11 271.929 93.6243L271.296 95.4993C270.407 95.3708 269.497 95.3172 268.575 95.3493L268.189 93.41C268.082 92.8743 267.568 92.5315 267.032 92.6386L263.689 93.3243C263.143 93.3993 262.789 93.9243 262.897 94.46ZM259.093 113.039C258.043 107.542 261.589 102.217 267 101.114C272.411 100.01 277.704 103.535 278.807 109.021C279.922 114.539 276.396 119.939 270.921 121.064C265.446 122.178 260.143 118.578 259.093 113.039Z" fill="#11A2FB"/>
<path d="M117.236 191.017C121.157 179.071 125.154 160.824 120.472 140.564C115.104 117.303 103.221 112.653 92.5501 87.7852C77.3143 52.2888 94.5536 26.5852 78.7822 15.7316C71.0893 10.4388 58.9929 10.4388 51.5358 15.753C30.2572 30.903 36.0965 96.9031 69.8465 122.66C85.1144 134.307 98.4322 132.924 109.886 147.999C120.022 161.317 119.218 178.889 117.236 191.017Z" fill="url(#paint0_linear_10_1937)"/>
<path d="M119.625 160.942C118.35 155.917 116.625 150.978 114.514 146.264C109.661 135.432 104.304 129.464 97.5216 121.921C93.0966 116.992 88.0716 111.41 82.2752 103.407C71.4216 88.4281 68.0573 83.1674 65.0466 74.6924C59.0788 57.9138 59.9895 42.8709 61.0716 35.3924C62.6038 24.7852 66.1609 14.7031 71.6466 5.40308L71.9788 5.59593C66.5145 14.8531 62.9788 24.8924 61.4573 35.4459C60.3859 42.8817 59.4752 57.8602 65.4109 74.5638C68.4109 82.9959 71.7645 88.2459 82.5966 103.182C88.3823 111.164 93.3966 116.746 97.8109 121.664C104.614 129.239 109.993 135.217 114.868 146.103C116.989 150.839 118.714 155.8 120 160.846L119.625 160.942Z" fill="white"/>
<path d="M62.1323 62.8424L61.8538 62.6924C61.7895 62.6603 55.4895 59.1995 49.8966 52.1495C44.7323 45.646 39.1073 34.6638 41.7109 19.2888L42.0859 19.3531C39.5145 34.5781 45.0752 45.4638 50.1966 51.9031C55.0823 58.0531 60.4931 61.4495 61.7681 62.1888C62.1216 49.9103 69.9859 41.9603 76.5645 37.4388C83.7323 32.4995 90.9538 30.4853 91.0181 30.4638L91.1252 30.8281C91.0502 30.8495 83.8931 32.8531 76.7788 37.7603C70.2323 42.271 62.3681 50.2317 62.1538 62.521L62.1323 62.8424Z" fill="white"/>
<path d="M63.9323 102.314C57.5573 102.314 50.068 100.75 43.1573 95.371L43.393 95.071C58.9073 107.146 77.368 99.7852 79.2002 99.0031C76.0609 86.8852 78.8359 77.9388 81.7288 72.571C84.868 66.721 88.8323 63.7102 88.8752 63.6781L89.1002 63.9888C89.0573 64.021 85.1573 66.9888 82.0609 72.7745C79.2002 78.1102 76.4573 87.0031 79.6181 99.0781L79.6609 99.2388L79.5109 99.3031C79.3823 99.3353 72.718 102.314 63.9323 102.314Z" fill="white"/>
<path d="M78.1395 125.435C73.3609 125.435 67.6395 124.567 60.9859 122.135L61.1145 121.771C82.9181 129.742 94.5645 120.817 95.7645 119.821C90.4609 107.403 97.9288 87.3246 98.0038 87.1317L98.3573 87.271C98.2823 87.4746 90.8145 107.542 96.1609 119.81L96.2145 119.939L96.1181 120.035C96.0431 120.1 89.9895 125.435 78.1395 125.435Z" fill="white"/>
<path d="M124.061 176.596C125.304 169.075 126.021 157.321 119.893 146.81C109.211 128.478 89.7321 134.553 71.0893 114.914C56.0571 99.0674 60.7929 86.7567 44.1321 76.2353C41.3464 74.4781 26.6036 64.771 15.6536 70.621C9.48213 73.9103 7.24284 80.671 6.82499 81.9353C0.48213 101.103 20.0036 131.125 45.4607 144.85C60.0857 152.735 64.8 150.164 90.5357 159.357C105.654 164.767 117 171.732 124.061 176.596Z" fill="url(#paint1_linear_10_1937)"/>
<path d="M126.204 185.66C122.475 167.767 115.436 155.767 105.257 149.96C100.296 147.132 96.3214 146.682 92.1214 146.21C87.5357 145.696 82.7893 145.149 76.5107 141.357C70.4036 137.66 68.2179 134.114 65.4536 129.624C63 125.639 59.9357 120.667 53.0786 114.057C47.0679 108.26 42.6857 105.549 38.8179 103.149C34.5857 100.524 31.2429 98.4566 27.3643 93.378C21.0429 85.0959 17.7429 74.478 17.55 61.8352L17.9357 61.8245C18.1286 74.3923 21.4071 84.9245 27.675 93.1423C31.5107 98.1673 34.8321 100.224 39.0214 102.828C42.9 105.228 47.3036 107.96 53.3464 113.778C60.2357 120.421 63.3107 125.414 65.775 129.421C68.5179 133.867 70.6714 137.382 76.7036 141.024C82.9072 144.774 87.6107 145.31 92.1643 145.824C96.4072 146.307 100.414 146.757 105.439 149.628C115.714 155.478 122.829 167.575 126.579 185.575L126.204 185.66Z" fill="white"/>
<path d="M39.0429 104.264C25.9714 104.264 16.2107 99.2495 10.2429 94.9531C3.525 90.1102 0.0321429 85.0959 0 85.0423L0.310714 84.8281C0.342857 84.8816 3.80357 89.8531 10.4786 94.6531C16.5964 99.0566 26.7214 104.21 40.35 103.867C39.5357 101.232 32.7107 78.1638 41.5393 68.2531L41.8286 68.5102C32.6572 78.8066 40.7143 103.739 40.8 103.985L40.875 104.232L40.6179 104.242C40.0822 104.253 39.5572 104.264 39.0429 104.264Z" fill="white"/>
<path d="M38.0357 125.532C29.6679 125.532 19.0071 123.807 8.30357 117.389L8.49643 117.057C21.8143 125.039 35.0679 125.703 43.8536 124.857C52.5643 124.021 58.6929 121.567 59.7214 121.139C56.175 108.057 59.3357 89.6173 59.3679 89.4352L59.7429 89.4995C59.7107 89.6816 56.5393 108.196 60.1286 121.192L60.1714 121.353L60.0214 121.417C59.9571 121.449 53.4643 124.31 43.8857 125.232C42.1179 125.424 40.1464 125.532 38.0357 125.532Z" fill="white"/>
<path d="M49.3821 155.896C48.7393 155.896 48.0964 155.885 47.4536 155.875L47.4643 155.489C60.8357 155.778 71.1321 153.003 77.4107 150.614C83.4107 148.332 86.9893 145.975 87.7821 145.439C77.9679 133.235 81.8143 113.328 81.8464 113.125L82.2214 113.2C82.1786 113.403 78.3429 133.31 88.2 145.353L88.3286 145.514L88.1679 145.632C88.0286 145.739 73.9179 155.896 49.3821 155.896Z" fill="white"/>
<path d="M124.318 170.21C120.129 167.199 113.282 162.849 104.068 159.582C87.6857 153.774 80.175 157.203 73.2322 150.271C66.0536 143.103 70.7036 136.042 62.1107 128.028C61.3929 127.353 52.1572 118.974 43.8107 122.103C37.9714 124.289 35.6893 130.921 34.6286 134.039C30.4822 146.124 32.8929 164.532 45.7822 173.617C58.0072 182.232 73.4786 178.128 78.3964 176.789C87.0107 174.442 89.0572 171.078 97.8215 168.957C108.471 166.364 118.05 168.282 124.318 170.21Z" fill="url(#paint2_linear_10_1937)"/>
<path d="M317.647 274.867L15.4822 272.21V280.064C15.4822 282.196 16.8001 284.007 18.5894 284.339L104.036 299.81C105.054 299.992 106.082 300.046 107.1 299.96L314.357 282.314C316.211 282.153 317.636 280.342 317.636 278.146V274.867H317.647Z" fill="url(#paint3_linear_10_1937)"/>
<path d="M207.986 262.128L18.6 276.507C15.2143 276.764 12.4607 274.032 12.4607 270.399V124.974C12.4607 121.342 15.2143 118.406 18.6 118.406H207.986C210.782 118.406 213.032 121.064 213.032 124.353V255.817C213.032 259.085 210.782 261.914 207.986 262.128Z" fill="url(#paint4_linear_10_1937)"/>
<path d="M211.007 262.128L21.6215 276.507C18.2358 276.764 15.4822 274.032 15.4822 270.399V124.974C15.4822 121.342 18.2358 118.406 21.6215 118.406H211.007C213.804 118.406 216.054 121.064 216.054 124.353V255.817C216.054 259.085 213.804 261.914 211.007 262.128Z" fill="#0E79BB"/>
<path d="M205.104 252.86L28.7144 265.353C25.9608 265.546 23.7108 263.306 23.7108 260.339V133.021C23.7108 130.053 25.9501 127.642 28.7144 127.631L205.104 126.849C207.407 126.839 209.272 129.014 209.272 131.714V247.674C209.272 250.374 207.407 252.699 205.104 252.86Z" fill="url(#paint5_linear_10_1937)"/>
<path d="M123 122.382C123 123.732 122.025 124.835 120.825 124.835C119.625 124.835 118.639 123.742 118.639 122.392C118.639 121.042 119.614 119.939 120.825 119.939C122.025 119.939 123 121.032 123 122.382Z" fill="white"/>
<path d="M218.55 261.475L15.4822 276.614L104.025 292.653C105.043 292.835 106.072 292.889 107.089 292.803L317.647 274.878L221.786 261.592C220.714 261.432 219.632 261.4 218.55 261.475Z" fill="url(#paint6_radial_10_1937)"/>
<path opacity="0.3" d="M45.1072 276.989L214.179 264.207L266.507 271.396L98.8929 285.067L45.1072 276.989Z" fill="url(#paint7_linear_10_1937)"/>
<g opacity="0.75">
<path d="M59.7001 137.628L40.2751 137.703V131.414H59.7001V137.628Z" fill="white"/>
<path d="M161.475 137.274L72.043 137.585V131.414H161.475V137.274Z" fill="white"/>
<path d="M90.793 147.956L72.043 148.139V141.956L90.793 141.849V147.956Z" fill="white"/>
<path d="M189.139 147.024L102.697 147.849V141.774L189.139 141.26V147.024Z" fill="white"/>
<path d="M90.793 158.392L72.043 158.682V152.51L90.793 152.285V158.392Z" fill="white"/>
<path d="M189.139 156.881L102.697 158.21V152.146L189.139 151.106V156.881Z" fill="white"/>
<path d="M59.7001 169.492L40.2751 169.91V163.621L59.7001 163.278V169.492Z" fill="white"/>
<path d="M161.475 167.317L72.043 169.235V163.053L161.475 161.456V167.317Z" fill="white"/>
<path d="M90.793 179.264L72.043 179.778V173.606L90.793 173.156V179.264Z" fill="white"/>
<path d="M189.139 176.574L102.697 178.942V172.867L189.139 170.81V176.574Z" fill="white"/>
<path d="M90.793 189.699L72.043 190.321V184.149L90.793 183.592V189.699Z" fill="white"/>
<path d="M189.139 186.421L102.697 189.303V183.239L189.139 180.656V186.421Z" fill="white"/>
<path d="M90.793 200.135L72.043 200.874V194.703L90.793 194.028V200.135Z" fill="white"/>
<path d="M189.139 196.278L102.697 199.674V193.599L189.139 190.514V196.278Z" fill="white"/>
<path d="M121.093 209.199L102.986 210.024V203.949L121.093 203.199V209.199Z" fill="white"/>
<path d="M202.339 205.524L132.589 208.685V202.717L202.339 199.803V205.524Z" fill="white"/>
<path d="M59.7001 222.603L40.2751 223.599V217.31L59.7001 216.378V222.603Z" fill="white"/>
<path d="M161.475 217.385L72.043 221.971V215.799L161.475 211.524V217.385Z" fill="white"/>
<path d="M90.793 231.442L72.043 232.514V226.342L90.793 225.335V231.442Z" fill="white"/>
<path d="M189.139 225.828L102.697 230.767V224.692L189.139 220.053V225.828Z" fill="white"/>
<path d="M90.793 241.878L72.043 243.067V236.885L90.793 235.771V241.878Z" fill="white"/>
<path d="M189.139 235.674L102.697 241.128V235.064L189.139 229.91V235.674Z" fill="white"/>
<path d="M59.7001 254.467L40.2751 255.806V249.517L59.7001 248.242V254.467Z" fill="white"/>
<path d="M161.475 247.439L72.043 253.61V247.439L161.475 241.567V247.439Z" fill="white"/>
</g>
<path d="M229.286 46.5562L63.9643 41.124C58.425 40.9419 53.9035 45.3133 53.9035 50.8954V212.028C53.9035 217.61 58.4143 221.938 63.9643 221.703L229.286 214.642C234.064 214.438 237.932 210.099 237.932 204.945V56.1669C237.932 51.0133 234.075 46.7169 229.286 46.5562Z" fill="url(#paint8_radial_10_1937)"/>
<path opacity="0.74" d="M63.9643 218.489C60.1928 218.649 57.1285 215.703 57.1285 211.91V50.9814C57.1285 47.1886 60.1928 44.21 63.9643 44.3278L229.286 49.535C232.543 49.6421 235.179 52.5671 235.179 56.0707V205.031C235.179 208.546 232.543 211.492 229.286 211.631L63.9643 218.489Z" fill="white"/>
<path d="M229.286 46.5562L63.9643 41.124C58.425 40.9419 53.9035 45.3133 53.9035 50.8954V58.1383L237.932 62.8526V56.1669C237.932 51.0133 234.075 46.7169 229.286 46.5562Z" fill="url(#paint9_radial_10_1937)"/>
<path d="M71.7857 50.435C71.7857 52.2457 70.3285 53.6707 68.5285 53.6279C66.7178 53.5743 65.2607 52.0636 65.2607 50.2422C65.2607 48.4207 66.7285 46.9957 68.5285 47.0493C70.3285 47.1136 71.7857 48.6243 71.7857 50.435Z" fill="white"/>
<path d="M83.175 50.7671C83.175 52.5671 81.7285 53.9921 79.95 53.9386C78.1607 53.885 76.7142 52.385 76.7142 50.5743C76.7142 48.7636 78.1607 47.3493 79.95 47.4028C81.7285 47.4564 83.175 48.9564 83.175 50.7671Z" fill="white"/>
<path d="M94.4464 51.0885C94.4464 52.8885 93.0107 54.3028 91.2429 54.2492C89.475 54.1956 88.0393 52.7063 88.0393 50.9063C88.0393 49.1063 89.475 47.692 91.2429 47.7456C93.0107 47.7992 94.4464 49.2992 94.4464 51.0885Z" fill="white"/>
<path d="M152.957 78.3028L65.625 76.7278V81.8599L152.957 83.2421V78.3028Z" fill="white"/>
<path d="M218.603 79.4813V84.2813L227.839 84.4313V79.642L218.603 79.4813Z" fill="white"/>
<path d="M84.0857 94.4278L65.625 94.2243V88.9314L84.0857 89.1671V94.4278Z" fill="white"/>
<path d="M182.721 95.4779L95.8713 94.5457V89.3171L182.721 90.4421V95.4779Z" fill="white"/>
<path d="M113.871 103.599L95.8713 103.481V98.2528L113.871 98.4135V103.599Z" fill="white"/>
<path d="M210.086 104.264L125.368 103.685V98.5208L210.086 99.2815V104.264Z" fill="white"/>
<path d="M113.871 112.46L95.8713 112.406V107.178L113.871 107.274V112.46Z" fill="white"/>
<path d="M210.086 112.76L125.368 112.503V107.339L210.086 107.788V112.76Z" fill="white"/>
<path d="M84.0856 121.342L65.6249 121.353V116.06L84.0856 116.092V121.342Z" fill="white"/>
<path d="M182.721 121.278L95.8713 121.331V116.114L182.721 116.242V121.278Z" fill="white"/>
<path d="M113.871 130.181L95.8713 130.267V125.039L113.871 124.996V130.181Z" fill="white"/>
<path d="M210.086 129.753L125.368 130.139V124.974L210.086 124.781V129.753Z" fill="white"/>
<path d="M113.871 139.042L95.8713 139.192V133.963L113.871 133.856V139.042Z" fill="white"/>
<path d="M210.086 138.249L125.368 138.956V133.792L210.086 133.278V138.249Z" fill="white"/>
<path d="M113.871 147.903L95.8713 148.128V142.899L113.871 142.717V147.903Z" fill="white"/>
<path d="M210.086 146.746L125.368 147.774V142.61L210.086 141.774V146.746Z" fill="white"/>
<path d="M143.196 156.303L125.646 156.581V151.417L143.196 151.181V156.303Z" fill="white"/>
<path d="M223.232 155.038L154.403 156.131V151.031L223.232 150.088V155.038Z" fill="white"/>
<path d="M84.0856 166.214L65.6249 166.578V161.285L84.0856 160.964V166.214Z" fill="white"/>
<path d="M182.721 164.274L95.8713 165.989V160.76L182.721 159.239V164.274Z" fill="white"/>
<path d="M113.871 174.496L95.8713 174.914V169.685L113.871 169.299V174.496Z" fill="white"/>
<path d="M210.086 172.235L125.368 174.217V169.063L210.086 167.263V172.235Z" fill="white"/>
<path d="M113.871 183.356L95.8713 183.839V178.621L113.871 178.171V183.356Z" fill="white"/>
<path d="M210.086 180.731L125.368 183.035V177.881L210.086 175.76V180.731Z" fill="white"/>
<path d="M84.0856 193.138L65.6249 193.706V188.413L84.0856 187.888V193.138Z" fill="white"/>
<path d="M182.721 190.074L95.8713 192.774V187.546L182.721 185.049V190.074Z" fill="white"/>
<path d="M113.871 201.078L95.8713 201.699V196.471L113.871 195.892V201.078Z" fill="white"/>
<path d="M210.086 197.724L125.368 200.671V195.517L210.086 192.753V197.724Z" fill="white"/>
<path d="M271.125 102.667C271.157 90.678 259.114 81.5065 245.507 82.1494C238.104 82.503 231.868 85.7172 228.064 90.3137C228.043 90.3458 228.022 90.3672 228 90.3994C227.936 90.4744 227.872 90.5601 227.807 90.6351C227.689 90.7851 227.572 90.9244 227.464 91.0744C227.4 91.1601 227.336 91.2565 227.272 91.3422C227.164 91.4922 227.057 91.6422 226.961 91.7922C226.907 91.878 226.843 91.9637 226.789 92.0494C226.672 92.2208 226.564 92.403 226.457 92.5744C226.414 92.6387 226.382 92.703 226.339 92.7672C226.2 93.003 226.061 93.2494 225.932 93.4958C225.9 93.5601 225.868 93.6244 225.836 93.6887C225.739 93.8708 225.654 94.0637 225.557 94.2458C225.514 94.3422 225.472 94.428 225.429 94.5244C225.354 94.6851 225.279 94.8565 225.214 95.028C225.172 95.1244 225.139 95.2208 225.097 95.3172C225.032 95.4887 224.968 95.6601 224.904 95.8422C224.872 95.9387 224.839 96.0244 224.807 96.1208C224.732 96.3458 224.668 96.5601 224.604 96.7851C224.593 96.828 224.572 96.8815 224.561 96.9244C224.486 97.1922 224.422 97.4601 224.357 97.7387C224.336 97.8244 224.325 97.8994 224.304 97.9851C224.261 98.1779 224.229 98.3815 224.186 98.5744C224.164 98.6708 224.154 98.778 224.143 98.8744C224.111 99.0565 224.089 99.2387 224.068 99.4315C224.057 99.5387 224.047 99.6351 224.036 99.7422C224.014 99.9351 224.004 100.128 223.993 100.332C223.982 100.428 223.982 100.514 223.972 100.61C223.961 100.899 223.95 101.189 223.95 101.478C223.972 108.399 228.257 114.742 234.825 118.46C235.436 118.803 236.068 119.135 236.722 119.435C237.054 119.585 237.386 119.735 237.718 119.874C240.107 120.86 242.732 121.524 245.518 121.803C245.904 121.846 246.289 121.867 246.675 121.889C246.804 121.899 246.932 121.899 247.061 121.899C247.318 121.91 247.575 121.921 247.822 121.921C247.982 121.921 248.132 121.921 248.282 121.921C248.507 121.921 248.743 121.921 248.968 121.91C249.129 121.91 249.3 121.899 249.461 121.889C249.675 121.878 249.889 121.867 250.104 121.857C250.275 121.846 250.447 121.835 250.618 121.814C250.822 121.792 251.036 121.782 251.239 121.749C251.411 121.728 251.582 121.707 251.754 121.685C251.957 121.664 252.161 121.632 252.354 121.599C252.525 121.578 252.697 121.546 252.868 121.514C253.072 121.482 253.264 121.439 253.457 121.407C253.629 121.374 253.8 121.342 253.961 121.299C254.025 121.289 254.089 121.278 254.154 121.257C263.829 119.146 271.104 111.892 271.125 102.667Z" fill="#11A2FB"/>
<path d="M268.393 102.474C268.361 114.324 256.543 122.767 243.225 121.471C231.096 120.292 222.011 111.324 221.968 101.328C221.936 91.31 231 82.7278 243.193 82.1386C256.586 81.4957 268.425 90.5814 268.393 102.474Z" fill="url(#paint10_linear_10_1937)"/>
<path d="M235.243 97.8136C234.429 97.8029 233.797 98.1351 233.347 98.8101C232.907 99.4851 232.682 100.417 232.693 101.628C232.704 104.135 233.55 105.421 235.254 105.496C235.982 105.528 236.861 105.356 237.9 104.992V107.028C237.043 107.381 236.089 107.531 235.05 107.478C233.561 107.403 232.436 106.856 231.664 105.839C230.893 104.821 230.507 103.396 230.507 101.553C230.507 100.396 230.689 99.3779 231.064 98.5101C231.439 97.6422 231.986 96.9672 232.693 96.5065C233.411 96.0351 234.257 95.8101 235.232 95.8101C236.239 95.8101 237.257 96.0886 238.286 96.6243L237.568 98.5958C237.172 98.3922 236.786 98.21 236.389 98.0493C236.004 97.8993 235.618 97.8136 235.243 97.8136Z" fill="white"/>
<path d="M247.404 104.596C247.404 105.667 247.04 106.503 246.311 107.081C245.582 107.66 244.586 107.928 243.311 107.864C242.154 107.81 241.136 107.531 240.247 107.028V104.746C240.975 105.121 241.586 105.389 242.09 105.549C242.593 105.71 243.065 105.806 243.482 105.817C243.997 105.839 244.382 105.753 244.661 105.549C244.94 105.346 245.068 105.046 245.068 104.628C245.068 104.392 245.004 104.189 244.886 104.006C244.768 103.824 244.586 103.642 244.35 103.471C244.115 103.299 243.643 103.021 242.925 102.635C242.261 102.281 241.768 101.949 241.436 101.628C241.104 101.317 240.847 100.953 240.643 100.535C240.45 100.128 240.354 99.6458 240.343 99.0993C240.343 98.0708 240.665 97.2672 241.307 96.6886C241.95 96.0993 242.85 95.8101 244.018 95.8101C244.586 95.8101 245.143 95.8851 245.668 96.0351C246.193 96.1851 246.75 96.3886 247.329 96.6565L246.557 98.6065C245.957 98.3386 245.465 98.1565 245.079 98.0493C244.693 97.9422 244.318 97.8886 243.943 97.8886C243.504 97.8886 243.161 97.985 242.936 98.21C242.7 98.4243 242.582 98.7136 242.582 99.0672C242.582 99.2815 242.625 99.4743 242.722 99.6458C242.818 99.8065 242.968 99.9672 243.172 100.128C243.375 100.289 243.868 100.567 244.65 100.985C245.69 101.531 246.397 102.078 246.793 102.624C247.2 103.171 247.404 103.824 247.404 104.596Z" fill="white"/>
<path d="M257.218 104.939C257.218 106.053 256.822 106.91 256.04 107.51C255.268 108.11 254.186 108.378 252.825 108.314C251.582 108.26 250.49 107.96 249.547 107.435V105.078C250.318 105.464 250.982 105.742 251.518 105.914C252.065 106.085 252.557 106.181 253.018 106.192C253.565 106.214 253.982 106.117 254.282 105.914C254.572 105.71 254.722 105.389 254.722 104.96C254.722 104.724 254.657 104.51 254.529 104.317C254.4 104.124 254.207 103.942 253.961 103.76C253.715 103.578 253.2 103.289 252.44 102.892C251.732 102.528 251.197 102.174 250.843 101.853C250.49 101.531 250.211 101.146 249.997 100.728C249.782 100.299 249.686 99.8065 249.686 99.2493C249.686 98.1886 250.029 97.3529 250.725 96.7529C251.422 96.1422 252.386 95.8422 253.629 95.8422C254.24 95.8422 254.829 95.9172 255.397 96.0779C255.965 96.2279 256.554 96.4422 257.175 96.7207L256.35 98.7457C255.707 98.4672 255.182 98.2743 254.765 98.1672C254.347 98.06 253.94 97.9957 253.543 97.9957C253.072 97.9957 252.707 98.1029 252.461 98.3279C252.215 98.5529 252.086 98.8422 252.086 99.2065C252.086 99.4315 252.14 99.635 252.236 99.7957C252.332 99.9672 252.493 100.128 252.718 100.289C252.943 100.449 253.468 100.749 254.304 101.178C255.418 101.746 256.179 102.314 256.597 102.881C257.015 103.449 257.218 104.135 257.218 104.939Z" fill="white"/>
<g opacity="0.3">
<path d="M248.925 116.928C246.064 110.853 248.957 105.485 245.089 101.564C241.264 97.6851 236.464 101.103 231.482 98.0172C229.607 96.8601 227.539 94.6744 226.018 90.2386C223.447 93.3672 221.957 97.1922 221.979 101.328C222.011 111.324 231.107 120.292 243.236 121.471C246.172 121.76 249.054 121.567 251.743 120.957C250.393 119.564 249.514 118.192 248.925 116.928Z" fill="url(#paint11_linear_10_1937)"/>
</g>
<path d="M300.118 54.2278C300.118 42.035 287.914 31.9421 273.418 31.685C265.189 31.5457 258.032 34.6207 253.575 39.4635C253.543 39.4957 253.522 39.5278 253.489 39.56C253.414 39.6457 253.339 39.7314 253.264 39.8171C253.125 39.9778 252.986 40.1278 252.857 40.2885C252.782 40.385 252.707 40.4814 252.622 40.5778C252.493 40.7385 252.375 40.8992 252.247 41.06C252.182 41.1564 252.107 41.2421 252.043 41.3385C251.904 41.5314 251.775 41.7135 251.647 41.9064C251.604 41.9814 251.55 42.0457 251.507 42.11C251.336 42.3671 251.175 42.635 251.025 42.9028C250.982 42.9778 250.95 43.0421 250.907 43.1171C250.789 43.3207 250.682 43.5243 250.575 43.7278C250.522 43.8243 250.479 43.9314 250.425 44.0278C250.339 44.21 250.254 44.3921 250.168 44.5742C250.125 44.6814 250.072 44.7885 250.029 44.8957C249.943 45.0885 249.868 45.2814 249.804 45.4743C249.761 45.5707 249.729 45.6778 249.686 45.7742C249.6 46.0207 249.514 46.2671 249.439 46.5135C249.429 46.5671 249.407 46.6207 249.386 46.6635C249.3 46.9635 249.214 47.2635 249.139 47.5635C249.118 47.6493 249.097 47.7457 249.075 47.8314C249.022 48.0457 248.979 48.2707 248.936 48.485C248.914 48.5921 248.893 48.71 248.882 48.8278C248.85 49.0314 248.818 49.235 248.786 49.4385C248.775 49.5564 248.754 49.6743 248.743 49.7814C248.722 49.9957 248.7 50.2207 248.689 50.435C248.679 50.5421 248.668 50.6385 248.668 50.7457C248.647 51.0671 248.636 51.3885 248.636 51.7207C248.636 59.4993 253.725 66.6243 261.375 70.6957C262.082 71.0707 262.8 71.4242 263.55 71.7457C263.925 71.9064 264.3 72.0564 264.686 72.2064C267.386 73.2457 270.322 73.9207 273.407 74.1671C273.836 74.1993 274.254 74.2207 274.682 74.2421C274.822 74.2528 274.961 74.2528 275.111 74.2528C275.389 74.2635 275.668 74.2635 275.947 74.2635C276.118 74.2635 276.279 74.2528 276.45 74.2528C276.697 74.2528 276.943 74.2421 277.189 74.2314C277.372 74.2207 277.543 74.21 277.725 74.1993C277.961 74.1885 278.186 74.1671 278.422 74.1564C278.604 74.1457 278.786 74.1242 278.968 74.1028C279.193 74.0814 279.418 74.06 279.632 74.0278C279.814 74.0064 279.997 73.985 280.189 73.9528C280.404 73.9207 280.618 73.8885 280.832 73.8564C281.014 73.8243 281.197 73.7921 281.379 73.76C281.593 73.7171 281.797 73.6743 282.011 73.6314C282.193 73.5885 282.375 73.5564 282.547 73.5135C282.611 73.5028 282.675 73.4814 282.75 73.4707C292.811 71.1135 300.118 63.6243 300.118 54.2278Z" fill="#11A2FB"/>
<path d="M296.529 54.1207C296.529 66.2493 284.443 75.1315 270.097 73.985C256.318 72.8922 245.561 62.9065 245.561 51.6457C245.561 40.385 256.329 31.4386 270.097 31.685C284.443 31.9422 296.529 41.9922 296.529 54.1207Z" fill="url(#paint12_linear_10_1937)"/>
<path d="M259.489 56.9493L257.647 56.8529V52.8671L254.229 52.6957V56.66L252.407 56.5636V47.4136L254.229 47.4886V51.0886L257.647 51.2493V47.6386L259.489 47.7136V56.9493Z" fill="white"/>
<path d="M265.725 57.2921L263.85 57.185V49.5243L261.461 49.4171V47.7778L268.157 48.0564V49.7064L265.736 49.5993V57.2921H265.725Z" fill="white"/>
<path d="M273.986 57.7528L271.8 50.2421H271.746C271.821 51.7528 271.864 52.7492 271.864 53.2528V57.6349L270.15 57.5385V48.1421L272.754 48.2492L274.907 55.5778H274.939L277.243 48.4421L279.911 48.5492V58.0742L278.089 57.9778V53.4778C278.089 53.2635 278.089 53.0171 278.1 52.7385C278.111 52.4599 278.132 51.7207 278.186 50.5314H278.132L275.764 57.8492L273.986 57.7528Z" fill="white"/>
<path d="M282.911 58.2457V48.6779L284.893 48.7636V56.6814L288.729 56.885V58.5779L282.911 58.2457Z" fill="white"/>
<g opacity="0.3">
<path d="M276.322 69.0457C273.204 62.5528 276.354 56.8528 272.154 52.5778C267.932 48.2921 262.532 51.8278 256.811 48.2814C254.625 46.9314 252.214 44.4242 250.425 39.4207C247.35 42.7742 245.539 46.9957 245.539 51.6457C245.539 62.9064 256.307 72.8921 270.075 73.9849C273.311 74.2421 276.439 73.9849 279.332 73.2992C277.918 71.8421 276.975 70.3957 276.322 69.0457Z" fill="url(#paint13_linear_10_1937)"/>
</g>
<path d="M244.639 19.5886C244.639 8.37078 234.289 -0.393513 221.957 0.0136299C214.939 0.23863 208.832 3.41006 205.018 8.08149C204.997 8.11363 204.975 8.14577 204.954 8.1672C204.889 8.25291 204.825 8.32791 204.761 8.41363C204.643 8.56363 204.525 8.71363 204.418 8.87435C204.354 8.96006 204.289 9.05649 204.225 9.15292C204.118 9.30292 204.011 9.46363 203.904 9.61363C203.839 9.69934 203.786 9.79577 203.722 9.88149C203.604 10.0636 203.497 10.2458 203.379 10.4279C203.336 10.4922 203.293 10.5565 203.261 10.6315C203.111 10.8779 202.982 11.1351 202.843 11.3922C202.811 11.4565 202.779 11.5315 202.736 11.5958C202.639 11.7886 202.543 11.9815 202.457 12.1743C202.414 12.2708 202.372 12.3672 202.329 12.4636C202.254 12.6351 202.179 12.8065 202.104 12.9886C202.061 13.0851 202.018 13.1922 201.986 13.2993C201.922 13.4815 201.847 13.6636 201.793 13.8458C201.761 13.9422 201.729 14.0386 201.697 14.1351C201.622 14.3601 201.547 14.5958 201.482 14.8208C201.472 14.8743 201.45 14.9172 201.439 14.9601C201.364 15.2386 201.289 15.5172 201.225 15.8065C201.204 15.8922 201.193 15.9779 201.172 16.0636C201.129 16.2672 201.086 16.4708 201.054 16.6743C201.032 16.7815 201.022 16.8886 201 16.9851C200.968 17.1779 200.947 17.3708 200.925 17.5636C200.914 17.6708 200.904 17.7779 200.893 17.8851C200.872 18.0886 200.861 18.2922 200.839 18.4958C200.829 18.5922 200.829 18.6886 200.818 18.7851C200.807 19.0851 200.797 19.3851 200.797 19.6851C200.797 26.8851 205.157 33.2386 211.693 36.6351C212.293 36.9458 212.914 37.2351 213.547 37.4922C213.868 37.6208 214.189 37.7494 214.522 37.8672C216.825 38.6922 219.332 39.1851 221.957 39.2601C222.322 39.2708 222.686 39.2708 223.039 39.2708C223.157 39.2708 223.286 39.2601 223.404 39.2601C223.639 39.2494 223.875 39.2494 224.111 39.2279C224.25 39.2172 224.4 39.2065 224.539 39.1958C224.754 39.1851 224.957 39.1636 225.172 39.1422C225.322 39.1315 225.472 39.1101 225.632 39.0886C225.825 39.0672 226.029 39.0351 226.222 39.0136C226.382 38.9922 226.532 38.9601 226.693 38.9386C226.886 38.9065 227.068 38.8744 227.261 38.8422C227.422 38.8101 227.572 38.7779 227.732 38.7458C227.914 38.7029 228.097 38.6708 228.279 38.6172C228.439 38.5851 228.589 38.5422 228.75 38.4994C228.932 38.4565 229.114 38.4029 229.286 38.3494C229.436 38.3065 229.597 38.2636 229.747 38.2208C229.8 38.1994 229.864 38.1886 229.918 38.1672C238.436 35.4886 244.639 28.2458 244.639 19.5886Z" fill="#11A2FB"/>
<path d="M242.936 19.5993C242.936 30.7958 232.639 39.56 220.372 39.2065C208.564 38.8636 199.307 30.1208 199.307 19.6743C199.307 9.2279 208.564 0.452894 220.372 0.0671801C232.639 -0.329249 242.936 8.40289 242.936 19.5993Z" fill="url(#paint14_linear_10_1937)"/>
<path d="M214.843 25.0209L206.09 20.5638V19.128L214.843 14.0602V16.503L208.79 19.7388L214.843 22.5888V25.0209Z" fill="white"/>
<path d="M224.154 12.078L219.172 27.1316L216.675 27.1101L221.615 12.1209L224.154 12.078Z" fill="white"/>
<path d="M226.007 22.6208L232.404 19.6958L226.007 16.4172V13.9315L235.34 19.0422V20.5422L226.007 25.0851V22.6208Z" fill="white"/>
<g opacity="0.3">
<path d="M225.707 34.3315C223.05 28.4708 225.74 23.0601 222.14 19.2993C218.529 15.5279 213.9 19.0529 208.993 16.0315C207.118 14.8743 205.04 12.6672 203.507 8.10291C200.861 11.3493 199.307 15.3458 199.307 19.6636C199.307 30.11 208.565 38.8529 220.372 39.1958C223.136 39.2815 225.815 38.8958 228.29 38.1136C227.068 36.8386 226.265 35.5422 225.707 34.3315Z" fill="url(#paint15_linear_10_1937)"/>
</g>
<defs>
<linearGradient id="paint0_linear_10_1937" x1="80.824" y1="11.7646" x2="80.824" y2="191.017" gradientUnits="userSpaceOnUse">
<stop stop-color="#11A2FB"/>
<stop offset="1"/>
</linearGradient>
<linearGradient id="paint1_linear_10_1937" x1="46.5" y1="131" x2="5.99998" y2="80.5001" gradientUnits="userSpaceOnUse">
<stop stop-color="#1EAF5F"/>
<stop offset="1" stop-color="#5194A0"/>
</linearGradient>
<linearGradient id="paint2_linear_10_1937" x1="31.2399" y1="141.725" x2="164.72" y2="191.439" gradientUnits="userSpaceOnUse">
<stop stop-color="#FF9085"/>
<stop offset="1" stop-color="#FB6FBB"/>
</linearGradient>
<linearGradient id="paint3_linear_10_1937" x1="104.5" y1="297" x2="31" y2="279.5" gradientUnits="userSpaceOnUse">
<stop stop-color="#13A3F7"/>
<stop offset="1" stop-color="#50D88D"/>
</linearGradient>
<linearGradient id="paint4_linear_10_1937" x1="108.564" y1="192.135" x2="86.5539" y2="201.379" gradientUnits="userSpaceOnUse">
<stop stop-color="#0E79BB"/>
<stop offset="0.9964" stop-color="#0E79BB"/>
</linearGradient>
<linearGradient id="paint5_linear_10_1937" x1="23.5628" y1="195.883" x2="209.188" y2="195.883" gradientUnits="userSpaceOnUse">
<stop stop-color="#13A3F7"/>
<stop offset="1" stop-color="#50D88D"/>
</linearGradient>
<radialGradient id="paint6_radial_10_1937" cx="0" cy="0" r="1" gradientUnits="userSpaceOnUse" gradientTransform="translate(45.9161 263.742) scale(266.022 47.8916)">
<stop stop-color="#96FFC1"/>
<stop offset="0.360564" stop-color="#52DA8A"/>
<stop offset="0.611623" stop-color="#11A2FD"/>
<stop offset="0.767637" stop-color="#31B1FF"/>
<stop offset="0.953125" stop-color="#009EFF"/>
</radialGradient>
<linearGradient id="paint7_linear_10_1937" x1="45.1093" y1="274.636" x2="266.503" y2="274.636" gradientUnits="userSpaceOnUse">
<stop stop-color="white"/>
<stop offset="0.9964" stop-color="white"/>
</linearGradient>
<radialGradient id="paint8_radial_10_1937" cx="0" cy="0" r="1" gradientUnits="userSpaceOnUse" gradientTransform="translate(72.4388 54.3805) scale(162.016 275.382)">
<stop stop-color="#96FFC1"/>
<stop offset="0.360564" stop-color="#52DA8A"/>
<stop offset="0.611623" stop-color="#11A2FD"/>
<stop offset="0.767637" stop-color="#31B1FF"/>
<stop offset="0.953125" stop-color="#009EFF"/>
</radialGradient>
<radialGradient id="paint9_radial_10_1937" cx="0" cy="0" r="1" gradientUnits="userSpaceOnUse" gradientTransform="translate(72.4388 42.7146) scale(162.016 33.1417)">
<stop stop-color="#96FFC1"/>
<stop offset="0.360564" stop-color="#52DA8A"/>
<stop offset="0.611623" stop-color="#11A2FD"/>
<stop offset="0.767637" stop-color="#31B1FF"/>
<stop offset="0.953125" stop-color="#009EFF"/>
</radialGradient>
<linearGradient id="paint10_linear_10_1937" x1="221.931" y1="101.79" x2="268.372" y2="101.79" gradientUnits="userSpaceOnUse">
<stop stop-color="#13A3F7"/>
<stop offset="1" stop-color="#50D88D"/>
</linearGradient>
<linearGradient id="paint11_linear_10_1937" x1="221.955" y1="105.87" x2="251.73" y2="105.87" gradientUnits="userSpaceOnUse">
<stop stop-color="#13A3F7"/>
<stop offset="1" stop-color="#50D88D"/>
</linearGradient>
<linearGradient id="paint12_linear_10_1937" x1="245.52" y1="52.8139" x2="296.506" y2="52.8139" gradientUnits="userSpaceOnUse">
<stop stop-color="#13A3F7"/>
<stop offset="1" stop-color="#50D88D"/>
</linearGradient>
<linearGradient id="paint13_linear_10_1937" x1="245.512" y1="56.6957" x2="279.317" y2="56.6957" gradientUnits="userSpaceOnUse">
<stop stop-color="#13A3F7"/>
<stop offset="1" stop-color="#50D88D"/>
</linearGradient>
<linearGradient id="paint14_linear_10_1937" x1="199.273" y1="19.5723" x2="242.916" y2="19.5723" gradientUnits="userSpaceOnUse">
<stop stop-color="#13A3F7"/>
<stop offset="1" stop-color="#50D88D"/>
</linearGradient>
<linearGradient id="paint15_linear_10_1937" x1="199.284" y1="23.605" x2="228.277" y2="23.605" gradientUnits="userSpaceOnUse">
<stop stop-color="#13A3F7"/>
<stop offset="1" stop-color="#50D88D"/>
</linearGradient>
</defs>
</svg>
