<svg width="20" height="20" viewBox="0 0 20 20" fill="none" xmlns="http://www.w3.org/2000/svg">
<path d="M0 2.22222C0 0.995 0.995 0 2.22222 0H17.7778C19.005 0 20 0.995 20 2.22222V17.7778C20 19.005 19.005 20 17.7778 20H2.22222C0.995 20 0 19.005 0 17.7778V2.22222Z" fill="#2196F3"/>
<path d="M11.6667 6.11108H15.5556V7.2222H11.6667V6.11108ZM8.61782 9.68219C8.94282 9.52386 9.67504 9.16331 9.67504 8.09497C9.67504 6.08553 7.47949 6.11164 7.07337 6.11164H3.33337V13.8894H7.23615C7.56115 13.8889 10 13.7972 10 11.6661C10 10.2911 9.1056 9.84108 8.61782 9.68219ZM5.00004 7.45997H6.62671C6.78893 7.45997 7.84615 7.51775 7.84615 8.33331C7.84615 9.14831 7.03337 9.28553 6.78949 9.28553H5.00004V7.45997ZM6.85337 12.5394H4.98282V10.3972H6.85337C7.25949 10.3972 8.15393 10.5289 8.15393 11.5083C8.15393 12.4866 7.0156 12.5394 6.85337 12.5394ZM14.6878 12.4416C14.4295 12.6022 14.1717 12.6839 13.8273 12.6839C12.535 12.6839 12.2778 11.5944 12.2778 11.1116H16.6667C16.6667 10.6289 16.6667 10.2722 16.5806 9.86942C16.4939 9.46664 15.9056 7.77775 13.7412 7.77775C10.7162 7.77775 10.5556 10.4322 10.5556 10.8333C10.5556 11.235 10.6423 11.7183 10.815 12.0394C10.9867 12.4416 11.1589 12.7639 11.4173 13.0039C11.675 13.2455 12.0189 13.485 12.3634 13.6466C12.7934 13.8083 13.2239 13.8889 13.6545 13.8889C14.3423 13.8889 14.9456 13.7289 15.4617 13.4066C15.9789 13.085 16.3228 12.6022 16.5806 11.9589H15.1178C15.0317 12.12 14.9456 12.28 14.6878 12.4416ZM13.7412 8.90386C14.5845 8.90386 14.9456 9.78831 15.0312 10.1894H12.2778C12.2778 10.11 12.4839 8.90386 13.7412 8.90386Z" fill="white"/>
</svg>
