<svg width="16" height="16" viewBox="0 0 16 16" fill="none" xmlns="http://www.w3.org/2000/svg">
<path d="M5.91907 1.54768L5.45483 1.73338H5.45483L5.91907 1.54768ZM6.79763 3.74407L7.26186 3.55837L6.79763 3.74407ZM6.53053 5.43003L6.91465 5.75012L6.53053 5.43003ZM6.05771 5.99742L6.44182 6.31751L6.05771 5.99742ZM6.15957 8.2429L5.80601 8.59645L6.15957 8.2429ZM7.7571 9.84043L8.11065 9.48688L7.7571 9.84043ZM10.0026 9.94229L9.68249 9.55818L10.0026 9.94229ZM10.57 9.46947L10.8901 9.85358V9.85357L10.57 9.46947ZM12.2559 9.20237L12.0702 9.66661L12.2559 9.20237ZM14.4523 10.0809L14.638 9.61669L14.4523 10.0809ZM2.07895 1H4.37161V0H2.07895V1ZM5.45483 1.73338L6.33339 3.92976L7.26186 3.55837L6.38331 1.36199L5.45483 1.73338ZM6.14642 5.10993L5.6736 5.67732L6.44182 6.31751L6.91465 5.75012L6.14642 5.10993ZM5.80601 8.59645L7.40355 10.194L8.11065 9.48688L6.51312 7.88935L5.80601 8.59645ZM10.3227 10.3264L10.8901 9.85358L10.2499 9.08535L9.68249 9.55818L10.3227 10.3264ZM12.0702 9.66661L14.2666 10.5452L14.638 9.61669L12.4416 8.73814L12.0702 9.66661ZM15 11.6284V13.9211H16V11.6284H15ZM13.9211 15C6.78495 15 1 9.21505 1 2.07895H0C0 9.76733 6.23267 16 13.9211 16V15ZM15 13.9211C15 14.5169 14.5169 15 13.9211 15V16C15.0692 16 16 15.0692 16 13.9211H15ZM14.2666 10.5452C14.7096 10.7223 15 11.1513 15 11.6284H16C16 10.7424 15.4606 9.94573 14.638 9.61669L14.2666 10.5452ZM10.8901 9.85357C11.2193 9.57924 11.6724 9.50746 12.0702 9.66661L12.4416 8.73814C11.7027 8.44257 10.8613 8.57588 10.2499 9.08535L10.8901 9.85357ZM7.40355 10.194C8.19594 10.9864 9.4618 11.0438 10.3227 10.3264L9.68249 9.55818C9.21894 9.94447 8.53732 9.91355 8.11065 9.48688L7.40355 10.194ZM5.6736 5.67732C4.9562 6.5382 5.01363 7.80407 5.80601 8.59645L6.51312 7.88935C6.08645 7.46268 6.05553 6.78106 6.44182 6.31751L5.6736 5.67732ZM6.33339 3.92976C6.49254 4.32763 6.42076 4.78073 6.14642 5.10993L6.91465 5.75012C7.42412 5.13875 7.55743 4.29728 7.26186 3.55837L6.33339 3.92976ZM4.37161 1C4.84867 1 5.27766 1.29044 5.45483 1.73338L6.38331 1.36199C6.05427 0.539394 5.25757 0 4.37161 0V1ZM2.07895 0C0.930776 0 0 0.930777 0 2.07895H1C1 1.48306 1.48306 1 2.07895 1V0Z" fill="#17A7EE"/>
</svg>
