<svg width="20" height="21" viewBox="0 0 20 21" fill="none" xmlns="http://www.w3.org/2000/svg">
<path d="M0 2.94427C0 1.73613 0.995 0.756592 2.22222 0.756592H17.7778C19.005 0.756592 20 1.73613 20 2.94427V18.258C20 19.4662 19.005 20.4457 17.7778 20.4457H2.22222C0.995 20.4457 0 19.4662 0 18.258V2.94427Z" fill="#2196F3"/>
<path d="M11.2 7.05713H14.9333V8.06964H11.2V7.05713ZM8.27308 10.3113C8.58508 10.1671 9.28801 9.8385 9.28801 8.86497C9.28801 7.03384 7.18028 7.05763 6.79041 7.05763H3.20001V14.1452H6.94668C7.25868 14.1447 9.60001 14.0612 9.60001 12.1192C9.60001 10.8662 8.74135 10.4561 8.27308 10.3113ZM4.80001 8.28632H6.36161C6.51735 8.28632 7.53228 8.33897 7.53228 9.08215C7.53228 9.82483 6.75201 9.94987 6.51788 9.94987H4.80001V8.28632ZM6.57921 12.915H4.78348V10.9629H6.57921C6.96908 10.9629 7.82775 11.0829 7.82775 11.9754C7.82775 12.8669 6.73495 12.915 6.57921 12.915ZM14.1003 12.8259C13.8523 12.9722 13.6048 13.0466 13.2741 13.0466C12.0336 13.0466 11.7867 12.0539 11.7867 11.6139H16C16 11.174 16 10.849 15.9173 10.4819C15.8341 10.1149 15.2693 8.5759 13.1915 8.5759C10.2875 8.5759 10.1333 10.9948 10.1333 11.3603C10.1333 11.7263 10.2165 12.1668 10.3824 12.4594C10.5472 12.8259 10.7125 13.1195 10.9605 13.3382C11.208 13.5585 11.5381 13.7767 11.8688 13.924C12.2816 14.0713 12.6949 14.1447 13.1083 14.1447C13.7685 14.1447 14.3477 13.9989 14.8432 13.7053C15.3397 13.4122 15.6699 12.9722 15.9173 12.386H14.5131C14.4304 12.5328 14.3477 12.6786 14.1003 12.8259ZM13.1915 9.60208C14.0011 9.60208 14.3477 10.408 14.4299 10.7736H11.7867C11.7867 10.7012 11.9845 9.60208 13.1915 9.60208Z" fill="white"/>
</svg>
