<svg width="20" height="21" viewBox="0 0 20 21" fill="none" xmlns="http://www.w3.org/2000/svg">
<path d="M8.87747 0.826879C4.26813 1.33462 0.560617 5.09193 0.0596024 9.66162C-0.441413 14.4344 2.26407 18.6995 6.37239 20.3242C6.673 20.4258 6.97361 20.2227 6.97361 19.8165V18.1917C6.97361 18.1917 6.5728 18.2933 6.07178 18.2933C4.66894 18.2933 4.06772 17.0747 3.96752 16.3638C3.86732 15.9576 3.66691 15.653 3.3663 15.3484C3.06569 15.2468 2.96549 15.2468 2.96549 15.1453C2.96549 14.9422 3.2661 14.9422 3.3663 14.9422C3.96752 14.9422 4.46853 15.653 4.66894 15.9576C5.16996 16.77 5.77117 16.9731 6.07178 16.9731C6.47259 16.9731 6.7732 16.8716 6.97361 16.77C7.07381 16.0592 7.37442 15.3484 7.97564 14.9422C5.67097 14.4344 3.96752 13.1143 3.96752 10.8802C3.96752 9.76317 4.46853 8.64614 5.16996 7.83375C5.06975 7.63065 4.96955 7.1229 4.96955 6.41206C4.96955 6.00587 4.96955 5.49812 5.16996 5.09193C5.16996 4.88883 5.37036 4.78728 5.47056 4.78728H5.57077C6.07178 4.88883 7.07381 5.19348 7.97564 6.10742C8.57686 5.90432 9.27828 5.80277 9.9797 5.80277C10.6811 5.80277 11.3825 5.90432 11.9838 6.10742C12.8856 5.19348 13.9878 4.88883 14.4888 4.78728H14.589C14.7894 4.78728 14.8896 4.88883 14.9899 5.09193C14.9899 5.49812 14.9899 6.00587 14.9899 6.41206C14.9899 7.22445 14.8896 7.63065 14.7894 7.83375C15.4909 8.64614 15.9919 9.66162 15.9919 10.8802C15.9919 13.1143 14.2884 14.4344 11.9838 14.9422C12.585 15.4499 12.9858 16.3638 12.9858 17.2778V19.918C12.9858 20.2227 13.2864 20.5273 13.6872 20.4258C17.3947 18.9026 20 15.2468 20 10.9818C20 4.88883 14.8896 0.116038 8.87747 0.826879Z" fill="black"/>
</svg>
