<svg width="20" height="21" viewBox="0 0 20 21" fill="none" xmlns="http://www.w3.org/2000/svg">
<path d="M15.5623 20.4353L4.45709 20.4457C2.01394 20.4479 0.0133282 18.4822 0.0105519 16.077L1.85114e-06 5.1444C-0.0022192 2.73923 1.9945 0.769713 4.43766 0.76698L15.5429 0.756594C17.9861 0.754407 19.9867 2.72009 19.9895 5.12527L20 16.0579C20.0028 18.4636 18.0055 20.4331 15.5623 20.4353Z" fill="url(#paint0_radial_60_61)"/>
<path d="M15.5623 20.4353L4.45709 20.4457C2.01394 20.4479 0.0133282 18.4822 0.0105519 16.077L1.85114e-06 5.1444C-0.0022192 2.73923 1.9945 0.769713 4.43766 0.76698L15.5429 0.756594C17.9861 0.754407 19.9867 2.72009 19.9895 5.12527L20 16.0579C20.0028 18.4636 18.0055 20.4331 15.5623 20.4353Z" fill="url(#paint1_radial_60_61)"/>
<path d="M10.0003 14.4277C7.85754 14.4277 6.11346 12.7113 6.11346 10.6013C6.11346 8.49133 7.85754 6.7749 10.0003 6.7749C12.1431 6.7749 13.8871 8.49133 13.8871 10.6013C13.8871 12.7113 12.1431 14.4277 10.0003 14.4277ZM10.0003 7.86817C8.46944 7.86817 7.22399 9.09426 7.22399 10.6013C7.22399 12.1084 8.46944 13.3345 10.0003 13.3345C11.5312 13.3345 12.7766 12.1084 12.7766 10.6013C12.7766 9.09426 11.5312 7.86817 10.0003 7.86817Z" fill="white"/>
<path d="M14.1647 7.32153C14.6247 7.32153 14.9976 6.95443 14.9976 6.50159C14.9976 6.04874 14.6247 5.68164 14.1647 5.68164C13.7047 5.68164 13.3318 6.04874 13.3318 6.50159C13.3318 6.95443 13.7047 7.32153 14.1647 7.32153Z" fill="white"/>
<path d="M13.3318 17.7075H6.6687C4.52594 17.7075 2.78186 15.9911 2.78186 13.8811V7.32154C2.78186 5.21154 4.52594 3.49512 6.6687 3.49512H13.3318C15.4746 3.49512 17.2187 5.21154 17.2187 7.32154V13.8811C17.2187 15.9911 15.4746 17.7075 13.3318 17.7075ZM6.6687 4.58838C5.13784 4.58838 3.89239 5.81447 3.89239 7.32154V13.8811C3.89239 15.3882 5.13784 16.6143 6.6687 16.6143H13.3318C14.8627 16.6143 16.1082 15.3882 16.1082 13.8811V7.32154C16.1082 5.81447 14.8627 4.58838 13.3318 4.58838H6.6687Z" fill="white"/>
<defs>
<radialGradient id="paint0_radial_60_61" cx="0" cy="0" r="1" gradientUnits="userSpaceOnUse" gradientTransform="translate(7.43497 20.4599) scale(24.9307 24.5432)">
<stop stop-color="#FFDD55"/>
<stop offset="0.328" stop-color="#FF543F"/>
<stop offset="0.348" stop-color="#FC5245"/>
<stop offset="0.504" stop-color="#E64771"/>
<stop offset="0.643" stop-color="#D53E91"/>
<stop offset="0.761" stop-color="#CC39A4"/>
<stop offset="0.841" stop-color="#C837AB"/>
</radialGradient>
<radialGradient id="paint1_radial_60_61" cx="0" cy="0" r="1" gradientUnits="userSpaceOnUse" gradientTransform="translate(3.2183 0.510775) scale(16.554 10.8585)">
<stop stop-color="#4168C9"/>
<stop offset="0.999" stop-color="#4168C9" stop-opacity="0"/>
</radialGradient>
</defs>
</svg>
