<svg width="25" height="25" viewBox="0 0 25 25" fill="none" xmlns="http://www.w3.org/2000/svg">
<path d="M9.89884 4.4346L9.4346 4.6203L9.89884 4.4346ZM10.997 7.18008L11.4613 6.99439L10.997 7.18008ZM10.6632 9.28753L11.0473 9.60762L10.6632 9.28753ZM10.0721 9.99677L10.4562 10.3169L10.0721 9.99677ZM10.1995 12.8036L9.84591 13.1572L10.1995 12.8036ZM12.1964 14.8005L12.5499 14.447L12.1964 14.8005ZM15.0032 14.9279L14.6831 14.5438L15.0032 14.9279ZM15.7125 14.3368L16.0326 14.7209H16.0326L15.7125 14.3368ZM17.8199 14.003L17.6342 14.4672L17.8199 14.003ZM20.5654 15.1012L20.7511 14.6369L20.5654 15.1012ZM5.09868 3.625H7.96451V2.625H5.09868V3.625ZM9.4346 4.6203L10.5328 7.36578L11.4613 6.99439L10.3631 4.24891L9.4346 4.6203ZM10.2791 8.96744L9.68802 9.67668L10.4562 10.3169L11.0473 9.60762L10.2791 8.96744ZM9.84591 13.1572L11.8428 15.1541L12.5499 14.447L10.553 12.4501L9.84591 13.1572ZM15.3233 15.312L16.0326 14.7209L15.3924 13.9527L14.6831 14.5438L15.3233 15.312ZM17.6342 14.4672L20.3797 15.5654L20.7511 14.6369L18.0056 13.5387L17.6342 14.4672ZM21.375 17.0355V19.9013H22.375V17.0355H21.375ZM19.9013 21.375C10.9122 21.375 3.625 14.0878 3.625 5.09868H2.625C2.625 14.6401 10.3599 22.375 19.9013 22.375V21.375ZM21.375 19.9013C21.375 20.7152 20.7152 21.375 19.9013 21.375V22.375C21.2675 22.375 22.375 21.2675 22.375 19.9013H21.375ZM20.3797 15.5654C20.9808 15.8058 21.375 16.3881 21.375 17.0355H22.375C22.375 15.9791 21.7319 15.0292 20.7511 14.6369L20.3797 15.5654ZM16.0326 14.7209C16.4793 14.3486 17.0942 14.2512 17.6342 14.4672L18.0056 13.5387C17.1246 13.1863 16.1213 13.3453 15.3924 13.9527L16.0326 14.7209ZM11.8428 15.1541C12.7876 16.0989 14.2969 16.1673 15.3233 15.312L14.6831 14.5438C14.054 15.068 13.129 15.026 12.5499 14.447L11.8428 15.1541ZM9.68802 9.67668C8.83267 10.7031 8.90113 12.2124 9.84591 13.1572L10.553 12.4501C9.97396 11.871 9.932 10.946 10.4562 10.3169L9.68802 9.67668ZM10.5328 7.36578C10.7488 7.90575 10.6514 8.52067 10.2791 8.96744L11.0473 9.60762C11.6547 8.87868 11.8137 7.87539 11.4613 6.99439L10.5328 7.36578ZM7.96451 3.625C8.61195 3.625 9.19415 4.01917 9.4346 4.6203L10.3631 4.24891C9.97077 3.26812 9.02085 2.625 7.96451 2.625V3.625ZM5.09868 2.625C3.73251 2.625 2.625 3.73251 2.625 5.09868H3.625C3.625 4.28479 4.28479 3.625 5.09868 3.625V2.625Z" fill="url(#paint0_linear_54_103)"/>
<defs>
<linearGradient id="paint0_linear_54_103" x1="3.125" y1="3.125" x2="22.7864" y2="4.13516" gradientUnits="userSpaceOnUse">
<stop stop-color="#34B76A"/>
<stop offset="1" stop-color="#00D13B"/>
</linearGradient>
</defs>
</svg>
