<svg width="20" height="21" viewBox="0 0 20 21" fill="none" xmlns="http://www.w3.org/2000/svg">
<path d="M20 10.6012C20 16.0378 15.5225 20.4457 10 20.4457C4.4775 20.4457 0 16.0378 0 10.6012C0 5.16449 4.4775 0.756592 10 0.756592C15.5225 0.756592 20 5.16449 20 10.6012Z" fill="url(#paint0_linear_60_70)"/>
<path d="M3.77651 10.4618C7.27151 8.94824 11.794 7.10288 12.4185 6.84741C14.056 6.17896 14.5585 6.30694 14.308 7.78756C14.128 8.85176 13.609 12.3746 13.195 14.5675C12.9495 15.868 12.3985 16.022 11.5325 15.4594C11.116 15.1887 9.01351 13.8198 8.55701 13.4984C8.14051 13.2055 7.56601 12.8531 8.28651 12.159C8.54301 11.9119 10.2235 10.3319 11.533 9.1023C11.7045 8.94085 11.489 8.67554 11.291 8.805C9.52601 9.9573 7.07901 11.5566 6.76751 11.7648C6.29701 12.0793 5.84501 12.2235 5.034 11.9941C4.421 11.8209 3.8225 11.6141 3.5895 11.5354C2.692 11.2322 2.90501 10.8394 3.77651 10.4618Z" fill="white"/>
<defs>
<linearGradient id="paint0_linear_60_70" x1="2.929" y1="3.64006" x2="16.8495" y2="17.7803" gradientUnits="userSpaceOnUse">
<stop stop-color="#33BEF0"/>
<stop offset="1" stop-color="#0A85D9"/>
</linearGradient>
</defs>
</svg>
