<svg width="20" height="21" viewBox="0 0 20 21" fill="none" xmlns="http://www.w3.org/2000/svg">
<path d="M9.52406 1.22559C8.26739 1.22559 4.44311 1.22559 2.32882 3.12605C1.06977 4.36084 0.47644 6.14505 0.47644 8.7262V10.1326C0.47644 12.7137 1.06977 14.4979 2.34358 15.7468C2.97787 16.3164 3.84263 16.7716 4.89977 17.0861L5.23835 17.1864V19.6841C5.23835 19.9771 5.32454 19.9771 5.35311 19.9771C5.41168 19.9771 5.50549 19.9588 5.68358 19.8032C5.72644 19.7615 6.04073 19.4268 7.5693 17.741L7.72358 17.5708L7.95454 17.5854C8.46644 17.6168 8.99454 17.6332 9.52406 17.6332C10.7807 17.6332 14.605 17.6332 16.7193 15.7322C17.9779 14.4975 18.5717 12.7132 18.5717 10.1326V8.7262C18.5717 6.14505 17.9783 4.36084 16.7045 3.11199C14.605 1.22559 10.7807 1.22559 9.52406 1.22559Z" fill="white"/>
<path d="M14.0246 12.4081C13.4955 11.9693 13.2512 11.8366 12.5208 11.4049C12.2165 11.2253 11.7527 11.0702 11.5093 11.0702C11.3431 11.0702 11.1441 11.1953 11.0222 11.3153C10.7098 11.6229 10.6074 12.0077 10.0598 12.0077C9.5241 12.0077 8.58838 11.471 7.91695 10.7772C7.21219 10.1162 6.66695 9.195 6.66695 8.66762C6.66695 8.12851 7.05076 8.02069 7.36314 7.71269C7.48505 7.59315 7.61933 7.3972 7.61933 7.23359C7.61933 6.99404 7.46172 6.54447 7.27933 6.24492C6.84076 5.52533 6.70648 5.28484 6.26029 4.76448C6.10933 4.58822 5.93743 4.50759 5.75743 4.50712C5.45314 4.50665 5.05362 4.65526 4.78314 4.85355C4.37648 5.15217 3.95124 5.55861 3.83743 6.0649C3.82219 6.13381 3.81314 6.2032 3.81029 6.27258C3.78838 6.79996 3.99886 7.33532 4.226 7.78864C4.76076 8.85701 5.46838 9.89115 6.23838 10.8147C6.48457 11.11 6.75267 11.3847 7.03029 11.65C7.29981 11.9229 7.57886 12.1868 7.87886 12.4296C8.81695 13.1877 9.86743 13.8843 10.9527 14.4107C11.4089 14.632 11.946 14.8355 12.4765 14.8205C12.5522 14.8181 12.6279 14.8097 12.7036 14.7933C13.2179 14.6817 13.6308 14.2626 13.9341 13.8623C14.1355 13.596 14.2865 13.2031 14.286 12.9031C14.2855 12.7259 14.2036 12.5567 14.0246 12.4081ZM14.286 10.1326C14.0231 10.1326 13.8098 9.92256 13.8098 9.66379V9.195C13.8098 6.86888 11.887 4.97591 9.5241 4.97591C9.26124 4.97591 9.04791 4.76589 9.04791 4.50712C9.04791 4.24835 9.26124 4.03833 9.5241 4.03833C12.4122 4.03833 14.7622 6.3518 14.7622 9.195V9.66379C14.7622 9.92256 14.5489 10.1326 14.286 10.1326ZM11.3612 9.195C11.1498 9.195 10.9565 9.05531 10.9008 8.84435C10.7703 8.35165 10.3798 7.96678 9.88124 7.84021C9.62648 7.77504 9.47362 7.51955 9.53933 7.26875C9.60505 7.01842 9.8641 6.86794 10.1198 6.93216C10.9522 7.14452 11.6046 7.78629 11.8222 8.60761C11.8884 8.85841 11.736 9.1139 11.4817 9.17953C11.4412 9.18985 11.4008 9.195 11.3612 9.195Z" fill="#7E57C2"/>
<path d="M12.8574 9.66373C12.5945 9.66373 12.3812 9.45372 12.3812 9.19495C12.3812 7.70045 11.1936 6.46753 9.6774 6.38878C9.41455 6.37518 9.21312 6.15438 9.22693 5.89608C9.24074 5.63731 9.46883 5.43854 9.7274 5.45261C11.7498 5.55762 13.3336 7.20166 13.3336 9.19495C13.3336 9.45372 13.1203 9.66373 12.8574 9.66373Z" fill="#7E57C2"/>
<path d="M9.52405 0.756592C7.38119 0.756592 4.04214 0.95067 2.00786 2.77988C0.569762 4.18953 0.00023813 6.16688 0.00023813 8.726C0.00023813 8.93789 -0.00071432 9.17416 0.00119044 9.42918C-0.00071432 9.68373 0.00023813 9.92 0.00023813 10.1319C0.00023813 12.691 0.569762 14.6684 2.00786 16.078C2.78214 16.7742 3.74786 17.2322 4.76214 17.5341V19.6839C4.76214 20.4321 5.26167 20.4457 5.3531 20.4457H5.35738C5.59262 20.4448 5.79595 20.3313 5.99976 20.1532C6.07643 20.0862 6.96167 19.1148 7.92452 18.0525C8.49786 18.0886 9.04262 18.1018 9.52357 18.1018C11.6664 18.1018 15.005 17.9072 17.0398 16.078C18.4774 14.6688 19.0474 12.691 19.0474 10.1319C19.0474 9.92 19.0483 9.68373 19.0464 9.42871C19.0483 9.17369 19.0474 8.93789 19.0474 8.72553C19.0474 6.16641 18.4779 4.18906 17.0398 2.77941C15.0055 0.95067 11.6669 0.756592 9.52405 0.756592ZM17.6193 9.96876V10.1319C17.6193 12.4318 17.1217 13.9989 16.0545 15.0598C14.206 16.6954 10.6845 16.6954 9.52357 16.6954C9.17024 16.6954 8.5969 16.6949 7.92024 16.6485C7.73214 16.8567 5.71452 19.0783 5.71452 19.0783V16.3297C4.71262 16.093 3.72262 15.7049 2.99357 15.0603C1.92643 13.9989 1.42881 12.4318 1.42881 10.1319V9.96876C1.42881 9.80421 1.42833 9.62654 1.42976 9.41887C1.42833 9.23135 1.42833 9.05415 1.42881 8.88914V8.726C1.42881 6.42612 1.92643 4.85896 2.99357 3.79809C4.84167 2.16249 8.36357 2.16249 9.52405 2.16249C10.6845 2.16249 14.206 2.16249 16.054 3.79809C17.1217 4.85896 17.6188 6.42612 17.6188 8.726V8.88914C17.6188 9.05368 17.6193 9.23135 17.6179 9.43902C17.6193 9.62701 17.6193 9.80421 17.6193 9.96876Z" fill="#7E57C2"/>
</svg>
