<svg width="20" height="20" viewBox="0 0 20 20" fill="none" xmlns="http://www.w3.org/2000/svg">
<path d="M17 10C17 13.866 13.866 17 10 17V18C14.4183 18 18 14.4183 18 10H17ZM10 17C6.13401 17 3 13.866 3 10H2C2 14.4183 5.58172 18 10 18V17ZM3 10C3 6.13401 6.13401 3 10 3V2C5.58172 2 2 5.58172 2 10H3ZM10 3C13.866 3 17 6.13401 17 10H18C18 5.58172 14.4183 2 10 2V3Z" fill="url(#paint0_linear_31_318)"/>
<path d="M12.8536 9.52023C13.0488 9.32496 13.0488 9.00838 12.8536 8.81312C12.6583 8.61786 12.3417 8.61786 12.1464 8.81312L12.8536 9.52023ZM10 11.6667L9.64645 12.0202C9.84171 12.2155 10.1583 12.2155 10.3536 12.0202L10 11.6667ZM7.85355 8.81312C7.65829 8.61786 7.34171 8.61786 7.14645 8.81312C6.95118 9.00838 6.95118 9.32496 7.14645 9.52023L7.85355 8.81312ZM12.1464 8.81312L9.64645 11.3131L10.3536 12.0202L12.8536 9.52023L12.1464 8.81312ZM10.3536 11.3131L7.85355 8.81312L7.14645 9.52023L9.64645 12.0202L10.3536 11.3131Z" fill="url(#paint1_linear_31_318)"/>
<defs>
<linearGradient id="paint0_linear_31_318" x1="2.48804" y1="9.97578" x2="17.4932" y2="9.97578" gradientUnits="userSpaceOnUse">
<stop stop-color="#13A3F7"/>
<stop offset="1" stop-color="#50D88D"/>
</linearGradient>
<linearGradient id="paint1_linear_31_318" x1="7.49601" y1="10.4126" x2="12.4977" y2="10.4126" gradientUnits="userSpaceOnUse">
<stop stop-color="#13A3F7"/>
<stop offset="1" stop-color="#50D88D"/>
</linearGradient>
</defs>
</svg>
