<svg width="554" height="411" viewBox="0 0 554 411" fill="none" xmlns="http://www.w3.org/2000/svg">
<g clip-path="url(#clip0_31_1011)">
<path d="M514.454 342.869L514.454 342.869L514.451 342.867C513.724 342.451 513.313 341.732 513.313 340.897C513.313 340.062 513.724 339.343 514.451 338.927L514.451 338.927L514.454 338.925L529.233 330.322C529.234 330.322 529.234 330.322 529.235 330.321C531.728 328.895 534.951 328.889 537.583 330.324L552.359 338.925L552.362 338.927C553.089 339.343 553.5 340.062 553.5 340.897C553.5 341.732 553.089 342.451 552.362 342.867L552.359 342.869L537.599 351.461C536.241 352.077 534.81 352.545 533.407 352.545C531.977 352.545 530.545 352.188 529.23 351.471L514.454 342.869ZM515.088 340.085L515.032 340.118L514.986 340.164C514.983 340.167 514.98 340.17 514.977 340.173C514.92 340.23 514.835 340.315 514.766 340.408C514.697 340.5 514.587 340.671 514.587 340.897C514.587 340.9 514.587 340.904 514.587 340.908C514.587 340.969 514.586 341.138 514.672 341.31C514.765 341.498 514.924 341.625 515.101 341.716L529.87 350.314L529.87 350.314L529.876 350.317C532.05 351.542 534.637 351.542 536.811 350.317L536.811 350.317L536.817 350.314L551.598 341.709L551.655 341.676L551.701 341.63L551.709 341.621C551.766 341.564 551.852 341.479 551.921 341.387C551.99 341.295 552.1 341.123 552.1 340.897C552.1 340.894 552.1 340.891 552.1 340.887C552.1 340.825 552.101 340.656 552.015 340.484C551.921 340.296 551.763 340.169 551.586 340.078L536.817 331.481L536.803 331.473L536.789 331.466C535.752 330.947 534.659 330.527 533.407 330.527C532.198 330.527 530.967 330.796 529.863 331.485L515.088 340.085Z" fill="url(#paint0_linear_31_1011)" stroke="url(#paint1_linear_31_1011)"/>
<path d="M497.268 300.839L497.272 300.837L522.792 286.032L522.792 286.032L522.799 286.028C523.629 285.529 523.799 284.698 523.799 284.334C523.799 283.97 523.629 283.139 522.799 282.64L522.799 282.64L522.791 282.636L497.148 267.832C497.147 267.832 497.147 267.832 497.146 267.831C493.324 265.588 488.585 265.593 484.645 267.829L484.645 267.829L484.641 267.831L459.121 282.636L459.121 282.636L459.114 282.64C458.284 283.139 458.113 283.97 458.113 284.334C458.113 284.698 458.284 285.529 459.114 286.028L459.114 286.028L459.122 286.032L484.765 300.836C484.766 300.836 484.766 300.836 484.767 300.837C488.589 303.08 493.328 303.076 497.268 300.839ZM490.956 303.827C488.519 303.827 486.203 303.218 484.002 301.994L458.489 287.194C457.383 286.528 456.839 285.556 456.839 284.208C456.839 283.006 457.493 281.893 458.499 281.215L484.003 266.42C484.004 266.42 484.004 266.419 484.005 266.419C488.272 263.977 493.514 263.977 497.782 266.419C497.782 266.419 497.783 266.42 497.783 266.42L523.295 281.22C523.296 281.22 523.297 281.221 523.298 281.222C524.403 281.887 524.947 282.859 524.947 284.208C524.947 285.409 524.294 286.522 523.287 287.2L497.915 301.992C497.913 301.993 497.912 301.994 497.91 301.995C495.71 303.218 493.394 303.827 490.956 303.827Z" fill="url(#paint2_linear_31_1011)" stroke="url(#paint3_linear_31_1011)"/>
<path d="M41.4428 325.152L41.4313 325.159L41.4202 325.166C39.3633 326.499 36.9336 327.111 34.6171 327.111C32.1794 327.111 29.8636 326.502 27.6626 325.278L2.14942 310.477C1.0441 309.811 0.5 308.839 0.5 307.491C0.5 306.289 1.15334 305.176 2.16004 304.499L27.6641 289.703C27.6645 289.703 27.6649 289.703 27.6653 289.702C31.9326 287.261 37.175 287.261 41.4423 289.702C41.4428 289.703 41.4433 289.703 41.4438 289.703L66.9552 304.503C66.9564 304.503 66.9575 304.504 66.9586 304.505C68.0638 305.17 68.6079 306.143 68.6079 307.491C68.6079 308.692 67.9549 309.805 66.9486 310.482L41.4428 325.152ZM2.90921 305.792L2.90916 305.792L2.90095 305.797C2.07073 306.296 1.90046 307.127 1.90046 307.491C1.90046 307.855 2.07073 308.686 2.90095 309.185L2.90092 309.185L2.9076 309.189L28.426 323.992C28.4263 323.993 28.4266 323.993 28.4268 323.993C32.2494 326.237 36.9879 326.233 40.9282 323.996L40.9323 323.994L66.453 309.189L66.453 309.189L66.4596 309.185C67.2898 308.686 67.4601 307.855 67.4601 307.491C67.4601 307.127 67.2898 306.296 66.4596 305.797L66.4596 305.797L66.453 305.793L40.9323 290.988L40.9247 290.983L40.917 290.979C38.9473 289.927 36.7182 289.402 34.6171 289.402C32.5225 289.402 30.281 289.924 28.4191 291.12L2.90921 305.792Z" fill="url(#paint4_linear_31_1011)" stroke="url(#paint5_linear_31_1011)"/>
<path opacity="0.2" d="M292.982 391.893L110.547 286.359C107.894 284.84 108.273 282.183 111.305 280.411L228.422 212.713C231.455 210.941 236.129 210.688 238.782 212.333L421.217 317.867C423.87 319.385 423.491 322.043 420.459 323.814L303.342 391.513C300.31 393.284 295.635 393.411 292.982 391.893Z" fill="url(#paint6_linear_31_1011)"/>
<path d="M297.151 411C295.003 411 292.982 410.494 291.466 409.608L83.2579 289.269C81.6155 288.257 80.6048 286.865 80.6048 285.22C80.6048 283.448 81.8682 281.55 84.1423 280.285L226.148 197.022C230.065 194.744 235.75 194.491 239.161 196.516L447.243 316.981C448.885 317.994 449.896 319.385 449.896 321.03C449.896 322.802 448.633 324.7 446.358 325.966L304.479 409.102C302.331 410.367 299.678 411 297.151 411ZM233.35 197.528C231.202 197.528 228.928 198.034 227.159 199.046L85.2794 282.309C83.7633 283.195 83.0053 284.208 83.0053 285.22C83.0053 286.106 83.7633 286.738 84.5213 287.118L292.729 407.583C295.382 409.102 300.31 408.849 303.342 407.077L445.348 323.814C446.864 322.929 447.622 321.916 447.622 320.904C447.622 320.018 446.864 319.385 446.106 319.006L237.898 198.54C236.634 197.908 234.992 197.528 233.35 197.528Z" fill="url(#paint7_linear_31_1011)"/>
<path d="M469.731 140.838L287.928 35.8106C286.665 35.0514 285.402 34.9249 284.265 35.3045L280.853 36.4433L281.99 36.6964C281.485 37.2026 281.106 37.9618 280.853 38.7211L239.793 172.347C238.782 175.637 240.298 179.686 243.078 181.331L424.881 286.485C425.26 286.738 425.765 286.865 426.27 286.991L425.765 288.004L428.924 286.865C430.187 286.359 431.324 285.22 431.829 283.448L472.89 149.823C474.027 146.533 472.637 142.483 469.731 140.838Z" fill="url(#paint8_linear_31_1011)"/>
<path fill-rule="evenodd" clip-rule="evenodd" d="M421.55 287.451L421.849 287.624C424.754 289.269 427.913 288.004 428.924 284.714L469.984 151.088C470.995 147.798 469.605 143.749 466.699 142.104L284.896 36.9495C281.99 35.3045 278.832 36.6964 277.821 39.9864L236.761 173.612C235.811 176.703 236.98 180.464 239.535 182.272L238.782 181.837C236.129 180.192 231.455 180.445 228.422 182.217L111.305 249.915C109.438 251.007 108.577 252.434 108.811 253.724L108.779 253.712L109.916 259.153C110.042 259.912 110.674 260.798 111.684 261.304L292.856 366.079C295.509 367.597 300.057 367.47 303.216 365.699L419.448 298.506C420.838 297.621 421.722 296.608 421.975 295.596L423.112 290.281L422.934 290.33C423.161 289.277 422.714 288.239 421.55 287.451Z" fill="url(#paint9_radial_31_1011)"/>
<path d="M420.459 291.8L303.342 359.498C300.31 361.27 295.635 361.523 292.982 359.878L110.547 254.471C109.663 253.965 109.158 253.332 108.905 252.573C108.526 253.838 109.031 254.977 110.547 255.863L292.982 361.397C295.635 362.915 300.31 362.788 303.342 361.017L420.459 293.318C422.48 292.18 423.238 290.535 422.859 289.269C422.607 290.155 421.849 291.041 420.459 291.8Z" fill="white"/>
<g opacity="0.4">
<path d="M197.595 238.78L191.405 235.237C190.899 234.984 191.026 234.478 191.531 234.098L198.859 229.922C199.491 229.542 200.249 229.542 200.754 229.796L206.945 233.339C207.45 233.592 207.324 234.098 206.818 234.478L199.491 238.653C198.985 239.033 198.101 239.033 197.595 238.78Z" fill="white"/>
<path d="M207.071 244.348L200.88 240.804C200.375 240.551 200.501 240.045 201.007 239.666L208.334 235.49C208.966 235.11 209.724 235.11 210.229 235.363L216.42 238.906C216.925 239.159 216.799 239.666 216.294 240.045L208.966 244.221C208.461 244.474 207.576 244.601 207.071 244.348Z" fill="white"/>
<path d="M216.673 249.789L210.482 246.246C209.977 245.993 210.103 245.486 210.608 245.107L217.936 240.931C218.568 240.551 219.326 240.551 219.831 240.804L226.022 244.348C226.527 244.601 226.401 245.107 225.896 245.486L218.568 249.662C217.936 250.042 217.052 250.042 216.673 249.789Z" fill="white"/>
<path d="M229.812 245.233L223.621 241.69C223.116 241.437 223.242 240.931 223.748 240.551L229.812 237.008C230.444 236.629 231.202 236.629 231.707 236.882L237.898 240.425C238.403 240.678 238.277 241.184 237.772 241.564L231.707 245.107C231.075 245.486 230.317 245.486 229.812 245.233Z" fill="white"/>
<path d="M239.288 250.801L233.097 247.258C232.592 247.005 232.718 246.499 233.223 246.119L239.288 242.576C239.919 242.196 240.677 242.196 241.183 242.45L247.373 245.993C247.879 246.246 247.752 246.752 247.247 247.131L241.183 250.675C240.677 251.054 239.793 251.054 239.288 250.801Z" fill="white"/>
<path d="M248.763 256.242L242.572 252.699C242.067 252.446 242.193 251.94 242.699 251.56L248.763 248.017C249.395 247.638 250.153 247.638 250.658 247.891L256.849 251.434C257.354 251.687 257.228 252.193 256.722 252.573L250.658 256.116C250.153 256.495 249.268 256.495 248.763 256.242Z" fill="white"/>
<path d="M258.365 261.81L252.174 258.267C251.669 258.014 251.795 257.508 252.301 257.128L258.365 253.585C258.997 253.205 259.755 253.205 260.26 253.458L266.451 257.002C266.956 257.255 266.83 257.761 266.324 258.14L260.26 261.683C259.628 261.937 258.87 262.063 258.365 261.81Z" fill="white"/>
<path d="M267.84 267.251L261.65 263.708C261.144 263.455 261.271 262.949 261.776 262.569L267.84 259.026C268.472 258.647 269.23 258.647 269.735 258.9L275.926 262.443C276.431 262.696 276.305 263.202 275.8 263.582L269.735 267.125C269.23 267.504 268.346 267.504 267.84 267.251Z" fill="white"/>
<path d="M277.316 272.692L271.125 269.149C270.62 268.896 270.746 268.39 271.252 268.01L277.316 264.467C277.948 264.088 278.706 264.088 279.211 264.341L285.402 267.884C285.907 268.137 285.781 268.643 285.275 269.023L279.211 272.566C278.706 272.945 277.821 273.072 277.316 272.692Z" fill="white"/>
<path d="M286.918 278.26L280.727 274.717C280.222 274.464 280.348 273.958 280.853 273.578L286.918 270.035C287.549 269.655 288.307 269.655 288.813 269.909L295.003 273.452C295.509 273.705 295.382 274.211 294.877 274.591L288.813 278.134C288.181 278.513 287.297 278.513 286.918 278.26Z" fill="white"/>
<path d="M296.393 283.701L290.203 280.158C289.697 279.905 289.823 279.399 290.329 279.019L296.393 275.476C297.025 275.097 297.783 275.097 298.288 275.35L304.479 278.893C304.984 279.146 304.858 279.652 304.353 280.032L298.288 283.575C297.783 283.954 296.899 284.081 296.393 283.701Z" fill="white"/>
<path d="M305.869 289.269L299.678 285.726C299.173 285.473 299.299 284.967 299.804 284.587L305.869 281.044C306.5 280.664 307.258 280.664 307.764 280.917L313.954 284.461C314.46 284.714 314.333 285.22 313.828 285.599L307.764 289.143C307.258 289.522 306.374 289.522 305.869 289.269Z" fill="white"/>
<path d="M315.344 294.71L309.153 291.167C308.648 290.914 308.774 290.408 309.28 290.028L315.344 286.485C315.976 286.106 316.734 286.106 317.239 286.359L323.43 289.902C323.935 290.155 323.809 290.661 323.304 291.041L317.239 294.584C316.734 294.963 315.85 295.09 315.344 294.71Z" fill="white"/>
<path d="M243.836 242.703L237.645 239.159C237.14 238.906 237.266 238.4 237.772 238.021L243.836 234.478C244.468 234.098 245.226 234.098 245.731 234.351L251.922 237.894C252.427 238.147 252.301 238.653 251.795 239.033L245.731 242.576C245.099 242.829 244.341 242.956 243.836 242.703Z" fill="white"/>
<path d="M234.108 237.008L227.917 233.465C227.412 233.212 227.538 232.706 228.043 232.326L234.108 228.783C234.739 228.404 235.497 228.404 236.003 228.657L242.193 232.2C242.699 232.453 242.572 232.959 242.067 233.339L236.003 236.882C235.497 237.261 234.613 237.388 234.108 237.008Z" fill="white"/>
<path d="M224.506 231.441L211.24 223.722C210.735 223.469 210.861 222.962 211.366 222.583L217.431 219.04C218.062 218.66 218.821 218.66 219.326 218.913L232.592 226.632C233.097 226.885 232.971 227.391 232.465 227.771L226.401 231.314C225.769 231.694 225.011 231.694 224.506 231.441Z" fill="white"/>
<path d="M231.202 224.607L220.463 218.407C219.958 218.154 220.084 217.648 220.589 217.268L226.654 213.725C227.285 213.345 228.043 213.345 228.549 213.599L239.288 219.799C239.793 220.052 239.667 220.558 239.161 220.938L233.097 224.481C232.592 224.861 231.707 224.987 231.202 224.607Z" fill="white"/>
<path d="M253.311 248.144L247.121 244.601C246.615 244.348 246.742 243.841 247.247 243.462L253.311 239.919C253.943 239.539 254.701 239.539 255.206 239.792L261.397 243.335C261.902 243.588 261.776 244.095 261.271 244.474L255.206 248.017C254.701 248.397 253.817 248.397 253.311 248.144Z" fill="white"/>
<path d="M262.787 253.585L256.596 250.042C256.091 249.789 256.217 249.283 256.722 248.903L262.787 245.36C263.418 244.98 264.177 244.98 264.682 245.233L270.873 248.776C271.378 249.03 271.252 249.536 270.746 249.915L264.682 253.458C264.177 253.838 263.292 253.965 262.787 253.585Z" fill="white"/>
<path d="M272.389 259.153L266.198 255.61C265.693 255.357 265.819 254.85 266.324 254.471L272.389 250.928C273.02 250.548 273.778 250.548 274.284 250.801L280.474 254.344C280.98 254.597 280.853 255.103 280.348 255.483L274.284 259.026C273.652 259.406 272.768 259.406 272.389 259.153Z" fill="white"/>
<path d="M281.864 264.594L275.673 261.051C275.168 260.798 275.294 260.292 275.8 259.912L281.864 256.369C282.496 255.989 283.254 255.989 283.759 256.242L289.95 259.785C290.455 260.038 290.329 260.545 289.824 260.924L283.759 264.467C283.254 264.847 282.369 264.974 281.864 264.594Z" fill="white"/>
<path d="M291.34 270.162L285.149 266.619C284.644 266.365 284.77 265.859 285.275 265.48L291.34 261.937C291.971 261.557 292.729 261.557 293.235 261.81L299.425 265.353C299.931 265.606 299.804 266.112 299.299 266.492L293.235 270.035C292.729 270.415 291.845 270.415 291.34 270.162Z" fill="white"/>
<path d="M300.815 275.603L294.624 272.06C294.119 271.807 294.245 271.3 294.751 270.921L300.815 267.378C301.447 266.998 302.205 266.998 302.71 267.251L308.901 270.794C309.406 271.047 309.28 271.554 308.774 271.933L302.71 275.476C302.205 275.856 301.32 275.982 300.815 275.603Z" fill="white"/>
<path d="M310.417 281.171L304.226 277.627C303.721 277.374 303.847 276.868 304.353 276.489L310.417 272.945C311.049 272.566 311.807 272.566 312.312 272.819L318.503 276.362C319.008 276.615 318.882 277.121 318.376 277.501L312.312 281.044C311.807 281.424 310.922 281.424 310.417 281.171Z" fill="white"/>
<path d="M319.892 286.612L313.702 283.069C313.196 282.816 313.323 282.309 313.828 281.93L319.892 278.387C320.524 278.007 321.282 278.007 321.787 278.26L327.978 281.803C328.483 282.056 328.357 282.562 327.852 282.942L321.787 286.485C321.282 286.865 320.398 286.991 319.892 286.612Z" fill="white"/>
<path d="M329.368 292.179L323.177 288.636C322.672 288.383 322.798 287.877 323.304 287.498L329.368 283.954C330 283.575 330.758 283.575 331.263 283.828L337.454 287.371C337.959 287.624 337.833 288.13 337.327 288.51L331.263 292.053C330.758 292.433 329.873 292.433 329.368 292.179Z" fill="white"/>
<path d="M346.297 301.923L332.905 294.204C332.4 293.951 332.526 293.445 333.032 293.065L339.096 289.522C339.728 289.143 340.486 289.143 340.991 289.396L354.383 297.115C354.888 297.368 354.762 297.874 354.257 298.253L348.192 301.796C347.687 302.176 346.803 302.176 346.297 301.923Z" fill="white"/>
<path d="M364.869 291.167L353.499 284.587C352.993 284.334 353.12 283.828 353.625 283.448L359.689 279.905C360.321 279.526 361.079 279.526 361.584 279.779L372.955 286.359C373.46 286.612 373.334 287.118 372.829 287.498L366.764 291.041C366.259 291.42 365.375 291.547 364.869 291.167Z" fill="white"/>
<path d="M269.988 247.005L263.798 243.462C263.292 243.209 263.419 242.703 263.924 242.323L269.988 238.78C270.62 238.4 271.378 238.4 271.883 238.653L278.074 242.196C278.579 242.449 278.453 242.956 277.948 243.335L271.883 246.878C271.378 247.258 270.494 247.385 269.988 247.005Z" fill="white"/>
<path d="M260.26 241.437L254.069 237.894C253.564 237.641 253.69 237.135 254.196 236.755L260.26 233.212C260.892 232.833 261.65 232.832 262.155 233.086L268.346 236.629C268.851 236.882 268.725 237.388 268.219 237.768L262.155 241.311C261.523 241.69 260.765 241.69 260.26 241.437Z" fill="white"/>
<path d="M250.405 235.743L244.215 232.2C243.709 231.947 243.836 231.441 244.341 231.061L250.405 227.518C251.037 227.138 251.795 227.138 252.301 227.391L258.491 230.934C258.997 231.187 258.87 231.694 258.365 232.073L252.301 235.616C251.795 235.996 250.911 236.123 250.405 235.743Z" fill="white"/>
<path d="M240.677 230.175L234.487 226.632C233.981 226.379 234.108 225.873 234.613 225.493L240.677 221.95C241.309 221.57 242.067 221.571 242.572 221.824L248.763 225.367C249.268 225.62 249.142 226.126 248.637 226.506L242.572 230.049C242.067 230.428 241.183 230.428 240.677 230.175Z" fill="white"/>
<path d="M279.464 252.573L273.273 249.03C272.768 248.776 272.894 248.27 273.399 247.891L279.464 244.348C280.095 243.968 280.853 243.968 281.359 244.221L287.549 247.764C288.055 248.017 287.928 248.523 287.423 248.903L281.359 252.446C280.853 252.826 279.969 252.826 279.464 252.573Z" fill="white"/>
<path d="M288.939 258.014L282.748 254.471C282.243 254.218 282.369 253.712 282.875 253.332L288.939 249.789C289.571 249.409 290.329 249.409 290.834 249.662L297.025 253.205C297.53 253.458 297.404 253.965 296.899 254.344L290.834 257.887C290.329 258.267 289.444 258.393 288.939 258.014Z" fill="white"/>
<path d="M298.541 263.582L292.35 260.038C291.845 259.785 291.971 259.279 292.477 258.9L298.541 255.357C299.173 254.977 299.931 254.977 300.436 255.23L306.627 258.773C307.132 259.026 307.006 259.532 306.5 259.912L300.436 263.455C299.931 263.835 299.046 263.835 298.541 263.582Z" fill="white"/>
<path d="M308.016 269.023L301.826 265.48C301.32 265.227 301.447 264.72 301.952 264.341L308.016 260.798C308.648 260.418 309.406 260.418 309.911 260.671L316.102 264.214C316.607 264.467 316.481 264.974 315.976 265.353L309.911 268.896C309.406 269.276 308.522 269.402 308.016 269.023Z" fill="white"/>
<path d="M317.492 274.591L311.301 271.047C310.796 270.794 310.922 270.288 311.428 269.909L317.492 266.365C318.124 265.986 318.882 265.986 319.387 266.239L325.578 269.782C326.083 270.035 325.957 270.541 325.451 270.921L319.387 274.464C318.882 274.844 317.997 274.844 317.492 274.591Z" fill="white"/>
<path d="M327.094 280.032L320.903 276.489C320.398 276.236 320.524 275.729 321.029 275.35L327.094 271.807C327.725 271.427 328.483 271.427 328.989 271.68L335.179 275.223C335.685 275.476 335.558 275.982 335.053 276.362L328.989 279.905C328.357 280.285 327.599 280.411 327.094 280.032Z" fill="white"/>
<path d="M336.569 285.599L330.379 282.056C329.873 281.803 330 281.297 330.505 280.917L336.569 277.374C337.201 276.995 337.959 276.995 338.464 277.248L344.655 280.791C345.16 281.044 345.034 281.55 344.529 281.93L338.464 285.473C337.959 285.853 337.075 285.853 336.569 285.599Z" fill="white"/>
<path d="M346.045 291.041L339.854 287.498C339.349 287.244 339.475 286.738 339.98 286.359L346.045 282.816C346.676 282.436 347.434 282.436 347.94 282.689L354.13 286.232C354.636 286.485 354.509 286.991 354.004 287.371L347.94 290.914C347.434 291.294 346.55 291.42 346.045 291.041Z" fill="white"/>
<path d="M355.647 296.608L349.456 293.065C348.951 292.812 349.077 292.306 349.582 291.926L355.647 288.383C356.278 288.004 357.036 288.004 357.542 288.257L363.732 291.8C364.238 292.053 364.111 292.559 363.606 292.939L357.542 296.482C356.91 296.861 356.026 296.861 355.647 296.608Z" fill="white"/>
<path d="M264.935 233.465L258.744 229.922C258.239 229.669 258.365 229.163 258.87 228.783L264.935 225.24C265.566 224.861 266.324 224.861 266.83 225.114L273.02 228.657C273.526 228.91 273.399 229.416 272.894 229.796L266.83 233.339C266.324 233.718 265.44 233.718 264.935 233.465Z" fill="white"/>
<path d="M255.459 228.024L249.268 224.481C248.763 224.228 248.889 223.722 249.395 223.342L255.459 219.799C256.091 219.419 256.849 219.419 257.354 219.672L263.545 223.216C264.05 223.469 263.924 223.975 263.418 224.354L257.354 227.897C256.849 228.277 255.964 228.277 255.459 228.024Z" fill="white"/>
<path d="M245.984 222.456L239.793 218.913C239.288 218.66 239.414 218.154 239.919 217.774L245.984 214.231C246.615 213.852 247.373 213.852 247.879 214.105L254.069 217.648C254.575 217.901 254.448 218.407 253.943 218.787L247.879 222.33C247.373 222.709 246.489 222.836 245.984 222.456Z" fill="white"/>
<path d="M236.508 217.015L230.317 213.472C229.812 213.219 229.938 212.713 230.444 212.333L236.508 208.79C237.14 208.41 237.898 208.41 238.403 208.663L244.594 212.207C245.099 212.46 244.973 212.966 244.467 213.345L238.403 216.889C237.898 217.268 237.013 217.268 236.508 217.015Z" fill="white"/>
<path d="M246.236 211.447L240.046 207.904C239.54 207.651 239.667 207.145 240.172 206.765L242.193 205.627C242.825 205.247 243.583 205.247 244.088 205.5L250.279 209.043C250.784 209.296 250.658 209.802 250.153 210.182L248.131 211.321C247.626 211.7 246.742 211.7 246.236 211.447Z" fill="white"/>
<path d="M258.618 218.534L252.427 214.99C251.922 214.737 252.048 214.231 252.553 213.852L254.575 212.713C255.206 212.333 255.964 212.333 256.47 212.586L262.66 216.129C263.166 216.382 263.039 216.889 262.534 217.268L260.513 218.407C260.007 218.787 259.123 218.787 258.618 218.534Z" fill="white"/>
<path d="M268.093 223.975L261.902 220.432C261.397 220.179 261.523 219.672 262.029 219.293L264.05 218.154C264.682 217.774 265.44 217.774 265.945 218.027L272.136 221.571C272.641 221.824 272.515 222.33 272.01 222.709L269.988 223.848C269.483 224.228 268.598 224.228 268.093 223.975Z" fill="white"/>
<path d="M277.442 229.416L271.252 225.873C270.746 225.62 270.873 225.114 271.378 224.734L273.399 223.595C274.031 223.216 274.789 223.216 275.294 223.469L281.485 227.012C281.99 227.265 281.864 227.771 281.359 228.151L279.337 229.289C278.832 229.669 277.948 229.796 277.442 229.416Z" fill="white"/>
<path d="M286.918 234.857L280.727 231.314C280.222 231.061 280.348 230.555 280.853 230.175L282.875 229.036C283.507 228.657 284.265 228.657 284.77 228.91L290.961 232.453C291.466 232.706 291.34 233.212 290.834 233.592L288.813 234.731C288.307 235.11 287.423 235.237 286.918 234.857Z" fill="white"/>
<path d="M339.601 265.353L333.411 261.81C332.905 261.557 333.032 261.051 333.537 260.671L335.558 259.532C336.19 259.153 336.948 259.153 337.454 259.406L343.644 262.949C344.15 263.202 344.023 263.708 343.518 264.088L341.496 265.227C340.865 265.606 340.107 265.606 339.601 265.353Z" fill="white"/>
<path d="M348.951 270.794L342.76 267.251C342.255 266.998 342.381 266.492 342.886 266.112L344.908 264.974C345.539 264.594 346.297 264.594 346.803 264.847L352.993 268.39C353.499 268.643 353.372 269.149 352.867 269.529L350.846 270.668C350.34 271.047 349.456 271.047 348.951 270.794Z" fill="white"/>
<path d="M358.426 276.236L352.235 272.692C351.73 272.439 351.856 271.933 352.362 271.554L354.383 270.415C355.015 270.035 355.773 270.035 356.278 270.288L362.469 273.831C362.974 274.084 362.848 274.591 362.343 274.97L360.321 276.109C359.816 276.489 358.931 276.489 358.426 276.236Z" fill="white"/>
<path d="M367.901 281.677L361.711 278.134C361.205 277.881 361.332 277.374 361.837 276.995L363.859 275.856C364.49 275.476 365.248 275.476 365.754 275.729L371.944 279.272C372.45 279.526 372.323 280.032 371.818 280.411L369.797 281.55C369.165 281.93 368.281 281.93 367.901 281.677Z" fill="white"/>
<path d="M274.41 238.906L268.219 235.363C267.714 235.11 267.84 234.604 268.346 234.224L274.41 230.681C275.042 230.302 275.8 230.302 276.305 230.555L282.496 234.098C283.001 234.351 282.875 234.857 282.369 235.237L276.305 238.78C275.8 239.159 274.915 239.286 274.41 238.906Z" fill="white"/>
<path d="M284.012 244.474L277.821 240.931C277.316 240.678 277.442 240.172 277.948 239.792L284.012 236.249C284.644 235.869 285.402 235.869 285.907 236.123L292.098 239.666C292.603 239.919 292.477 240.425 291.971 240.804L285.907 244.348C285.402 244.727 284.517 244.727 284.012 244.474Z" fill="white"/>
<path d="M293.487 249.915L287.297 246.372C286.791 246.119 286.918 245.613 287.423 245.233L293.487 241.69C294.119 241.311 294.877 241.311 295.382 241.564L301.573 245.107C302.078 245.36 301.952 245.866 301.447 246.246L295.382 249.789C294.877 250.168 293.993 250.295 293.487 249.915Z" fill="white"/>
<path d="M302.963 255.483L296.772 251.94C296.267 251.687 296.393 251.181 296.898 250.801L302.963 247.258C303.595 246.878 304.353 246.878 304.858 247.131L311.049 250.675C311.554 250.928 311.428 251.434 310.922 251.813L304.858 255.357C304.353 255.736 303.468 255.736 302.963 255.483Z" fill="white"/>
<path d="M312.565 260.924L306.374 257.381C305.869 257.128 305.995 256.622 306.5 256.242L312.565 252.699C313.196 252.32 313.954 252.32 314.46 252.573L320.65 256.116C321.156 256.369 321.029 256.875 320.524 257.255L314.46 260.798C313.828 261.177 313.07 261.304 312.565 260.924Z" fill="white"/>
<path d="M322.04 266.492L315.849 262.949C315.344 262.696 315.47 262.19 315.976 261.81L322.04 258.267C322.672 257.887 323.43 257.887 323.935 258.14L330.126 261.683C330.631 261.937 330.505 262.443 330 262.822L323.935 266.365C323.43 266.745 322.545 266.745 322.04 266.492Z" fill="white"/>
<path d="M331.516 271.933L325.325 268.39C324.82 268.137 324.946 267.631 325.451 267.251L331.516 263.708C332.147 263.328 332.905 263.329 333.411 263.582L339.601 267.125C340.107 267.378 339.98 267.884 339.475 268.264L333.411 271.807C332.905 272.186 332.021 272.313 331.516 271.933Z" fill="white"/>
<path d="M341.117 277.501L334.927 273.958C334.421 273.705 334.548 273.199 335.053 272.819L341.117 269.276C341.749 268.896 342.507 268.896 343.013 269.149L349.203 272.692C349.709 272.945 349.582 273.452 349.077 273.831L343.013 277.374C342.381 277.754 341.623 277.754 341.117 277.501Z" fill="white"/>
<path d="M350.593 282.942L344.402 279.399C343.897 279.146 344.023 278.64 344.529 278.26L350.593 274.717C351.225 274.337 351.983 274.337 352.488 274.591L358.679 278.134C359.184 278.387 359.058 278.893 358.552 279.272L352.488 282.816C351.983 283.195 351.098 283.195 350.593 282.942Z" fill="white"/>
<path d="M220.084 239.666L201.891 229.163C201.386 228.91 201.512 228.404 202.017 228.024L208.082 224.481C208.713 224.101 209.471 224.101 209.977 224.354L228.17 234.857C228.675 235.11 228.549 235.616 228.043 235.996L221.979 239.539C221.474 239.919 220.589 239.919 220.084 239.666Z" fill="white"/>
<path d="M336.948 307.238L318.755 296.735C318.25 296.482 318.376 295.976 318.882 295.596L324.946 292.053C325.578 291.673 326.336 291.673 326.841 291.926L345.034 302.429C345.539 302.682 345.413 303.188 344.908 303.568L338.843 307.111C338.338 307.491 337.454 307.491 336.948 307.238Z" fill="white"/>
<path d="M298.92 297.368L292.729 293.824C292.224 293.571 292.35 293.065 292.856 292.686L300.183 288.51C300.815 288.13 301.573 288.13 302.078 288.383L308.269 291.926C308.774 292.179 308.648 292.686 308.143 293.065L300.815 297.241C300.31 297.621 299.425 297.621 298.92 297.368Z" fill="white"/>
<path d="M229.812 257.381L219.958 251.687C219.452 251.434 219.579 250.928 220.084 250.548L227.412 246.372C228.043 245.993 228.801 245.993 229.307 246.246L239.161 251.94C239.667 252.193 239.54 252.699 239.035 253.079L231.707 257.255C231.202 257.634 230.317 257.761 229.812 257.381Z" fill="white"/>
<path d="M289.697 292.053L279.843 286.359C279.337 286.106 279.464 285.599 279.969 285.22L287.297 281.044C287.928 280.664 288.686 280.664 289.192 280.917L299.046 286.612C299.552 286.865 299.425 287.371 298.92 287.751L291.592 291.926C291.087 292.306 290.203 292.306 289.697 292.053Z" fill="white"/>
<path d="M243.583 265.353L233.729 259.659C233.223 259.406 233.35 258.9 233.855 258.52L241.183 254.344C241.814 253.965 242.572 253.965 243.078 254.218L252.932 259.912C253.438 260.165 253.311 260.671 252.806 261.051L245.478 265.227C244.847 265.606 244.088 265.606 243.583 265.353Z" fill="white"/>
<path d="M243.078 254.344L285.907 279.146C286.412 279.399 286.412 279.905 285.907 280.285L278.453 284.587C277.948 284.84 277.063 284.84 276.558 284.587L233.729 259.659L243.078 254.344Z" fill="white"/>
<path d="M325.451 307.364L332.274 311.287C332.653 311.54 332.653 311.92 332.147 312.173L329.115 313.944C328.61 314.197 327.978 314.197 327.473 314.071L320.65 310.148C320.271 309.895 320.271 309.515 320.777 309.262L323.809 307.491C324.441 307.111 325.072 307.111 325.451 307.364Z" fill="white"/>
<path d="M315.85 301.796L322.672 305.719C323.051 305.972 323.051 306.352 322.546 306.605L319.513 308.377C319.008 308.63 318.376 308.63 317.871 308.503L311.049 304.58C310.67 304.327 310.67 303.948 311.175 303.695L314.207 301.923C314.839 301.543 315.471 301.543 315.85 301.796Z" fill="white"/>
<path d="M306.374 296.355L313.196 300.278C313.575 300.531 313.575 300.911 313.07 301.164L310.038 302.935C309.532 303.188 308.901 303.188 308.395 303.062L301.573 299.139C301.194 298.886 301.194 298.506 301.699 298.253L304.732 296.482C305.237 296.102 305.995 296.102 306.374 296.355Z" fill="white"/>
<path d="M321.156 298.76L327.978 302.682C328.357 302.935 328.357 303.315 327.852 303.568L324.82 305.34C324.314 305.593 323.683 305.593 323.177 305.466L316.355 301.543C315.976 301.29 315.976 300.911 316.481 300.658L319.513 298.886C320.019 298.506 320.777 298.506 321.156 298.76Z" fill="white"/>
</g>
<g opacity="0.4">
<path d="M197.595 238.78L191.405 235.237C190.899 234.984 191.026 234.478 191.531 234.098L198.859 229.922C199.491 229.542 200.249 229.542 200.754 229.796L206.945 233.339C207.45 233.592 207.324 234.098 206.818 234.478L199.491 238.653C198.985 239.033 198.101 239.033 197.595 238.78Z" fill="white"/>
<path d="M207.071 244.348L200.88 240.804C200.375 240.551 200.501 240.045 201.007 239.666L208.334 235.49C208.966 235.11 209.724 235.11 210.229 235.363L216.42 238.906C216.925 239.159 216.799 239.666 216.294 240.045L208.966 244.221C208.461 244.474 207.576 244.601 207.071 244.348Z" fill="white"/>
<path d="M216.673 249.789L210.482 246.246C209.977 245.993 210.103 245.486 210.608 245.107L217.936 240.931C218.568 240.551 219.326 240.551 219.831 240.804L226.022 244.348C226.527 244.601 226.401 245.107 225.896 245.486L218.568 249.662C217.936 250.042 217.052 250.042 216.673 249.789Z" fill="white"/>
<path d="M229.812 245.233L223.621 241.69C223.116 241.437 223.242 240.931 223.748 240.551L229.812 237.008C230.444 236.629 231.202 236.629 231.707 236.882L237.898 240.425C238.403 240.678 238.277 241.184 237.772 241.564L231.707 245.107C231.075 245.486 230.317 245.486 229.812 245.233Z" fill="white"/>
<path d="M239.288 250.801L233.097 247.258C232.592 247.005 232.718 246.499 233.223 246.119L239.288 242.576C239.919 242.196 240.677 242.196 241.183 242.45L247.373 245.993C247.879 246.246 247.752 246.752 247.247 247.131L241.183 250.675C240.677 251.054 239.793 251.054 239.288 250.801Z" fill="white"/>
<path d="M248.763 256.242L242.572 252.699C242.067 252.446 242.193 251.94 242.699 251.56L248.763 248.017C249.395 247.638 250.153 247.638 250.658 247.891L256.849 251.434C257.354 251.687 257.228 252.193 256.722 252.573L250.658 256.116C250.153 256.495 249.268 256.495 248.763 256.242Z" fill="white"/>
<path d="M258.365 261.81L252.174 258.267C251.669 258.014 251.795 257.508 252.301 257.128L258.365 253.585C258.997 253.205 259.755 253.205 260.26 253.458L266.451 257.002C266.956 257.255 266.83 257.761 266.324 258.14L260.26 261.683C259.628 261.937 258.87 262.063 258.365 261.81Z" fill="white"/>
<path d="M267.84 267.251L261.65 263.708C261.144 263.455 261.271 262.949 261.776 262.569L267.84 259.026C268.472 258.647 269.23 258.647 269.735 258.9L275.926 262.443C276.431 262.696 276.305 263.202 275.8 263.582L269.735 267.125C269.23 267.504 268.346 267.504 267.84 267.251Z" fill="white"/>
<path d="M277.316 272.692L271.125 269.149C270.62 268.896 270.746 268.39 271.252 268.01L277.316 264.467C277.948 264.088 278.706 264.088 279.211 264.341L285.402 267.884C285.907 268.137 285.781 268.643 285.275 269.023L279.211 272.566C278.706 272.945 277.821 273.072 277.316 272.692Z" fill="white"/>
<path d="M286.918 278.26L280.727 274.717C280.222 274.464 280.348 273.958 280.853 273.578L286.918 270.035C287.549 269.655 288.307 269.655 288.813 269.909L295.003 273.452C295.509 273.705 295.382 274.211 294.877 274.591L288.813 278.134C288.181 278.513 287.297 278.513 286.918 278.26Z" fill="white"/>
<path d="M296.393 283.701L290.203 280.158C289.697 279.905 289.823 279.399 290.329 279.019L296.393 275.476C297.025 275.097 297.783 275.097 298.288 275.35L304.479 278.893C304.984 279.146 304.858 279.652 304.353 280.032L298.288 283.575C297.783 283.954 296.899 284.081 296.393 283.701Z" fill="white"/>
<path d="M305.869 289.269L299.678 285.726C299.173 285.473 299.299 284.967 299.804 284.587L305.869 281.044C306.5 280.664 307.258 280.664 307.764 280.917L313.954 284.461C314.46 284.714 314.333 285.22 313.828 285.599L307.764 289.143C307.258 289.522 306.374 289.522 305.869 289.269Z" fill="white"/>
<path d="M315.344 294.71L309.153 291.167C308.648 290.914 308.774 290.408 309.28 290.028L315.344 286.485C315.976 286.106 316.734 286.106 317.239 286.359L323.43 289.902C323.935 290.155 323.809 290.661 323.304 291.041L317.239 294.584C316.734 294.963 315.85 295.09 315.344 294.71Z" fill="white"/>
<path d="M243.836 242.703L237.645 239.159C237.14 238.906 237.266 238.4 237.772 238.021L243.836 234.478C244.468 234.098 245.226 234.098 245.731 234.351L251.922 237.894C252.427 238.147 252.301 238.653 251.795 239.033L245.731 242.576C245.099 242.829 244.341 242.956 243.836 242.703Z" fill="white"/>
<path d="M234.108 237.008L227.917 233.465C227.412 233.212 227.538 232.706 228.043 232.326L234.108 228.783C234.739 228.404 235.497 228.404 236.003 228.657L242.193 232.2C242.699 232.453 242.572 232.959 242.067 233.339L236.003 236.882C235.497 237.261 234.613 237.388 234.108 237.008Z" fill="white"/>
<path d="M224.506 231.441L211.24 223.722C210.735 223.469 210.861 222.962 211.366 222.583L217.431 219.04C218.062 218.66 218.821 218.66 219.326 218.913L232.592 226.632C233.097 226.885 232.971 227.391 232.465 227.771L226.401 231.314C225.769 231.694 225.011 231.694 224.506 231.441Z" fill="white"/>
<path d="M231.202 224.607L220.463 218.407C219.958 218.154 220.084 217.648 220.589 217.268L226.654 213.725C227.285 213.345 228.043 213.345 228.549 213.599L239.288 219.799C239.793 220.052 239.667 220.558 239.161 220.938L233.097 224.481C232.592 224.861 231.707 224.987 231.202 224.607Z" fill="white"/>
<path d="M253.311 248.144L247.121 244.601C246.615 244.348 246.742 243.841 247.247 243.462L253.311 239.919C253.943 239.539 254.701 239.539 255.206 239.792L261.397 243.335C261.902 243.588 261.776 244.095 261.271 244.474L255.206 248.017C254.701 248.397 253.817 248.397 253.311 248.144Z" fill="white"/>
<path d="M262.787 253.585L256.596 250.042C256.091 249.789 256.217 249.283 256.722 248.903L262.787 245.36C263.418 244.98 264.177 244.98 264.682 245.233L270.873 248.776C271.378 249.03 271.252 249.536 270.746 249.915L264.682 253.458C264.177 253.838 263.292 253.965 262.787 253.585Z" fill="white"/>
<path d="M272.389 259.153L266.198 255.61C265.693 255.357 265.819 254.85 266.324 254.471L272.389 250.928C273.02 250.548 273.778 250.548 274.284 250.801L280.474 254.344C280.98 254.597 280.853 255.103 280.348 255.483L274.284 259.026C273.652 259.406 272.768 259.406 272.389 259.153Z" fill="white"/>
<path d="M281.864 264.594L275.673 261.051C275.168 260.798 275.294 260.292 275.8 259.912L281.864 256.369C282.496 255.989 283.254 255.989 283.759 256.242L289.95 259.785C290.455 260.038 290.329 260.545 289.824 260.924L283.759 264.467C283.254 264.847 282.369 264.974 281.864 264.594Z" fill="white"/>
<path d="M291.34 270.162L285.149 266.619C284.644 266.365 284.77 265.859 285.275 265.48L291.34 261.937C291.971 261.557 292.729 261.557 293.235 261.81L299.425 265.353C299.931 265.606 299.804 266.112 299.299 266.492L293.235 270.035C292.729 270.415 291.845 270.415 291.34 270.162Z" fill="white"/>
<path d="M300.815 275.603L294.624 272.06C294.119 271.807 294.245 271.3 294.751 270.921L300.815 267.378C301.447 266.998 302.205 266.998 302.71 267.251L308.901 270.794C309.406 271.047 309.28 271.554 308.774 271.933L302.71 275.476C302.205 275.856 301.32 275.982 300.815 275.603Z" fill="white"/>
<path d="M310.417 281.171L304.226 277.627C303.721 277.374 303.847 276.868 304.353 276.489L310.417 272.945C311.049 272.566 311.807 272.566 312.312 272.819L318.503 276.362C319.008 276.615 318.882 277.121 318.376 277.501L312.312 281.044C311.807 281.424 310.922 281.424 310.417 281.171Z" fill="white"/>
<path d="M319.892 286.612L313.702 283.069C313.196 282.816 313.323 282.309 313.828 281.93L319.892 278.387C320.524 278.007 321.282 278.007 321.787 278.26L327.978 281.803C328.483 282.056 328.357 282.562 327.852 282.942L321.787 286.485C321.282 286.865 320.398 286.991 319.892 286.612Z" fill="white"/>
<path d="M329.368 292.179L323.177 288.636C322.672 288.383 322.798 287.877 323.304 287.498L329.368 283.954C330 283.575 330.758 283.575 331.263 283.828L337.454 287.371C337.959 287.624 337.833 288.13 337.327 288.51L331.263 292.053C330.758 292.433 329.873 292.433 329.368 292.179Z" fill="white"/>
<path d="M346.297 301.923L332.905 294.204C332.4 293.951 332.526 293.445 333.032 293.065L339.096 289.522C339.728 289.143 340.486 289.143 340.991 289.396L354.383 297.115C354.888 297.368 354.762 297.874 354.257 298.253L348.192 301.796C347.687 302.176 346.803 302.176 346.297 301.923Z" fill="white"/>
<path d="M364.869 291.167L353.499 284.587C352.993 284.334 353.12 283.828 353.625 283.448L359.689 279.905C360.321 279.526 361.079 279.526 361.584 279.779L372.955 286.359C373.46 286.612 373.334 287.118 372.829 287.498L366.764 291.041C366.259 291.42 365.375 291.547 364.869 291.167Z" fill="white"/>
<path d="M269.988 247.005L263.798 243.462C263.292 243.209 263.419 242.703 263.924 242.323L269.988 238.78C270.62 238.4 271.378 238.4 271.883 238.653L278.074 242.196C278.579 242.449 278.453 242.956 277.948 243.335L271.883 246.878C271.378 247.258 270.494 247.385 269.988 247.005Z" fill="white"/>
<path d="M260.26 241.437L254.069 237.894C253.564 237.641 253.69 237.135 254.196 236.755L260.26 233.212C260.892 232.833 261.65 232.832 262.155 233.086L268.346 236.629C268.851 236.882 268.725 237.388 268.219 237.768L262.155 241.311C261.523 241.69 260.765 241.69 260.26 241.437Z" fill="white"/>
<path d="M250.405 235.743L244.215 232.2C243.709 231.947 243.836 231.441 244.341 231.061L250.405 227.518C251.037 227.138 251.795 227.138 252.301 227.391L258.491 230.934C258.997 231.187 258.87 231.694 258.365 232.073L252.301 235.616C251.795 235.996 250.911 236.123 250.405 235.743Z" fill="white"/>
<path d="M240.677 230.175L234.487 226.632C233.981 226.379 234.108 225.873 234.613 225.493L240.677 221.95C241.309 221.57 242.067 221.571 242.572 221.824L248.763 225.367C249.268 225.62 249.142 226.126 248.637 226.506L242.572 230.049C242.067 230.428 241.183 230.428 240.677 230.175Z" fill="white"/>
<path d="M279.464 252.573L273.273 249.03C272.768 248.776 272.894 248.27 273.399 247.891L279.464 244.348C280.095 243.968 280.853 243.968 281.359 244.221L287.549 247.764C288.055 248.017 287.928 248.523 287.423 248.903L281.359 252.446C280.853 252.826 279.969 252.826 279.464 252.573Z" fill="white"/>
<path d="M288.939 258.014L282.748 254.471C282.243 254.218 282.369 253.712 282.875 253.332L288.939 249.789C289.571 249.409 290.329 249.409 290.834 249.662L297.025 253.205C297.53 253.458 297.404 253.965 296.899 254.344L290.834 257.887C290.329 258.267 289.444 258.393 288.939 258.014Z" fill="white"/>
<path d="M298.541 263.582L292.35 260.038C291.845 259.785 291.971 259.279 292.477 258.9L298.541 255.357C299.173 254.977 299.931 254.977 300.436 255.23L306.627 258.773C307.132 259.026 307.006 259.532 306.5 259.912L300.436 263.455C299.931 263.835 299.046 263.835 298.541 263.582Z" fill="white"/>
<path d="M308.016 269.023L301.826 265.48C301.32 265.227 301.447 264.72 301.952 264.341L308.016 260.798C308.648 260.418 309.406 260.418 309.911 260.671L316.102 264.214C316.607 264.467 316.481 264.974 315.976 265.353L309.911 268.896C309.406 269.276 308.522 269.402 308.016 269.023Z" fill="white"/>
<path d="M317.492 274.591L311.301 271.047C310.796 270.794 310.922 270.288 311.428 269.909L317.492 266.365C318.124 265.986 318.882 265.986 319.387 266.239L325.578 269.782C326.083 270.035 325.957 270.541 325.451 270.921L319.387 274.464C318.882 274.844 317.997 274.844 317.492 274.591Z" fill="white"/>
<path d="M327.094 280.032L320.903 276.489C320.398 276.236 320.524 275.729 321.029 275.35L327.094 271.807C327.725 271.427 328.483 271.427 328.989 271.68L335.179 275.223C335.685 275.476 335.558 275.982 335.053 276.362L328.989 279.905C328.357 280.285 327.599 280.411 327.094 280.032Z" fill="white"/>
<path d="M336.569 285.599L330.379 282.056C329.873 281.803 330 281.297 330.505 280.917L336.569 277.374C337.201 276.995 337.959 276.995 338.464 277.248L344.655 280.791C345.16 281.044 345.034 281.55 344.529 281.93L338.464 285.473C337.959 285.853 337.075 285.853 336.569 285.599Z" fill="white"/>
<path d="M346.045 291.041L339.854 287.498C339.349 287.244 339.475 286.738 339.98 286.359L346.045 282.816C346.676 282.436 347.434 282.436 347.94 282.689L354.13 286.232C354.636 286.485 354.509 286.991 354.004 287.371L347.94 290.914C347.434 291.294 346.55 291.42 346.045 291.041Z" fill="white"/>
<path d="M355.647 296.608L349.456 293.065C348.951 292.812 349.077 292.306 349.582 291.926L355.647 288.383C356.278 288.004 357.036 288.004 357.542 288.257L363.732 291.8C364.238 292.053 364.111 292.559 363.606 292.939L357.542 296.482C356.91 296.861 356.026 296.861 355.647 296.608Z" fill="white"/>
<path d="M264.935 233.465L258.744 229.922C258.239 229.669 258.365 229.163 258.87 228.783L264.935 225.24C265.566 224.861 266.324 224.861 266.83 225.114L273.02 228.657C273.526 228.91 273.399 229.416 272.894 229.796L266.83 233.339C266.324 233.718 265.44 233.718 264.935 233.465Z" fill="white"/>
<path d="M255.459 228.024L249.268 224.481C248.763 224.228 248.889 223.722 249.395 223.342L255.459 219.799C256.091 219.419 256.849 219.419 257.354 219.672L263.545 223.216C264.05 223.469 263.924 223.975 263.418 224.354L257.354 227.897C256.849 228.277 255.964 228.277 255.459 228.024Z" fill="white"/>
<path d="M245.984 222.456L239.793 218.913C239.288 218.66 239.414 218.154 239.919 217.774L245.984 214.231C246.615 213.852 247.373 213.852 247.879 214.105L254.069 217.648C254.575 217.901 254.448 218.407 253.943 218.787L247.879 222.33C247.373 222.709 246.489 222.836 245.984 222.456Z" fill="white"/>
<path d="M236.508 217.015L230.317 213.472C229.812 213.219 229.938 212.713 230.444 212.333L236.508 208.79C237.14 208.41 237.898 208.41 238.403 208.663L244.594 212.207C245.099 212.46 244.973 212.966 244.467 213.345L238.403 216.889C237.898 217.268 237.013 217.268 236.508 217.015Z" fill="white"/>
<path d="M246.236 211.447L240.046 207.904C239.54 207.651 239.667 207.145 240.172 206.765L242.193 205.627C242.825 205.247 243.583 205.247 244.088 205.5L250.279 209.043C250.784 209.296 250.658 209.802 250.153 210.182L248.131 211.321C247.626 211.7 246.742 211.7 246.236 211.447Z" fill="white"/>
<path d="M258.618 218.534L252.427 214.99C251.922 214.737 252.048 214.231 252.553 213.852L254.575 212.713C255.206 212.333 255.964 212.333 256.47 212.586L262.66 216.129C263.166 216.382 263.039 216.889 262.534 217.268L260.513 218.407C260.007 218.787 259.123 218.787 258.618 218.534Z" fill="white"/>
<path d="M268.093 223.975L261.902 220.432C261.397 220.179 261.523 219.672 262.029 219.293L264.05 218.154C264.682 217.774 265.44 217.774 265.945 218.027L272.136 221.571C272.641 221.824 272.515 222.33 272.01 222.709L269.988 223.848C269.483 224.228 268.598 224.228 268.093 223.975Z" fill="white"/>
<path d="M277.442 229.416L271.252 225.873C270.746 225.62 270.873 225.114 271.378 224.734L273.399 223.595C274.031 223.216 274.789 223.216 275.294 223.469L281.485 227.012C281.99 227.265 281.864 227.771 281.359 228.151L279.337 229.289C278.832 229.669 277.948 229.796 277.442 229.416Z" fill="white"/>
<path d="M286.918 234.857L280.727 231.314C280.222 231.061 280.348 230.555 280.853 230.175L282.875 229.036C283.507 228.657 284.265 228.657 284.77 228.91L290.961 232.453C291.466 232.706 291.34 233.212 290.834 233.592L288.813 234.731C288.307 235.11 287.423 235.237 286.918 234.857Z" fill="white"/>
<path d="M339.601 265.353L333.411 261.81C332.905 261.557 333.032 261.051 333.537 260.671L335.558 259.532C336.19 259.153 336.948 259.153 337.454 259.406L343.644 262.949C344.15 263.202 344.023 263.708 343.518 264.088L341.496 265.227C340.865 265.606 340.107 265.606 339.601 265.353Z" fill="white"/>
<path d="M348.951 270.794L342.76 267.251C342.255 266.998 342.381 266.492 342.886 266.112L344.908 264.974C345.539 264.594 346.297 264.594 346.803 264.847L352.993 268.39C353.499 268.643 353.372 269.149 352.867 269.529L350.846 270.668C350.34 271.047 349.456 271.047 348.951 270.794Z" fill="white"/>
<path d="M358.426 276.236L352.235 272.692C351.73 272.439 351.856 271.933 352.362 271.554L354.383 270.415C355.015 270.035 355.773 270.035 356.278 270.288L362.469 273.831C362.974 274.084 362.848 274.591 362.343 274.97L360.321 276.109C359.816 276.489 358.931 276.489 358.426 276.236Z" fill="white"/>
<path d="M367.901 281.677L361.711 278.134C361.205 277.881 361.332 277.374 361.837 276.995L363.859 275.856C364.49 275.476 365.248 275.476 365.754 275.729L371.944 279.272C372.45 279.526 372.323 280.032 371.818 280.411L369.797 281.55C369.165 281.93 368.281 281.93 367.901 281.677Z" fill="white"/>
<path d="M274.41 238.906L268.219 235.363C267.714 235.11 267.84 234.604 268.346 234.224L274.41 230.681C275.042 230.302 275.8 230.302 276.305 230.555L282.496 234.098C283.001 234.351 282.875 234.857 282.369 235.237L276.305 238.78C275.8 239.159 274.915 239.286 274.41 238.906Z" fill="white"/>
<path d="M284.012 244.474L277.821 240.931C277.316 240.678 277.442 240.172 277.948 239.792L284.012 236.249C284.644 235.869 285.402 235.869 285.907 236.123L292.098 239.666C292.603 239.919 292.477 240.425 291.971 240.804L285.907 244.348C285.402 244.727 284.517 244.727 284.012 244.474Z" fill="white"/>
<path d="M293.487 249.915L287.297 246.372C286.791 246.119 286.918 245.613 287.423 245.233L293.487 241.69C294.119 241.311 294.877 241.311 295.382 241.564L301.573 245.107C302.078 245.36 301.952 245.866 301.447 246.246L295.382 249.789C294.877 250.168 293.993 250.295 293.487 249.915Z" fill="white"/>
<path d="M302.963 255.483L296.772 251.94C296.267 251.687 296.393 251.181 296.898 250.801L302.963 247.258C303.595 246.878 304.353 246.878 304.858 247.131L311.049 250.675C311.554 250.928 311.428 251.434 310.922 251.813L304.858 255.357C304.353 255.736 303.468 255.736 302.963 255.483Z" fill="white"/>
<path d="M312.565 260.924L306.374 257.381C305.869 257.128 305.995 256.622 306.5 256.242L312.565 252.699C313.196 252.32 313.954 252.32 314.46 252.573L320.65 256.116C321.156 256.369 321.029 256.875 320.524 257.255L314.46 260.798C313.828 261.177 313.07 261.304 312.565 260.924Z" fill="white"/>
<path d="M322.04 266.492L315.849 262.949C315.344 262.696 315.47 262.19 315.976 261.81L322.04 258.267C322.672 257.887 323.43 257.887 323.935 258.14L330.126 261.683C330.631 261.937 330.505 262.443 330 262.822L323.935 266.365C323.43 266.745 322.545 266.745 322.04 266.492Z" fill="white"/>
<path d="M331.516 271.933L325.325 268.39C324.82 268.137 324.946 267.631 325.451 267.251L331.516 263.708C332.147 263.328 332.905 263.329 333.411 263.582L339.601 267.125C340.107 267.378 339.98 267.884 339.475 268.264L333.411 271.807C332.905 272.186 332.021 272.313 331.516 271.933Z" fill="white"/>
<path d="M341.117 277.501L334.927 273.958C334.421 273.705 334.548 273.199 335.053 272.819L341.117 269.276C341.749 268.896 342.507 268.896 343.013 269.149L349.203 272.692C349.709 272.945 349.582 273.452 349.077 273.831L343.013 277.374C342.381 277.754 341.623 277.754 341.117 277.501Z" fill="white"/>
<path d="M350.593 282.942L344.402 279.399C343.897 279.146 344.023 278.64 344.529 278.26L350.593 274.717C351.225 274.337 351.983 274.337 352.488 274.591L358.679 278.134C359.184 278.387 359.058 278.893 358.552 279.272L352.488 282.816C351.983 283.195 351.098 283.195 350.593 282.942Z" fill="white"/>
<path d="M220.084 239.666L201.891 229.163C201.386 228.91 201.512 228.404 202.017 228.024L208.082 224.481C208.713 224.101 209.471 224.101 209.977 224.354L228.17 234.857C228.675 235.11 228.549 235.616 228.043 235.996L221.979 239.539C221.474 239.919 220.589 239.919 220.084 239.666Z" fill="white"/>
<path d="M336.948 307.238L318.755 296.735C318.25 296.482 318.376 295.976 318.882 295.596L324.946 292.053C325.578 291.673 326.336 291.673 326.841 291.926L345.034 302.429C345.539 302.682 345.413 303.188 344.908 303.568L338.843 307.111C338.338 307.491 337.454 307.491 336.948 307.238Z" fill="white"/>
<path d="M298.92 297.368L292.729 293.824C292.224 293.571 292.35 293.065 292.856 292.686L300.183 288.51C300.815 288.13 301.573 288.13 302.078 288.383L308.269 291.926C308.774 292.179 308.648 292.686 308.143 293.065L300.815 297.241C300.31 297.621 299.425 297.621 298.92 297.368Z" fill="white"/>
<path d="M229.812 257.381L219.958 251.687C219.452 251.434 219.579 250.928 220.084 250.548L227.412 246.372C228.043 245.993 228.801 245.993 229.307 246.246L239.161 251.94C239.667 252.193 239.54 252.699 239.035 253.079L231.707 257.255C231.202 257.634 230.317 257.761 229.812 257.381Z" fill="white"/>
<path d="M289.697 292.053L279.843 286.359C279.337 286.106 279.464 285.599 279.969 285.22L287.297 281.044C287.928 280.664 288.686 280.664 289.192 280.917L299.046 286.612C299.552 286.865 299.425 287.371 298.92 287.751L291.592 291.926C291.087 292.306 290.203 292.306 289.697 292.053Z" fill="white"/>
<path d="M243.583 265.353L233.729 259.659C233.223 259.406 233.35 258.9 233.855 258.52L241.183 254.344C241.814 253.965 242.572 253.965 243.078 254.218L252.932 259.912C253.438 260.165 253.311 260.671 252.806 261.051L245.478 265.227C244.847 265.606 244.088 265.606 243.583 265.353Z" fill="white"/>
<path d="M243.078 254.344L285.907 279.146C286.412 279.399 286.412 279.905 285.907 280.285L278.453 284.587C277.948 284.84 277.063 284.84 276.558 284.587L233.729 259.659L243.078 254.344Z" fill="white"/>
<path d="M325.451 307.364L332.274 311.287C332.653 311.54 332.653 311.92 332.147 312.173L329.115 313.944C328.61 314.197 327.978 314.197 327.473 314.071L320.65 310.148C320.271 309.895 320.271 309.515 320.777 309.262L323.809 307.491C324.441 307.111 325.072 307.111 325.451 307.364Z" fill="white"/>
<path d="M315.85 301.796L322.672 305.719C323.051 305.972 323.051 306.352 322.546 306.605L319.513 308.377C319.008 308.63 318.376 308.63 317.871 308.503L311.049 304.58C310.67 304.327 310.67 303.948 311.175 303.695L314.207 301.923C314.839 301.543 315.471 301.543 315.85 301.796Z" fill="white"/>
<path d="M306.374 296.355L313.196 300.278C313.575 300.531 313.575 300.911 313.07 301.164L310.038 302.935C309.532 303.188 308.901 303.188 308.395 303.062L301.573 299.139C301.194 298.886 301.194 298.506 301.699 298.253L304.732 296.482C305.237 296.102 305.995 296.102 306.374 296.355Z" fill="white"/>
<path d="M321.156 298.76L327.978 302.682C328.357 302.935 328.357 303.315 327.852 303.568L324.82 305.34C324.314 305.593 323.683 305.593 323.177 305.466L316.355 301.543C315.976 301.29 315.976 300.911 316.481 300.658L319.513 298.886C320.019 298.506 320.777 298.506 321.156 298.76Z" fill="white"/>
</g>
<path d="M420.08 282.942L243.836 180.951C241.056 179.433 239.667 175.51 240.677 172.347L279.969 44.5419C280.98 41.3784 284.012 40.113 286.665 41.6315L462.909 143.622C465.688 145.141 467.078 149.063 466.068 152.227L426.776 280.032C425.891 283.195 422.859 284.587 420.08 282.942Z" fill="url(#paint10_linear_31_1011)"/>
<path opacity="0.4" d="M420.08 282.942L243.836 180.951C241.056 179.433 239.667 175.51 240.677 172.347L279.969 44.5419C280.98 41.3784 284.012 40.113 286.665 41.6315L462.909 143.622C465.688 145.141 467.078 149.063 466.068 152.227L426.776 280.032C425.891 283.195 422.859 284.587 420.08 282.942Z" fill="#11A2FD"/>
<path opacity="0.4" d="M420.08 282.942L243.836 180.951C241.056 179.433 239.667 175.51 240.677 172.347L279.969 44.5419C280.98 41.3784 284.012 40.113 286.665 41.6315L462.909 143.622C465.688 145.141 467.078 149.063 466.068 152.227L426.776 280.032C425.891 283.195 422.859 284.587 420.08 282.942Z" fill="white"/>
<path opacity="0.5" d="M410.604 243.841L291.213 174.877C289.318 173.739 288.307 171.208 289.065 168.93L316.102 81.1118C316.734 78.9606 318.882 78.0748 320.65 79.0871L440.041 148.051C441.937 149.19 442.947 151.721 442.189 153.998L415.153 241.817C414.647 244.095 412.499 244.98 410.604 243.841Z" fill="#009EFF"/>
<path d="M394.559 245.993L275.168 177.029C273.273 175.89 272.262 173.359 273.02 171.081L300.057 83.2629C300.689 81.1118 302.837 80.226 304.605 81.2383L423.996 150.202C425.891 151.341 426.902 153.872 426.144 156.15L399.107 243.968C398.476 246.246 396.454 247.131 394.559 245.993Z" fill="url(#paint11_linear_31_1011)"/>
<g opacity="0.5">
<path d="M394.559 245.993L275.168 177.029C273.273 175.89 272.262 173.359 273.02 171.081L300.057 83.2629C300.689 81.1118 302.837 80.226 304.605 81.2383L423.996 150.202C425.891 151.341 426.902 153.872 426.144 156.15L399.107 243.968C398.476 246.246 396.454 247.131 394.559 245.993Z" fill="white"/>
</g>
<path d="M423.996 150.329L304.605 81.3648C303.468 80.7321 302.205 80.7321 301.194 81.4914C301.699 81.4914 302.331 81.6179 302.963 81.871L422.354 150.835C424.249 151.974 425.26 154.505 424.502 156.782L397.465 244.601C397.212 245.36 396.833 245.993 396.202 246.499C397.465 246.499 398.602 245.613 399.107 244.095L426.144 156.276C426.776 154.125 425.765 151.468 423.996 150.329Z" fill="white"/>
<path opacity="0.6" d="M243.962 317.741C242.32 317.741 240.804 317.361 239.54 316.728L191.784 289.143C190.52 288.383 189.762 287.371 189.762 286.232C189.762 284.84 190.773 283.575 192.416 282.563L217.052 268.39C220.084 266.619 224.506 266.492 227.159 268.011L274.915 295.596C276.179 296.355 276.937 297.368 276.937 298.506C276.937 299.898 275.926 301.164 274.284 302.176L249.647 316.349C248.005 317.234 245.984 317.741 243.962 317.741ZM222.737 268.137C220.968 268.137 219.2 268.517 217.81 269.402L193.174 283.575C191.91 284.334 191.278 285.22 191.278 285.979C191.278 286.865 191.91 287.371 192.542 287.751L240.298 315.463C242.446 316.728 246.489 316.602 249.016 315.083L273.652 300.911C274.915 300.152 275.547 299.266 275.547 298.506C275.547 297.621 274.915 297.115 274.284 296.735L226.527 269.149C225.517 268.39 224.127 268.137 222.737 268.137Z" fill="white"/>
<path d="M333.663 127.425L326.336 123.123C325.704 122.743 325.325 121.731 325.578 120.972C325.83 120.212 326.588 119.833 327.22 120.339L334.548 124.641C335.179 125.021 335.559 126.033 335.306 126.792C335.053 127.552 334.421 127.805 333.663 127.425Z" fill="white"/>
<path d="M351.225 137.548L340.359 131.221C339.728 130.842 339.349 129.829 339.601 129.07C339.854 128.311 340.612 127.931 341.244 128.438L352.109 134.764C352.741 135.144 353.12 136.156 352.867 136.916C352.741 137.675 351.983 137.928 351.225 137.548Z" fill="white"/>
<path d="M318.755 160.325L311.428 156.023C310.796 155.643 310.417 154.631 310.67 153.872C310.922 153.113 311.68 152.733 312.312 153.239L319.64 157.542C320.271 157.921 320.65 158.934 320.398 159.693C320.271 160.452 319.513 160.705 318.755 160.325Z" fill="white"/>
<path d="M334.421 169.31L323.556 162.983C322.924 162.603 322.545 161.591 322.798 160.832C323.051 160.072 323.809 159.693 324.441 160.199L335.306 166.526C335.937 166.905 336.316 167.918 336.064 168.677C335.937 169.436 335.179 169.816 334.421 169.31Z" fill="white"/>
<path d="M311.554 121.604L307.006 118.947C306.374 118.567 305.995 117.555 306.248 116.796C306.5 116.037 307.258 115.657 307.89 116.163L312.438 118.821C313.07 119.2 313.449 120.212 313.196 120.972C312.944 121.604 312.312 121.984 311.554 121.604Z" fill="white"/>
<path d="M325.451 136.536L311.428 128.438C310.796 128.058 310.417 127.046 310.67 126.286C310.922 125.527 311.68 125.147 312.312 125.654L326.336 133.752C326.967 134.132 327.346 135.144 327.094 135.903C326.841 136.536 326.083 136.916 325.451 136.536Z" fill="white"/>
<path d="M312.438 142.863L307.89 140.206C307.258 139.826 306.879 138.814 307.132 138.055C307.385 137.295 308.143 136.916 308.774 137.422L313.323 140.079C313.954 140.459 314.333 141.471 314.081 142.23C313.828 142.863 313.196 143.243 312.438 142.863Z" fill="white"/>
<path d="M336.19 184.241L323.935 177.155C323.303 176.776 322.924 175.763 323.177 175.004C323.43 174.245 324.188 173.865 324.82 174.371L337.075 181.458C337.706 181.837 338.085 182.849 337.833 183.609C337.58 184.241 336.822 184.621 336.19 184.241Z" fill="white"/>
<path d="M307.258 153.619L304.353 151.847C303.721 151.468 303.342 150.455 303.595 149.696C303.847 148.937 304.605 148.557 305.237 149.063L308.143 150.835C308.774 151.215 309.153 152.227 308.901 152.986C308.774 153.745 308.016 153.998 307.258 153.619Z" fill="white"/>
<path d="M304.479 165.893L300.815 163.742C300.183 163.362 299.804 162.35 300.057 161.591C300.31 160.832 301.068 160.452 301.699 160.958L305.363 163.109C305.995 163.489 306.374 164.501 306.121 165.26C305.869 166.02 305.237 166.273 304.479 165.893Z" fill="white"/>
<path d="M318.755 174.118L309.027 168.551C308.395 168.171 308.016 167.159 308.269 166.399C308.522 165.64 309.28 165.26 309.912 165.767L319.64 171.334C320.271 171.714 320.65 172.726 320.398 173.486C320.271 174.245 319.513 174.498 318.755 174.118Z" fill="white"/>
<path d="M305.995 173.739L299.046 169.689C298.415 169.31 298.036 168.297 298.288 167.538C298.541 166.779 299.299 166.399 299.931 166.905L306.879 170.955C307.511 171.334 307.89 172.347 307.637 173.106C307.511 173.739 306.753 174.118 305.995 173.739Z" fill="white"/>
<path d="M346.676 190.315L342.254 187.784C341.623 187.405 341.244 186.393 341.496 185.633C341.749 184.874 342.507 184.494 343.139 185.001L347.561 187.531C348.192 187.911 348.572 188.923 348.319 189.683C348.192 190.442 347.434 190.695 346.676 190.315Z" fill="white"/>
<path d="M329.621 152.733L317.366 145.647C316.734 145.267 316.355 144.255 316.608 143.496C316.86 142.736 317.618 142.357 318.25 142.863L330.505 149.949C331.137 150.329 331.516 151.341 331.263 152.1C331.01 152.86 330.252 153.113 329.621 152.733Z" fill="white"/>
<path d="M331.01 146.659L309.533 134.258C308.901 133.879 308.522 132.866 308.774 132.107C309.027 131.348 309.785 130.968 310.417 131.474L331.895 143.875C332.526 144.255 332.905 145.267 332.653 146.026C332.526 146.786 331.768 147.039 331.01 146.659Z" fill="#11A2FB"/>
<path d="M318.376 153.113L306.121 146.026C305.49 145.647 305.111 144.635 305.363 143.875C305.616 143.116 306.374 142.736 307.006 143.243L319.261 150.329C319.892 150.708 320.271 151.721 320.019 152.48C319.766 153.239 319.134 153.619 318.376 153.113Z" fill="#11A2FB"/>
<path d="M338.97 158.174L334.548 155.643C333.916 155.264 333.537 154.252 333.79 153.492C334.042 152.733 334.8 152.353 335.432 152.86L339.854 155.39C340.486 155.77 340.865 156.782 340.612 157.542C340.359 158.174 339.601 158.554 338.97 158.174Z" fill="#11A2FB"/>
<path d="M384.452 156.782L357.921 141.471C357.289 141.091 356.91 140.079 357.163 139.32C357.415 138.561 358.173 138.181 358.805 138.687L385.336 153.998C385.968 154.378 386.347 155.39 386.094 156.15C385.842 156.909 385.084 157.162 384.452 156.782Z" fill="#11A2FB"/>
<path d="M317.623 165.971L317.623 165.971L317.617 165.967L302.839 157.365C302.647 157.248 302.457 157.008 302.344 156.692C302.23 156.377 302.217 156.052 302.3 155.801C302.389 155.535 302.553 155.375 302.699 155.313C302.826 155.26 302.979 155.26 303.156 155.401L303.184 155.424L303.217 155.443L317.995 164.046C318.187 164.162 318.377 164.402 318.49 164.718C318.603 165.033 318.617 165.358 318.534 165.609C318.451 165.857 318.301 165.987 318.156 166.041C318.008 166.096 317.818 166.088 317.623 165.971Z" fill="url(#paint12_linear_31_1011)" stroke="url(#paint13_linear_31_1011)"/>
<path d="M319.897 118.898L319.897 118.898L319.891 118.895L309.029 112.57C308.838 112.453 308.648 112.213 308.534 111.897C308.421 111.583 308.407 111.257 308.491 111.006C308.58 110.74 308.744 110.58 308.89 110.518C309.017 110.465 309.17 110.465 309.346 110.606L309.375 110.629L309.407 110.648L320.269 116.973C320.461 117.089 320.651 117.329 320.764 117.645C320.875 117.954 320.891 118.273 320.812 118.522C320.64 118.931 320.198 119.079 319.897 118.898Z" fill="url(#paint14_linear_31_1011)" stroke="url(#paint15_linear_31_1011)"/>
<path d="M303.721 179.306L291.087 171.967C290.455 171.587 290.076 170.575 290.329 169.816C290.582 169.057 291.34 168.677 291.971 169.183L304.605 176.522C305.237 176.902 305.616 177.914 305.363 178.674C305.237 179.306 304.479 179.686 303.721 179.306Z" fill="#11A2FB"/>
<path d="M387.358 143.116L381.925 139.953C381.42 139.7 381.167 138.94 381.293 138.434C381.42 137.928 382.052 137.675 382.557 137.928L387.99 141.091C388.495 141.345 388.748 142.104 388.621 142.61C388.495 143.243 387.863 143.369 387.358 143.116Z" fill="white"/>
<path d="M397.718 149.063L392.285 145.9C391.78 145.647 391.527 144.888 391.653 144.381C391.78 143.875 392.411 143.622 392.917 143.875L398.349 147.039C398.855 147.292 399.107 148.051 398.981 148.557C398.728 149.19 398.223 149.317 397.718 149.063Z" fill="white"/>
<path d="M407.951 155.011L402.519 151.847C402.013 151.594 401.761 150.835 401.887 150.329C402.013 149.823 402.645 149.57 403.15 149.823L408.583 152.986C409.088 153.239 409.341 153.998 409.215 154.505C408.962 155.137 408.457 155.264 407.951 155.011Z" fill="white"/>
<path d="M413.232 157.441L413.175 157.384L413.102 157.348C412.995 157.294 412.874 157.16 412.792 156.949C412.71 156.74 412.699 156.53 412.732 156.397C412.75 156.324 412.81 156.247 412.922 156.203C413.015 156.165 413.124 156.159 413.225 156.192L413.283 156.25L413.34 156.307L413.413 156.344C413.52 156.397 413.641 156.531 413.723 156.742C413.805 156.952 413.816 157.161 413.783 157.294L413.78 157.305L413.778 157.317C413.762 157.398 413.734 157.442 413.712 157.467C413.691 157.492 413.661 157.512 413.62 157.526C413.544 157.552 413.425 157.553 413.293 157.503L413.232 157.441Z" fill="#F8359E" stroke="url(#paint16_linear_31_1011)"/>
<path d="M134.678 221.191C131.267 221.191 127.856 220.305 124.824 218.534L88.6905 197.655C87.1744 196.769 86.1637 195.124 86.1637 193.352C86.1637 191.581 87.0481 189.936 88.6905 189.05L124.824 168.171C130.888 164.628 138.468 164.628 144.533 168.171L180.666 189.05C182.182 189.936 183.193 191.581 183.193 193.352C183.193 195.124 182.308 196.769 180.666 197.655L144.533 218.534C141.501 220.305 138.089 221.191 134.678 221.191ZM125.961 216.509C131.267 219.672 137.963 219.672 143.396 216.509L179.529 195.63C180.413 195.124 180.792 194.238 180.792 193.352C180.792 192.34 180.287 191.581 179.529 191.074L143.396 170.195C138.089 167.032 131.393 167.032 125.961 170.195L89.8276 191.074C88.9432 191.581 88.5642 192.466 88.5642 193.352C88.5642 194.365 89.0695 195.124 89.8276 195.63L125.961 216.509Z" fill="url(#paint17_linear_31_1011)"/>
<path opacity="0.6" d="M134.552 208.031C148.228 208.031 159.314 201.629 159.314 193.732C159.314 185.835 148.228 179.433 134.552 179.433C120.876 179.433 109.789 185.835 109.789 193.732C109.789 201.629 120.876 208.031 134.552 208.031Z" fill="#11A2FB"/>
<path d="M171.317 91.488H100.566L107.136 168.171C107.136 172.473 109.916 176.649 115.601 179.939C126.845 186.393 145.038 186.393 156.282 179.939C161.841 176.649 164.747 172.473 164.747 168.171L171.317 91.488Z" fill="url(#paint18_radial_31_1011)"/>
<path opacity="0.4" d="M171.317 91.488H100.566L101.704 104.142C103.346 106.167 105.494 108.191 108.273 110.089C121.792 118.947 144.027 120.719 159.188 114.265L156.788 170.322C156.661 172.726 155.903 175.131 154.261 177.029C151.987 179.686 147.565 182.849 139.1 184.748C145.291 184.368 151.355 182.723 156.156 179.939C161.715 176.649 164.621 172.473 164.621 168.171L169.927 106.673L171.317 91.488Z" fill="#06033E"/>
<path opacity="0.4" d="M135.942 111.861C155.479 111.861 171.317 102.74 171.317 91.488C171.317 80.2364 155.479 71.1152 135.942 71.1152C116.404 71.1152 100.566 80.2364 100.566 91.488C100.566 102.74 116.404 111.861 135.942 111.861Z" fill="#06033E"/>
<path opacity="0.4" d="M135.942 101.864C152.758 101.864 166.389 93.9894 166.389 84.2753C166.389 74.5611 152.758 66.6863 135.942 66.6863C119.126 66.6863 105.494 74.5611 105.494 84.2753C105.494 93.9894 119.126 101.864 135.942 101.864Z" fill="#06033E"/>
<path d="M173.338 90.6022C173.338 90.4757 173.338 90.4757 173.338 90.4757L172.706 83.6426V83.7691C172.454 78.581 168.79 73.3929 161.968 69.4702C147.565 61.1186 124.318 61.1186 110.042 69.4702C102.967 73.5194 99.4294 78.8341 99.3031 84.1487L98.545 90.0961C98.545 90.2226 98.545 90.4757 98.545 90.6022V90.7288C98.166 96.5496 101.83 102.497 109.537 106.926C124.192 115.404 147.944 115.404 162.473 106.926C170.18 102.37 173.844 96.423 173.338 90.6022Z" fill="url(#paint19_radial_31_1011)"/>
<path d="M135.942 101.864C152.758 101.864 166.389 93.9894 166.389 84.2753C166.389 74.5611 152.758 66.6863 135.942 66.6863C119.126 66.6863 105.494 74.5611 105.494 84.2753C105.494 93.9894 119.126 101.864 135.942 101.864Z" fill="url(#paint20_linear_31_1011)"/>
<path d="M134.552 101.864C151.368 101.864 165 93.9894 165 84.2753C165 74.5611 151.368 66.6863 134.552 66.6863C117.736 66.6863 104.104 74.5611 104.104 84.2753C104.104 93.9894 117.736 101.864 134.552 101.864Z" fill="url(#paint21_radial_31_1011)"/>
<path opacity="0.4" d="M118.001 74.5317C129.877 67.6986 149.207 67.6986 161.083 74.5317C161.21 74.6583 161.336 74.6583 161.462 74.7848C160.325 73.7725 158.935 72.7602 157.419 71.8744C145.543 65.0413 126.213 65.0413 114.337 71.8744C102.588 78.7075 102.462 89.5899 113.958 96.5496C106.378 89.7164 107.768 80.4791 118.001 74.5317Z" fill="white"/>
<path d="M114.464 74.9113C126.34 68.0782 145.67 68.0782 157.546 74.9113C162.852 77.9483 165.758 81.871 166.39 85.7937C167.148 80.7322 164.242 75.6706 157.546 71.8744C145.67 65.0413 126.34 65.0413 114.464 71.8744C107.894 75.6706 104.862 80.8587 105.62 85.7937C106.252 81.871 109.158 77.9483 114.464 74.9113Z" fill="url(#paint22_radial_31_1011)"/>
<path d="M162.22 69.4702C147.818 60.992 124.445 60.7389 110.042 68.964C95.6392 77.1891 95.5129 90.6022 109.789 99.0804C124.066 107.559 147.439 107.685 161.968 99.5865C176.37 91.3615 176.497 77.9483 162.22 69.4702ZM157.419 96.8027C153.503 99.0804 148.702 100.599 143.522 101.358L143.017 99.5865C142.764 98.8273 142.132 98.3211 141.374 98.3211H130.383C129.625 98.3211 128.993 98.8273 128.74 99.5865L128.235 101.358C123.181 100.599 118.38 99.0804 114.338 96.8027C102.462 89.9695 102.462 78.8341 114.338 71.8744C126.213 65.0413 145.543 65.0413 157.419 71.8744C169.422 78.7075 169.422 89.843 157.419 96.8027Z" fill="url(#paint23_radial_31_1011)"/>
<path d="M157.419 70.609C145.543 63.7759 126.213 63.7759 114.338 70.609C108.147 74.1521 105.115 78.9606 105.494 83.6426C105.746 79.3402 108.779 75.1644 114.338 71.8744C126.213 65.0413 145.543 65.0413 157.419 71.8744C163.105 75.1644 166.011 79.3402 166.263 83.6426C166.642 78.9606 163.736 74.1521 157.419 70.609Z" fill="white"/>
<path d="M161.841 98.3211C147.312 106.546 124.066 106.293 109.663 97.815C102.841 93.7657 99.3031 88.5776 99.0504 83.3895C98.7977 88.9572 102.335 94.778 109.663 99.0804C123.939 107.559 147.312 107.685 161.841 99.5865C169.422 95.2842 173.086 89.5899 172.706 83.7691C172.58 89.0838 168.916 94.3984 161.841 98.3211Z" fill="white"/>
<path d="M139.226 102.244H132.657C132.151 102.244 131.772 101.864 131.772 101.358V101.232C131.772 100.725 132.151 100.346 132.657 100.346H139.226C139.732 100.346 140.111 100.725 140.111 101.232V101.358C139.984 101.864 139.732 102.244 139.226 102.244Z" fill="white"/>
<path d="M139.226 100.472H132.657C132.151 100.472 131.772 100.852 131.772 101.358V101.485C131.772 101.611 131.772 101.611 131.772 101.738C131.899 101.358 132.151 101.105 132.53 101.105H139.1C139.479 101.105 139.732 101.358 139.858 101.738C139.858 101.611 139.858 101.611 139.858 101.485V101.358C139.984 100.852 139.732 100.472 139.226 100.472Z" fill="url(#paint24_radial_31_1011)"/>
<path opacity="0.5" d="M138.216 101.358C138.216 101.358 157.925 94.778 149.965 72.0009C142.006 49.2238 126.34 42.3907 132.657 24.169C132.657 24.169 122.802 38.8476 132.025 58.8408C141.248 78.7075 143.269 76.4298 143.143 86.0468C143.017 97.3088 133.92 101.485 133.92 101.485H138.216V101.358Z" fill="white"/>
<path opacity="0.5" d="M139.985 27.3325C139.985 27.3325 137.963 13.6663 150.723 0C150.723 0 139.479 25.1813 143.143 37.7087C143.143 37.7087 140.111 29.7368 139.985 27.3325Z" fill="white"/>
<path d="M130.451 148.267H134.104C134.709 148.267 135.267 148.059 135.663 147.736C136.058 147.412 136.314 146.95 136.314 146.441C136.314 145.425 135.314 144.593 134.104 144.616H130.451L124.472 138.676C124.426 138.63 124.356 138.607 124.309 138.607H123.076C122.937 138.607 122.843 138.699 122.843 138.838V142.235C122.843 142.305 122.867 142.351 122.913 142.397L126.822 146.28C126.915 146.372 126.915 146.511 126.822 146.603L122.913 150.486C122.867 150.532 122.843 150.578 122.843 150.647V154.045C122.843 154.183 122.937 154.276 123.076 154.276H124.309C124.379 154.276 124.426 154.253 124.472 154.206L130.451 148.267Z" fill="white"/>
<path d="M143.317 146.441C143.271 147.944 142.899 149.284 142.177 150.439C141.41 151.664 140.339 152.612 138.943 153.282C137.547 153.952 135.965 154.276 134.151 154.276H126.473C126.263 154.276 126.17 154.021 126.31 153.883L129.544 150.67C129.59 150.624 129.637 150.601 129.707 150.601H133.941C135.36 150.601 136.477 150.208 137.338 149.423C138.129 148.683 138.548 147.712 138.618 146.464C138.548 145.217 138.129 144.246 137.338 143.506C136.477 142.721 135.36 142.328 133.941 142.328H129.73C129.66 142.328 129.614 142.305 129.567 142.258L127.124 139.786L126.333 139C126.17 138.861 126.287 138.607 126.473 138.607H134.127C135.919 138.607 137.524 138.931 138.92 139.601C140.316 140.271 141.386 141.218 142.154 142.443C142.899 143.599 143.271 144.939 143.317 146.441Z" fill="white"/>
</g>
<defs>
<linearGradient id="paint0_linear_31_1011" x1="512.78" y1="340.858" x2="553.981" y2="340.858" gradientUnits="userSpaceOnUse">
<stop stop-color="#E39A65"/>
<stop offset="1" stop-color="#E95F8D"/>
</linearGradient>
<linearGradient id="paint1_linear_31_1011" x1="512.78" y1="340.858" x2="553.981" y2="340.858" gradientUnits="userSpaceOnUse">
<stop stop-color="#13A3F7"/>
<stop offset="1" stop-color="#50D88D"/>
</linearGradient>
<linearGradient id="paint2_linear_31_1011" x1="456.368" y1="284.304" x2="525.575" y2="284.304" gradientUnits="userSpaceOnUse">
<stop stop-color="#E39A65"/>
<stop offset="1" stop-color="#E95F8D"/>
</linearGradient>
<linearGradient id="paint3_linear_31_1011" x1="456.284" y1="284.143" x2="525.416" y2="284.143" gradientUnits="userSpaceOnUse">
<stop stop-color="#13A3F7"/>
<stop offset="1" stop-color="#50D88D"/>
</linearGradient>
<linearGradient id="paint4_linear_31_1011" x1="0" y1="307.526" x2="69.2068" y2="307.526" gradientUnits="userSpaceOnUse">
<stop stop-color="#E39A65"/>
<stop offset="1" stop-color="#E95F8D"/>
</linearGradient>
<linearGradient id="paint5_linear_31_1011" x1="-0.0551167" y1="307.426" x2="69.0767" y2="307.426" gradientUnits="userSpaceOnUse">
<stop stop-color="#13A3F7"/>
<stop offset="1" stop-color="#50D88D"/>
</linearGradient>
<linearGradient id="paint6_linear_31_1011" x1="108.522" y1="301.794" x2="422.849" y2="301.794" gradientUnits="userSpaceOnUse">
<stop stop-color="#13A3F7"/>
<stop offset="1" stop-color="#50D88D"/>
</linearGradient>
<linearGradient id="paint7_linear_31_1011" x1="80.3103" y1="302.723" x2="449.729" y2="302.723" gradientUnits="userSpaceOnUse">
<stop stop-color="#13A3F7"/>
<stop offset="1" stop-color="#50D88D"/>
</linearGradient>
<linearGradient id="paint8_linear_31_1011" x1="239.292" y1="161.142" x2="473.181" y2="161.142" gradientUnits="userSpaceOnUse">
<stop stop-color="#13A3F7"/>
<stop offset="1" stop-color="#50D88D"/>
</linearGradient>
<radialGradient id="paint9_radial_31_1011" cx="0" cy="0" r="1" gradientUnits="userSpaceOnUse" gradientTransform="translate(140.421 196.349) scale(276.634 281.058)">
<stop stop-color="#96FFC1"/>
<stop offset="0.360564" stop-color="#52DA8A"/>
<stop offset="0.611623" stop-color="#11A2FD"/>
<stop offset="0.767637" stop-color="#31B1FF"/>
<stop offset="0.953125" stop-color="#009EFF"/>
</radialGradient>
<linearGradient id="paint10_linear_31_1011" x1="240.35" y1="162.306" x2="466.455" y2="162.306" gradientUnits="userSpaceOnUse">
<stop stop-color="white"/>
<stop offset="1" stop-color="white"/>
</linearGradient>
<linearGradient id="paint11_linear_31_1011" x1="424.811" y1="154.271" x2="300.838" y2="221.761" gradientUnits="userSpaceOnUse">
<stop stop-color="#13A3F7"/>
<stop offset="0.0001" stop-color="#00A1FF"/>
<stop offset="1" stop-color="#19DE71"/>
</linearGradient>
<linearGradient id="paint12_linear_31_1011" x1="301.747" y1="154.78" x2="319.875" y2="156.15" gradientUnits="userSpaceOnUse">
<stop stop-color="#34B76A"/>
<stop offset="1" stop-color="#00D13B"/>
</linearGradient>
<linearGradient id="paint13_linear_31_1011" x1="301.747" y1="154.78" x2="319.875" y2="156.15" gradientUnits="userSpaceOnUse">
<stop stop-color="#34B76A"/>
<stop offset="1" stop-color="#00D13B"/>
</linearGradient>
<linearGradient id="paint14_linear_31_1011" x1="307.937" y1="109.985" x2="321.977" y2="111.005" gradientUnits="userSpaceOnUse">
<stop stop-color="#34B76A"/>
<stop offset="1" stop-color="#00D13B"/>
</linearGradient>
<linearGradient id="paint15_linear_31_1011" x1="307.937" y1="109.985" x2="321.977" y2="111.005" gradientUnits="userSpaceOnUse">
<stop stop-color="#34B76A"/>
<stop offset="1" stop-color="#00D13B"/>
</linearGradient>
<linearGradient id="paint16_linear_31_1011" x1="412.215" y1="155.671" x2="414.403" y2="155.77" gradientUnits="userSpaceOnUse">
<stop stop-color="#34B76A"/>
<stop offset="1" stop-color="#00D13B"/>
</linearGradient>
<linearGradient id="paint17_linear_31_1011" x1="86.0863" y1="193.262" x2="183.149" y2="193.262" gradientUnits="userSpaceOnUse">
<stop stop-color="#13A3F7"/>
<stop offset="1" stop-color="#50D88D"/>
</linearGradient>
<radialGradient id="paint18_radial_31_1011" cx="0" cy="0" r="1" gradientUnits="userSpaceOnUse" gradientTransform="translate(107.692 98.3389) scale(62.2877 142.257)">
<stop stop-color="#96FFC1"/>
<stop offset="0.360564" stop-color="#52DA8A"/>
<stop offset="0.611623" stop-color="#11A2FD"/>
<stop offset="0.767637" stop-color="#31B1FF"/>
<stop offset="0.953125" stop-color="#009EFF"/>
</radialGradient>
<radialGradient id="paint19_radial_31_1011" cx="0" cy="0" r="1" gradientUnits="userSpaceOnUse" gradientTransform="translate(106.059 66.8839) scale(65.9109 76.3625)">
<stop stop-color="#96FFC1"/>
<stop offset="0.360564" stop-color="#52DA8A"/>
<stop offset="0.611623" stop-color="#11A2FD"/>
<stop offset="0.767637" stop-color="#31B1FF"/>
<stop offset="0.953125" stop-color="#009EFF"/>
</radialGradient>
<linearGradient id="paint20_linear_31_1011" x1="105.445" y1="84.2185" x2="166.362" y2="84.2185" gradientUnits="userSpaceOnUse">
<stop stop-color="#13A3F7"/>
<stop offset="1" stop-color="#50D88D"/>
</linearGradient>
<radialGradient id="paint21_radial_31_1011" cx="0" cy="0" r="1" gradientUnits="userSpaceOnUse" gradientTransform="translate(110.237 69.2696) scale(53.6119 53.6419)">
<stop stop-color="#96FFC1"/>
<stop offset="0.360564" stop-color="#52DA8A"/>
<stop offset="0.611623" stop-color="#11A2FD"/>
<stop offset="0.767637" stop-color="#31B1FF"/>
<stop offset="0.953125" stop-color="#009EFF"/>
</radialGradient>
<radialGradient id="paint22_radial_31_1011" cx="0" cy="0" r="1" gradientUnits="userSpaceOnUse" gradientTransform="translate(168.609 69.9062) rotate(-178.897) scale(62.6377 33.8705)">
<stop stop-color="#96FFC1"/>
<stop offset="0.360564" stop-color="#52DA8A"/>
<stop offset="0.611623" stop-color="#11A2FD"/>
<stop offset="0.767637" stop-color="#31B1FF"/>
<stop offset="0.953125" stop-color="#009EFF"/>
</radialGradient>
<radialGradient id="paint23_radial_31_1011" cx="0" cy="0" r="1" gradientUnits="userSpaceOnUse" gradientTransform="translate(106.582 66.0786) scale(64.8745 64.9624)">
<stop stop-color="#96FFC1"/>
<stop offset="0.360564" stop-color="#52DA8A"/>
<stop offset="0.611623" stop-color="#11A2FD"/>
<stop offset="0.767637" stop-color="#31B1FF"/>
<stop offset="0.953125" stop-color="#009EFF"/>
</radialGradient>
<radialGradient id="paint24_radial_31_1011" cx="0" cy="0" r="1" gradientUnits="userSpaceOnUse" gradientTransform="translate(132.59 100.565) scale(7.14693 1.92956)">
<stop stop-color="#96FFC1"/>
<stop offset="0.360564" stop-color="#52DA8A"/>
<stop offset="0.611623" stop-color="#11A2FD"/>
<stop offset="0.767637" stop-color="#31B1FF"/>
<stop offset="0.953125" stop-color="#009EFF"/>
</radialGradient>
<clipPath id="clip0_31_1011">
<rect width="554" height="411" fill="white"/>
</clipPath>
</defs>
</svg>
