<svg width="192" height="27" viewBox="0 0 192 27" fill="none" xmlns="http://www.w3.org/2000/svg">
<path fill-rule="evenodd" clip-rule="evenodd" d="M81.4996 6.7887H77.2464V21.4567H81.4996V6.7887ZM77.4645 4.06232C77.9553 4.51671 78.5914 4.74391 79.373 4.74391C80.1546 4.74391 80.7907 4.51671 81.2815 4.06232C81.7722 3.58974 82.0176 2.99902 82.0176 2.29016C82.0176 1.63583 81.7722 1.09055 81.2815 0.654333C80.7907 0.21811 80.1546 0 79.373 0C78.5914 0 77.9553 0.227198 77.4645 0.681596C76.9738 1.13599 76.7284 1.69945 76.7284 2.37196C76.7284 3.04446 76.9738 3.60792 77.4645 4.06232ZM59.1654 7.52483C58.0566 6.88867 56.8207 6.57059 55.4575 6.57059C53.5854 6.57059 52.1131 7.16131 51.0407 8.34274V1.22687H46.7876V21.4567H50.8499V19.7663C51.9041 21.0386 53.4399 21.6748 55.4575 21.6748C56.8207 21.6748 58.0566 21.3658 59.1654 20.7478C60.2923 20.1116 61.1738 19.2301 61.81 18.1032C62.4461 16.9581 62.7642 15.6313 62.7642 14.1227C62.7642 12.6141 62.4461 11.2963 61.81 10.1694C61.1738 9.02434 60.2923 8.14281 59.1654 7.52483ZM57.3932 17.0944C56.7025 17.8215 55.8119 18.185 54.7214 18.185C53.6308 18.185 52.7311 17.8215 52.0222 17.0944C51.3315 16.3492 50.9862 15.3586 50.9862 14.1227C50.9862 12.8867 51.3315 11.9052 52.0222 11.1782C52.7311 10.433 53.6308 10.0604 54.7214 10.0604C55.8119 10.0604 56.7025 10.433 57.3932 11.1782C58.1021 11.9052 58.4565 12.8867 58.4565 14.1227C58.4565 15.3586 58.1021 16.3492 57.3932 17.0944ZM31.7305 20.7205C32.9664 21.3567 34.3569 21.6748 35.9018 21.6748C37.4468 21.6748 38.8282 21.3567 40.0459 20.7205C41.2637 20.0662 42.218 19.1665 42.9086 18.0214C43.5993 16.8763 43.9447 15.5768 43.9447 14.1227C43.9447 12.6686 43.5993 11.369 42.9086 10.2239C42.218 9.07887 41.2637 8.18825 40.0459 7.55209C38.8282 6.89776 37.4468 6.57059 35.9018 6.57059C34.3569 6.57059 32.9664 6.89776 31.7305 7.55209C30.5127 8.18825 29.5584 9.07887 28.8678 10.2239C28.1771 11.369 27.8317 12.6686 27.8317 14.1227C27.8317 15.5768 28.1771 16.8763 28.8678 18.0214C29.5584 19.1665 30.5127 20.0662 31.7305 20.7205ZM38.5737 17.0944C37.883 17.8215 36.9924 18.185 35.9018 18.185C34.8113 18.185 33.9116 17.8215 33.2027 17.0944C32.4938 16.3492 32.1394 15.3586 32.1394 14.1227C32.1394 12.8867 32.4938 11.9052 33.2027 11.1782C33.9116 10.433 34.8113 10.0604 35.9018 10.0604C36.9924 10.0604 37.883 10.433 38.5737 11.1782C39.2826 11.9052 39.637 12.8867 39.637 14.1227C39.637 15.3586 39.2826 16.3492 38.5737 17.0944ZM69.6737 8.72444C70.1826 8.01557 70.8642 7.47939 71.7184 7.11587C72.5909 6.75235 73.5906 6.57059 74.7175 6.57059V10.4966C74.2449 10.4602 73.9268 10.4421 73.7632 10.4421C72.5455 10.4421 71.5912 10.7874 70.9005 11.4781C70.2099 12.1506 69.8645 13.1684 69.8645 14.5316V21.4567H65.6113V6.7887H69.6737V8.72444ZM100.006 6.7887L93.3807 22.3564C92.7081 24.0467 91.8721 25.2372 90.8724 25.9279C89.8909 26.6186 88.7004 26.964 87.3008 26.964C86.5374 26.964 85.7831 26.8458 85.0379 26.6095C84.2927 26.3732 83.6838 26.0461 83.2112 25.628L84.7653 22.6017C85.0924 22.8926 85.465 23.1198 85.8831 23.2833C86.3193 23.4469 86.7464 23.5287 87.1645 23.5287C87.7461 23.5287 88.2187 23.3833 88.5822 23.0925C88.9457 22.8199 89.2729 22.3564 89.5637 21.702L89.6182 21.5657L83.2658 6.7887H87.6552L91.7721 16.74L95.9162 6.7887H100.006ZM113.607 20.5297C115.188 21.3658 116.951 21.7838 118.896 21.7838C120.55 21.7838 122.049 21.493 123.394 20.9114C124.739 20.3298 125.866 19.4846 126.775 18.3758L123.94 15.7585C122.649 17.2671 121.05 18.0214 119.141 18.0214C117.96 18.0214 116.906 17.767 115.979 17.258C115.052 16.7309 114.325 16.0039 113.797 15.0769C113.289 14.1499 113.034 13.0957 113.034 11.9143C113.034 10.7329 113.289 9.67867 113.797 8.7517C114.325 7.82473 115.052 7.10678 115.979 6.59785C116.906 6.07075 117.96 5.8072 119.141 5.8072C121.05 5.8072 122.649 6.55241 123.94 8.04284L126.775 5.42551C125.866 4.33495 124.739 3.49886 123.394 2.91723C122.067 2.3356 120.577 2.04479 118.923 2.04479C116.96 2.04479 115.188 2.47192 113.607 3.32619C112.043 4.16228 110.808 5.33463 109.899 6.84323C109.008 8.33365 108.563 10.024 108.563 11.9143C108.563 13.8046 109.008 15.504 109.899 17.0126C110.808 18.5031 112.043 19.6754 113.607 20.5297ZM135.931 21.6748C134.386 21.6748 132.996 21.3567 131.76 20.7205C130.542 20.0662 129.588 19.1665 128.897 18.0214C128.207 16.8763 127.861 15.5768 127.861 14.1227C127.861 12.6686 128.207 11.369 128.897 10.2239C129.588 9.07887 130.542 8.18825 131.76 7.55209C132.996 6.89776 134.386 6.57059 135.931 6.57059C137.476 6.57059 138.858 6.89776 140.076 7.55209C141.293 8.18825 142.248 9.07887 142.938 10.2239C143.629 11.369 143.974 12.6686 143.974 14.1227C143.974 15.5768 143.629 16.8763 142.938 18.0214C142.248 19.1665 141.293 20.0662 140.076 20.7205C138.858 21.3567 137.476 21.6748 135.931 21.6748ZM135.931 18.185C137.022 18.185 137.913 17.8215 138.603 17.0944C139.312 16.3492 139.667 15.3586 139.667 14.1227C139.667 12.8867 139.312 11.9052 138.603 11.1782C137.913 10.433 137.022 10.0604 135.931 10.0604C134.841 10.0604 133.941 10.433 133.232 11.1782C132.523 11.9052 132.169 12.8867 132.169 14.1227C132.169 15.3586 132.523 16.3492 133.232 17.0944C133.941 17.8215 134.841 18.185 135.931 18.185ZM161.758 21.4567V1.22687H157.505V8.34274C156.45 7.16131 154.987 6.57059 153.115 6.57059C151.734 6.57059 150.48 6.87958 149.353 7.49756C148.244 8.11554 147.372 8.99708 146.735 10.1422C146.099 11.2872 145.781 12.6141 145.781 14.1227C145.781 15.6313 146.099 16.9581 146.735 18.1032C147.372 19.2483 148.244 20.1298 149.353 20.7478C150.48 21.3658 151.734 21.6748 153.115 21.6748C155.114 21.6748 156.641 21.0386 157.695 19.7663V21.4567H161.758ZM156.523 17.0944C155.814 17.8215 154.924 18.185 153.851 18.185C152.761 18.185 151.861 17.8215 151.152 17.0944C150.443 16.3492 150.089 15.3586 150.089 14.1227C150.089 12.8867 150.443 11.9052 151.152 11.1782C151.861 10.433 152.761 10.0604 153.851 10.0604C154.924 10.0604 155.814 10.433 156.523 11.1782C157.232 11.9052 157.586 12.8867 157.586 14.1227C157.586 15.3586 157.232 16.3492 156.523 17.0944ZM180.062 14.1772C180.062 14.2317 180.035 14.6134 179.98 15.3223H168.884C169.084 16.2311 169.557 16.949 170.302 17.4761C171.047 18.0032 171.974 18.2668 173.083 18.2668C173.846 18.2668 174.519 18.1577 175.1 17.9396C175.7 17.7033 176.254 17.3398 176.763 16.8491L179.026 19.3028C177.645 20.8841 175.627 21.6748 172.974 21.6748C171.32 21.6748 169.856 21.3567 168.584 20.7205C167.312 20.0662 166.33 19.1665 165.64 18.0214C164.949 16.8763 164.604 15.5768 164.604 14.1227C164.604 12.6868 164.94 11.3963 165.612 10.2512C166.303 9.08795 167.239 8.18825 168.421 7.55209C169.62 6.89776 170.956 6.57059 172.428 6.57059C173.864 6.57059 175.164 6.87958 176.327 7.49756C177.49 8.11554 178.399 9.00616 179.053 10.1694C179.726 11.3145 180.062 12.6504 180.062 14.1772ZM172.456 9.78773C171.492 9.78773 170.684 10.0604 170.029 10.6056C169.375 11.1509 168.975 11.8961 168.83 12.8413H176.054C175.909 11.9143 175.509 11.1782 174.855 10.6329C174.201 10.0695 173.401 9.78773 172.456 9.78773ZM189.001 7.11587C188.147 7.47939 187.465 8.01557 186.956 8.72444V6.7887H182.894V21.4567H187.147V14.5316C187.147 13.1684 187.492 12.1506 188.183 11.4781C188.874 10.7874 189.828 10.4421 191.046 10.4421C191.209 10.4421 191.527 10.4602 192 10.4966V6.57059C190.873 6.57059 189.873 6.75235 189.001 7.11587ZM13.7454 14.3317H9.28673L1.98799 21.6305C1.93119 21.6873 1.87439 21.7157 1.78919 21.7157H0.283999C0.113599 21.7157 0 21.6021 0 21.4317V17.2569C0 17.1717 0.0283999 17.1149 0.0851996 17.0581L4.85638 12.2869C4.96997 12.1733 4.96997 12.0029 4.85638 11.8893L0.0851996 7.11815C0.0283999 7.06135 0 7.00455 0 6.91935V2.74457C0 2.57417 0.113599 2.46057 0.283999 2.46057H1.78919C1.84599 2.46057 1.93119 2.48897 1.98799 2.54577L9.28678 9.84456H13.7454C15.2222 9.81616 16.4434 10.8386 16.4434 12.0881C16.4434 12.7129 16.131 13.2809 15.6482 13.6785C15.1654 14.0761 14.4838 14.3317 13.7454 14.3317ZM23.6002 17.0013C24.4805 15.5813 24.9349 13.9341 24.9917 12.0881C24.9349 10.2421 24.4805 8.59494 23.5718 7.17495C22.6346 5.66975 21.3282 4.50536 19.6242 3.68176C17.9202 2.85817 15.9606 2.46057 13.7738 2.46057H4.43025C4.20305 2.46057 4.06105 2.77297 4.25985 2.94337L5.22545 3.90896L8.20743 6.94775C8.26423 7.00455 8.32103 7.03295 8.40623 7.03295H13.5466C15.279 7.03295 16.6422 7.51575 17.693 8.48134C18.6586 9.39014 19.1698 10.5829 19.255 12.1165C19.1698 13.6501 18.6586 14.8429 17.693 15.7517C16.6422 16.7173 15.279 17.2001 13.5466 17.2001H8.37783C8.29263 17.2001 8.23583 17.2285 8.17903 17.2853L4.23145 21.2329C4.06105 21.4033 4.17465 21.7157 4.43025 21.7157H13.8022C16.0174 21.7157 17.9486 21.3181 19.6526 20.4945C21.3566 19.6709 22.663 18.5065 23.6002 17.0013Z" fill="url(#paint0_linear_31_549)"/>
<defs>
<linearGradient id="paint0_linear_31_549" x1="-0.153129" y1="13.4384" x2="192" y2="13.4384" gradientUnits="userSpaceOnUse">
<stop stop-color="#13A3F7"/>
<stop offset="1" stop-color="#50D88D"/>
</linearGradient>
</defs>
</svg>
